<?xml version="1.0" encoding="UTF-8"?>
<!--Generator: Apple Native CoreSVG 175-->
<!DOCTYPE svg
PUBLIC "-//W3C//DTD SVG 1.1//EN"
       "http://www.w3.org/Graphics/SVG/1.1/DTD/svg11.dtd">
<svg version="1.1" xmlns="http://www.w3.org/2000/svg" xmlns:xlink="http://www.w3.org/1999/xlink" width="3300" height="2200">
 <!--glyph: "uni100202.medium", point size: 100.0, font version: "17.3d3e1", template writer version: "65.1"-->
 <g id="Notes">
  <rect height="2200" id="artboard" style="fill:white;opacity:1" width="3300" x="0" y="0"/>
  <line style="fill:none;stroke:black;opacity:1;stroke-width:0.5;" x1="263" x2="3036" y1="292" y2="292"/>
  <text style="stroke:none;fill:black;font-family:sans-serif;font-size:13;font-weight:bold;" transform="matrix(1 0 0 1 263 322)">Weight/Scale Variations</text>
  <text style="stroke:none;fill:black;font-family:sans-serif;font-size:13;text-anchor:middle;" transform="matrix(1 0 0 1 559.711 322)">Ultralight</text>
  <text style="stroke:none;fill:black;font-family:sans-serif;font-size:13;text-anchor:middle;" transform="matrix(1 0 0 1 856.422 322)">Thin</text>
  <text style="stroke:none;fill:black;font-family:sans-serif;font-size:13;text-anchor:middle;" transform="matrix(1 0 0 1 1153.13 322)">Light</text>
  <text style="stroke:none;fill:black;font-family:sans-serif;font-size:13;text-anchor:middle;" transform="matrix(1 0 0 1 1449.84 322)">Regular</text>
  <text style="stroke:none;fill:black;font-family:sans-serif;font-size:13;text-anchor:middle;" transform="matrix(1 0 0 1 1746.56 322)">Medium</text>
  <text style="stroke:none;fill:black;font-family:sans-serif;font-size:13;text-anchor:middle;" transform="matrix(1 0 0 1 2043.27 322)">Semibold</text>
  <text style="stroke:none;fill:black;font-family:sans-serif;font-size:13;text-anchor:middle;" transform="matrix(1 0 0 1 2339.98 322)">Bold</text>
  <text style="stroke:none;fill:black;font-family:sans-serif;font-size:13;text-anchor:middle;" transform="matrix(1 0 0 1 2636.69 322)">Heavy</text>
  <text style="stroke:none;fill:black;font-family:sans-serif;font-size:13;text-anchor:middle;" transform="matrix(1 0 0 1 2933.4 322)">Black</text>
  <line style="fill:none;stroke:black;opacity:1;stroke-width:0.5;" x1="263" x2="3036" y1="1903" y2="1903"/>
  <g transform="matrix(1 0 0 1 263 1933)">
   <path d="M9.24805 0.830078Q10.8691 0.830078 12.2949 0.214844Q13.7207-0.400391 14.8096-1.49414Q15.8984-2.58789 16.5186-4.01367Q17.1387-5.43945 17.1387-7.05078Q17.1387-8.66211 16.5186-10.0879Q15.8984-11.5137 14.8047-12.6074Q13.7109-13.7012 12.2852-14.3164Q10.8594-14.9316 9.23828-14.9316Q7.62695-14.9316 6.20117-14.3164Q4.77539-13.7012 3.69141-12.6074Q2.60742-11.5137 1.9873-10.0879Q1.36719-8.66211 1.36719-7.05078Q1.36719-5.43945 1.9873-4.01367Q2.60742-2.58789 3.69629-1.49414Q4.78516-0.400391 6.21094 0.214844Q7.63672 0.830078 9.24805 0.830078ZM9.24805-0.654297Q7.91992-0.654297 6.7627-1.14746Q5.60547-1.64062 4.73145-2.51953Q3.85742-3.39844 3.36426-4.56055Q2.87109-5.72266 2.87109-7.05078Q2.87109-8.37891 3.35938-9.54102Q3.84766-10.7031 4.72168-11.582Q5.5957-12.4609 6.75293-12.9541Q7.91016-13.4473 9.23828-13.4473Q10.5762-13.4473 11.7334-12.9541Q12.8906-12.4609 13.7695-11.582Q14.6484-10.7031 15.1465-9.54102Q15.6445-8.37891 15.6445-7.05078Q15.6445-5.72266 15.1514-4.56055Q14.6582-3.39844 13.7842-2.51953Q12.9102-1.64062 11.748-1.14746Q10.5859-0.654297 9.24805-0.654297ZM5.6543-7.05078Q5.6543-6.72852 5.85938-6.52832Q6.06445-6.32812 6.40625-6.32812L8.51562-6.32812L8.51562-4.20898Q8.51562-3.88672 8.71094-3.67676Q8.90625-3.4668 9.23828-3.4668Q9.56055-3.4668 9.77051-3.67676Q9.98047-3.88672 9.98047-4.20898L9.98047-6.32812L12.0898-6.32812Q12.4219-6.32812 12.627-6.52832Q12.832-6.72852 12.832-7.05078Q12.832-7.38281 12.627-7.58789Q12.4219-7.79297 12.0898-7.79297L9.98047-7.79297L9.98047-9.90234Q9.98047-10.2344 9.77051-10.4443Q9.56055-10.6543 9.23828-10.6543Q8.90625-10.6543 8.71094-10.4443Q8.51562-10.2344 8.51562-9.90234L8.51562-7.79297L6.40625-7.79297Q6.06445-7.79297 5.85938-7.58789Q5.6543-7.38281 5.6543-7.05078Z"/>
  </g>
  <g transform="matrix(1 0 0 1 281.867 1933)">
   <path d="M11.709 2.91016Q13.75 2.91016 15.5518 2.12891Q17.3535 1.34766 18.7305-0.0292969Q20.1074-1.40625 20.8887-3.20801Q21.6699-5.00977 21.6699-7.05078Q21.6699-9.0918 20.8887-10.8936Q20.1074-12.6953 18.7305-14.0723Q17.3535-15.4492 15.5469-16.2305Q13.7402-17.0117 11.6992-17.0117Q9.6582-17.0117 7.85645-16.2305Q6.05469-15.4492 4.68262-14.0723Q3.31055-12.6953 2.5293-10.8936Q1.74805-9.0918 1.74805-7.05078Q1.74805-5.00977 2.5293-3.20801Q3.31055-1.40625 4.6875-0.0292969Q6.06445 1.34766 7.86621 2.12891Q9.66797 2.91016 11.709 2.91016ZM11.709 1.25Q9.98047 1.25 8.47656 0.605469Q6.97266-0.0390625 5.83496-1.17676Q4.69727-2.31445 4.05762-3.81836Q3.41797-5.32227 3.41797-7.05078Q3.41797-8.7793 4.05762-10.2832Q4.69727-11.7871 5.83008-12.9297Q6.96289-14.0723 8.4668-14.7119Q9.9707-15.3516 11.6992-15.3516Q13.4277-15.3516 14.9316-14.7119Q16.4355-14.0723 17.5781-12.9297Q18.7207-11.7871 19.3652-10.2832Q20.0098-8.7793 20.0098-7.05078Q20.0098-5.32227 19.3701-3.81836Q18.7305-2.31445 17.5928-1.17676Q16.4551-0.0390625 14.9463 0.605469Q13.4375 1.25 11.709 1.25ZM7.17773-7.05078Q7.17773-6.69922 7.41211-6.47461Q7.64648-6.25 8.01758-6.25L10.8887-6.25L10.8887-3.36914Q10.8887-2.99805 11.1133-2.76855Q11.3379-2.53906 11.6895-2.53906Q12.0605-2.53906 12.29-2.76855Q12.5195-2.99805 12.5195-3.36914L12.5195-6.25L15.4004-6.25Q15.7715-6.25 16.001-6.47461Q16.2305-6.69922 16.2305-7.05078Q16.2305-7.42188 16.001-7.65137Q15.7715-7.88086 15.4004-7.88086L12.5195-7.88086L12.5195-10.752Q12.5195-11.1328 12.29-11.3623Q12.0605-11.5918 11.6895-11.5918Q11.3379-11.5918 11.1133-11.3574Q10.8887-11.123 10.8887-10.752L10.8887-7.88086L8.01758-7.88086Q7.63672-7.88086 7.40723-7.65137Q7.17773-7.42188 7.17773-7.05078Z"/>
  </g>
  <g transform="matrix(1 0 0 1 305.646 1933)">
   <path d="M14.9707 5.66406Q17.0605 5.66406 18.96 5.01465Q20.8594 4.36523 22.4512 3.19336Q24.043 2.02148 25.2197 0.429688Q26.3965-1.16211 27.0459-3.06641Q27.6953-4.9707 27.6953-7.05078Q27.6953-9.14062 27.0459-11.04Q26.3965-12.9395 25.2197-14.5312Q24.043-16.123 22.4512-17.2998Q20.8594-18.4766 18.9551-19.126Q17.0508-19.7754 14.9609-19.7754Q12.8711-19.7754 10.9717-19.126Q9.07227-18.4766 7.48535-17.2998Q5.89844-16.123 4.72168-14.5312Q3.54492-12.9395 2.90039-11.04Q2.25586-9.14062 2.25586-7.05078Q2.25586-4.9707 2.90527-3.06641Q3.55469-1.16211 4.72656 0.429688Q5.89844 2.02148 7.49023 3.19336Q9.08203 4.36523 10.9814 5.01465Q12.8809 5.66406 14.9707 5.66406ZM14.9707 3.84766Q13.1641 3.84766 11.5283 3.2959Q9.89258 2.74414 8.53516 1.74805Q7.17773 0.751953 6.17676-0.610352Q5.17578-1.97266 4.62891-3.6084Q4.08203-5.24414 4.08203-7.05078Q4.08203-8.86719 4.62891-10.5029Q5.17578-12.1387 6.17188-13.501Q7.16797-14.8633 8.52539-15.8594Q9.88281-16.8555 11.5186-17.4023Q13.1543-17.9492 14.9609-17.9492Q16.7773-17.9492 18.4131-17.4023Q20.0488-16.8555 21.4111-15.8594Q22.7734-14.8633 23.7695-13.501Q24.7656-12.1387 25.3174-10.5029Q25.8691-8.86719 25.8691-7.05078Q25.8789-5.24414 25.332-3.6084Q24.7852-1.97266 23.7842-0.610352Q22.7832 0.751953 21.4209 1.74805Q20.0586 2.74414 18.4229 3.2959Q16.7871 3.84766 14.9707 3.84766ZM9.19922-7.05078Q9.19922-6.66992 9.45801-6.4209Q9.7168-6.17188 10.1172-6.17188L14.0625-6.17188L14.0625-2.2168Q14.0625-1.81641 14.3115-1.55762Q14.5605-1.29883 14.9512-1.29883Q15.3516-1.29883 15.6104-1.55273Q15.8691-1.80664 15.8691-2.2168L15.8691-6.17188L19.8242-6.17188Q20.2246-6.17188 20.4785-6.4209Q20.7324-6.66992 20.7324-7.05078Q20.7324-7.46094 20.4785-7.71484Q20.2246-7.96875 19.8242-7.96875L15.8691-7.96875L15.8691-11.9141Q15.8691-12.3242 15.6104-12.583Q15.3516-12.8418 14.9512-12.8418Q14.5605-12.8418 14.3115-12.583Q14.0625-12.3242 14.0625-11.9141L14.0625-7.96875L10.1172-7.96875Q9.70703-7.96875 9.45312-7.71484Q9.19922-7.46094 9.19922-7.05078Z"/>
  </g>
  <text style="stroke:none;fill:black;font-family:sans-serif;font-size:13;font-weight:bold;" transform="matrix(1 0 0 1 263 1953)">Design Variations</text>
  <text style="stroke:none;fill:black;font-family:sans-serif;font-size:13;" transform="matrix(1 0 0 1 263 1971)">Symbols are supported in up to nine weights and three scales.</text>
  <text style="stroke:none;fill:black;font-family:sans-serif;font-size:13;" transform="matrix(1 0 0 1 263 1989)">For optimal layout with text and other symbols, vertically align</text>
  <text style="stroke:none;fill:black;font-family:sans-serif;font-size:13;" transform="matrix(1 0 0 1 263 2007)">symbols with the adjacent text.</text>
  <line style="fill:none;stroke:#00AEEF;stroke-width:0.5;opacity:1.0;" x1="776" x2="776" y1="1919" y2="1933"/>
  <g transform="matrix(1 0 0 1 776 1933)">
   <path d="M3.31055 0.15625Q3.70117 0.15625 3.91602-0.00976562Q4.13086-0.175781 4.26758-0.585938L5.52734-4.0332L11.2891-4.0332L12.5488-0.585938Q12.6855-0.175781 12.9004-0.00976562Q13.1152 0.15625 13.4961 0.15625Q13.8867 0.15625 14.1162-0.0585938Q14.3457-0.273438 14.3457-0.644531Q14.3457-0.869141 14.2383-1.17188L9.6582-13.3691Q9.48242-13.8184 9.17969-14.043Q8.87695-14.2676 8.4082-14.2676Q7.5-14.2676 7.17773-13.3789L2.59766-1.16211Q2.49023-0.859375 2.49023-0.634766Q2.49023-0.263672 2.70996-0.0537109Q2.92969 0.15625 3.31055 0.15625ZM6.00586-5.51758L8.37891-12.0898L8.42773-12.0898L10.8008-5.51758Z"/>
  </g>
  <line style="fill:none;stroke:#00AEEF;stroke-width:0.5;opacity:1.0;" x1="793.197" x2="793.197" y1="1919" y2="1933"/>
  <text style="stroke:none;fill:black;font-family:sans-serif;font-size:13;font-weight:bold;" transform="matrix(1 0 0 1 776 1953)">Margins</text>
  <text style="stroke:none;fill:black;font-family:sans-serif;font-size:13;" transform="matrix(1 0 0 1 776 1971)">Leading and trailing margins on the left and right side of each symbol</text>
  <text style="stroke:none;fill:black;font-family:sans-serif;font-size:13;" transform="matrix(1 0 0 1 776 1989)">can be adjusted by modifying the x-location of the margin guidelines.</text>
  <text style="stroke:none;fill:black;font-family:sans-serif;font-size:13;" transform="matrix(1 0 0 1 776 2007)">Modifications are automatically applied proportionally to all</text>
  <text style="stroke:none;fill:black;font-family:sans-serif;font-size:13;" transform="matrix(1 0 0 1 776 2025)">scales and weights.</text>
  <g transform="matrix(1 0 0 1 1289 1933)">
   <path d="M2.8418 1.86523L4.54102 3.57422Q5.18555 4.22852 5.90332 4.17969Q6.62109 4.13086 7.31445 3.35938L18.0078-8.42773L17.041-9.4043L6.42578 2.27539Q6.16211 2.57812 5.89355 2.61719Q5.625 2.65625 5.27344 2.30469L4.10156 1.14258Q3.75 0.791016 3.79395 0.522461Q3.83789 0.253906 4.14062-0.0195312L15.6152-10.8203L14.6387-11.7871L3.04688-0.898438Q2.30469-0.214844 2.25098 0.498047Q2.19727 1.21094 2.8418 1.86523ZM9.25781-16.3281Q8.94531-16.0254 8.90625-15.6348Q8.86719-15.2441 9.04297-14.9512Q9.21875-14.6777 9.55566-14.541Q9.89258-14.4043 10.3809-14.5215Q11.4746-14.7754 12.5977-14.7314Q13.7207-14.6875 14.7949-13.9844L14.209-12.5293Q13.9551-11.9043 14.0674-11.4404Q14.1797-10.9766 14.5801-10.5664L16.875-8.25195Q17.2363-7.88086 17.5781-7.82227Q17.9199-7.76367 18.3398-7.8418L19.4043-8.03711L20.0684-7.36328L20.0293-6.80664Q20-6.43555 20.1221-6.12305Q20.2441-5.81055 20.6055-5.44922L21.3672-4.70703Q21.7285-4.3457 22.1533-4.33105Q22.5781-4.31641 22.9297-4.66797L25.8398-7.58789Q26.1914-7.93945 26.1816-8.35449Q26.1719-8.76953 25.8105-9.13086L25.0391-9.89258Q24.6875-10.2539 24.3799-10.3857Q24.0723-10.5176 23.7109-10.4883L23.1348-10.4395L22.4902-11.0742L22.7344-12.1973Q22.832-12.6172 22.6953-12.9834Q22.5586-13.3496 22.1191-13.7891L19.9219-15.9766Q18.6719-17.2168 17.2607-17.8369Q15.8496-18.457 14.4189-18.4814Q12.9883-18.5059 11.665-17.959Q10.3418-17.4121 9.25781-16.3281ZM10.752-15.957Q11.6602-16.6211 12.7002-16.9043Q13.7402-17.1875 14.8047-17.085Q15.8691-16.9824 16.8701-16.5137Q17.8711-16.0449 18.7012-15.2051L21.1328-12.793Q21.3086-12.6172 21.3525-12.4512Q21.3965-12.2852 21.3379-12.0312L21.0156-10.5469L22.5195-9.0625L23.5059-9.12109Q23.6914-9.13086 23.7891-9.09668Q23.8867-9.0625 24.0332-8.91602L24.6094-8.33984L22.168-5.89844L21.5918-6.47461Q21.4453-6.62109 21.4062-6.71875Q21.3672-6.81641 21.377-7.01172L21.4453-7.98828L19.9512-9.47266L18.4277-9.21875Q18.1836-9.16992 18.042-9.2041Q17.9004-9.23828 17.7148-9.41406L15.7129-11.416Q15.5176-11.5918 15.4932-11.7529Q15.4688-11.9141 15.5859-12.1875L16.4648-14.2773Q15.293-15.3711 13.8281-15.791Q12.3633-16.2109 10.8398-15.7617Q10.7227-15.7324 10.6885-15.8057Q10.6543-15.8789 10.752-15.957Z"/>
  </g>
  <text style="stroke:none;fill:black;font-family:sans-serif;font-size:13;font-weight:bold;" transform="matrix(1 0 0 1 1289 1953)">Exporting</text>
  <text style="stroke:none;fill:black;font-family:sans-serif;font-size:13;" transform="matrix(1 0 0 1 1289 1971)">Symbols should be outlined when exporting to ensure the</text>
  <text style="stroke:none;fill:black;font-family:sans-serif;font-size:13;" transform="matrix(1 0 0 1 1289 1989)">design is preserved when submitting to Xcode.</text>
  <text id="template-version" style="stroke:none;fill:black;font-family:sans-serif;font-size:13;text-anchor:end;" transform="matrix(1 0 0 1 3036 1933)">Template v.2.0</text>
  <text style="stroke:none;fill:black;font-family:sans-serif;font-size:13;text-anchor:end;" transform="matrix(1 0 0 1 3036 1951)">Requires Xcode 12 or greater</text>
  <text id="descriptive-name" style="stroke:none;fill:black;font-family:sans-serif;font-size:13;text-anchor:end;" transform="matrix(1 0 0 1 3036 1969)">Generated from square.and.arrow.up</text>
  <text style="stroke:none;fill:black;font-family:sans-serif;font-size:13;text-anchor:end;" transform="matrix(1 0 0 1 3036 1987)">Typeset at 100 points</text>
  <text style="stroke:none;fill:black;font-family:sans-serif;font-size:13;" transform="matrix(1 0 0 1 263 726)">Small</text>
  <text style="stroke:none;fill:black;font-family:sans-serif;font-size:13;" transform="matrix(1 0 0 1 263 1156)">Medium</text>
  <text style="stroke:none;fill:black;font-family:sans-serif;font-size:13;" transform="matrix(1 0 0 1 263 1586)">Large</text>
 </g>
 <g id="Guides">
  <g id="H-reference" style="fill:#27AAE1;stroke:none;" transform="matrix(1 0 0 1 339 696)">
   <path d="M0.993347 0L3.6377 0L29.3282-67.1326L30.0301-67.1326L30.0301-70.459L28.1227-70.459ZM11.6882-24.4797L46.9818-24.4797L46.2311-26.7288L12.4382-26.7288ZM55.1193 0L57.7637 0L30.6381-70.459L29.4327-70.459L29.4327-67.1326Z"/>
  </g>
  <line id="Baseline-S" style="fill:none;stroke:#27AAE1;opacity:1;stroke-width:0.5;" x1="263" x2="3036" y1="696" y2="696"/>
  <line id="Capline-S" style="fill:none;stroke:#27AAE1;opacity:1;stroke-width:0.5;" x1="263" x2="3036" y1="625.541" y2="625.541"/>
  <g id="H-reference" style="fill:#27AAE1;stroke:none;" transform="matrix(1 0 0 1 339 1126)">
   <path d="M0.993347 0L3.6377 0L29.3282-67.1326L30.0301-67.1326L30.0301-70.459L28.1227-70.459ZM11.6882-24.4797L46.9818-24.4797L46.2311-26.7288L12.4382-26.7288ZM55.1193 0L57.7637 0L30.6381-70.459L29.4327-70.459L29.4327-67.1326Z"/>
  </g>
  <line id="Baseline-M" style="fill:none;stroke:#27AAE1;opacity:1;stroke-width:0.5;" x1="263" x2="3036" y1="1126" y2="1126"/>
  <line id="Capline-M" style="fill:none;stroke:#27AAE1;opacity:1;stroke-width:0.5;" x1="263" x2="3036" y1="1055.54" y2="1055.54"/>
  <g id="H-reference" style="fill:#27AAE1;stroke:none;" transform="matrix(1 0 0 1 339 1556)">
   <path d="M0.993347 0L3.6377 0L29.3282-67.1326L30.0301-67.1326L30.0301-70.459L28.1227-70.459ZM11.6882-24.4797L46.9818-24.4797L46.2311-26.7288L12.4382-26.7288ZM55.1193 0L57.7637 0L30.6381-70.459L29.4327-70.459L29.4327-67.1326Z"/>
  </g>
  <line id="Baseline-L" style="fill:none;stroke:#27AAE1;opacity:1;stroke-width:0.5;" x1="263" x2="3036" y1="1556" y2="1556"/>
  <line id="Capline-L" style="fill:none;stroke:#27AAE1;opacity:1;stroke-width:0.5;" x1="263" x2="3036" y1="1485.54" y2="1485.54"/>
  <line id="left-margin" style="fill:none;stroke:#00AEEF;stroke-width:0.5;opacity:1.0;" x1="1394.06" x2="1394.06" y1="1030.79" y2="1150.12"/>
  <line id="right-margin" style="fill:none;stroke:#00AEEF;stroke-width:0.5;opacity:1.0;" x1="1505.63" x2="1505.63" y1="1030.79" y2="1150.12"/>
 </g>
 <g id="Symbols">
  <g id="Black-L" transform="matrix(1 0 0 1 2856.86 1556)">
   <path d="M39.8556 33.034L113.232 33.034Q124.6 33.034 130.802 26.8418Q137.004 20.6496 137.004 9.32481L137.004-49.6815Q137.004-61.0063 130.802-67.1985Q124.6-73.3907 113.232-73.3907L97.8476-73.3907L97.8476-53.3901L110.501-53.3901Q113.764-53.3901 115.393-51.8705Q117.023-50.3508 117.023-46.8467L117.023 6.49Q117.023 9.93572 115.393 11.4839Q113.764 13.0322 110.501 13.0322L42.5864 13.0322Q39.3783 13.0322 37.7217 11.4839Q36.065 9.93572 36.065 6.49L36.065-46.8467Q36.065-50.3508 37.7217-51.8705Q39.3783-53.3901 42.5864-53.3901L55.7097-53.3901L55.7097-73.3907L39.8556-73.3907Q28.5077-73.3907 22.2958-67.1997Q16.084-61.0087 16.084-49.6815L16.084 9.32481Q16.084 20.652 22.2958 26.843Q28.5077 33.034 39.8556 33.034ZM76.5334-20.2269Q80.2422-20.2269 82.7406-22.792Q85.239-25.3572 85.239-28.8324L85.239-87.9918L84.4704-97.1594L87.1045-92.1045L93.5014-85.2866Q95.7535-82.8553 99.0743-82.8553Q101.884-82.8553 104.184-84.8323Q106.484-86.8094 106.484-89.9497Q106.484-92.8356 104.209-95.0893L83.5889-114.839Q81.8545-116.536 80.1008-117.226Q78.347-117.916 76.5334-117.916Q74.7978-117.916 73.0155-117.226Q71.2331-116.536 69.4779-114.839L48.8569-95.0893Q46.602-92.8356 46.602-89.9497Q46.602-86.8094 48.8809-84.8323Q51.1598-82.8553 53.9913-82.8553Q57.3121-82.8553 59.5838-85.2866L65.9819-92.1045L68.6172-97.1606L67.8487-87.9918L67.8487-28.8324Q67.8487-25.3572 70.3762-22.792Q72.9038-20.2269 76.5334-20.2269Z"/>
  </g>
  <g id="Heavy-L" transform="matrix(1 0 0 1 2561.29 1556)">
   <path d="M38.8315 32.5409L111.967 32.5409Q122.94 32.5409 128.827 26.666Q134.714 20.7911 134.714 9.88392L134.714-50.1207Q134.714-61.028 128.827-66.9028Q122.94-72.7777 111.967-72.7777L96.0481-72.7777L96.0481-55.2527L109.843-55.2527Q113.478-55.2527 115.346-53.4874Q117.214-51.7221 117.214-47.8456L117.214 7.6088Q117.214 11.4406 115.346 13.2254Q113.478 15.0102 109.843 15.0102L40.9557 15.0102Q37.3483 15.0102 35.4663 13.2254Q33.5844 11.4406 33.5844 7.6088L33.5844-47.8456Q33.5844-51.7221 35.4663-53.4874Q37.3483-55.2527 40.9557-55.2527L55.1184-55.2527L55.1184-72.7777L38.8315-72.7777Q27.8828-72.7777 21.9834-66.9084Q16.084-61.0392 16.084-50.1207L16.084 9.88392Q16.084 20.8024 21.9834 26.6716Q27.8828 32.5409 38.8315 32.5409ZM75.3841-19.739Q78.6693-19.739 80.911-22.0173Q83.1527-24.2957 83.1527-27.4024L83.1527-88.0712L82.475-97.2916L85.5759-92.2794L92.7952-84.61Q94.8058-82.4196 97.8088-82.4196Q100.383-82.4196 102.438-84.2059Q104.493-85.9921 104.493-88.8098Q104.493-91.4188 102.412-93.464L81.5782-113.48Q80.0534-114.99 78.5185-115.596Q76.9837-116.202 75.3841-116.202Q73.8537-116.202 72.2994-115.596Q70.7451-114.99 69.19-113.48L48.3511-93.464Q46.3002-91.4188 46.3002-88.8098Q46.3002-85.9921 48.3218-84.2059Q50.3435-82.4196 52.9537-82.4196Q55.9568-82.4196 57.9919-84.61L65.2168-92.2794L68.3233-97.2973L67.6458-88.0712L67.6458-27.4024Q67.6458-24.2957 69.9097-22.0173Q72.1736-19.739 75.3841-19.739Z"/>
  </g>
  <g id="Bold-L" transform="matrix(1 0 0 1 2265.99 1556)">
   <path d="M37.5412 31.8742L110.437 31.8742Q120.888 31.8742 126.391 26.3837Q131.894 20.8933 131.894 10.5308L131.894-50.778Q131.894-61.1405 126.391-66.631Q120.888-72.1214 110.437-72.1214L93.8719-72.1214L93.8719-57.6549L108.991-57.6549Q113.11-57.6549 115.281-55.5785Q117.452-53.5022 117.452-49.1424L117.452 8.89515Q117.452 13.2258 115.281 15.31Q113.11 17.3943 108.991 17.3943L38.987 17.3943Q34.8579 17.3943 32.6918 15.31Q30.5258 13.2258 30.5258 8.89515L30.5258-49.1424Q30.5258-53.5022 32.6918-55.5785Q34.8579-57.6549 38.987-57.6549L54.366-57.6549L54.366-72.1214L37.5412-72.1214Q27.1142-72.1214 21.5991-66.6442Q16.084-61.167 16.084-50.778L16.084 10.5308Q16.084 20.9197 21.5991 26.397Q27.1142 31.8742 37.5412 31.8742ZM73.97-19.2066Q76.7252-19.2066 78.6368-21.124Q80.5485-23.0413 80.5485-25.6797L80.5485-88.417L79.986-97.6617L83.775-92.5392L92.0534-83.8022Q93.7644-81.9189 96.3531-81.9189Q98.6059-81.9189 100.35-83.4596Q102.093-85.0003 102.093-87.4035Q102.093-89.6519 100.273-91.4209L79.096-111.872Q77.8324-113.144 76.5665-113.646Q75.3007-114.148 73.97-114.148Q72.6932-114.148 71.4194-113.646Q70.1456-113.144 68.8439-111.872L47.6541-91.4209Q45.8715-89.6519 45.8715-87.4035Q45.8715-85.0003 47.5706-83.4596Q49.2697-81.9189 51.5735-81.9189Q54.1624-81.9189 55.8979-83.8022L64.1897-92.5392L67.9918-97.675L67.4295-88.417L67.4295-25.6797Q67.4295-23.0413 69.3557-21.124Q71.2818-19.2066 73.97-19.2066Z"/>
  </g>
  <g id="Semibold-L" transform="matrix(1 0 0 1 1970.25 1556)">
   <path d="M36.6518 31.4145L109.382 31.4145Q119.474 31.4145 124.712 26.1891Q129.95 20.9637 129.95 10.9767L129.95-51.2311Q129.95-61.2181 124.712-66.4435Q119.474-71.6689 109.382-71.6689L92.3716-71.6689L92.3716-59.3109L108.404-59.3109Q112.856-59.3109 115.236-57.0202Q117.616-54.7294 117.616-50.0364L117.616 9.78194Q117.616 14.4565 115.236 16.7471Q112.856 19.0378 108.404 19.0378L37.6298 19.0378Q33.141 19.0378 30.7791 16.7471Q28.4171 14.4565 28.4171 9.78194L28.4171-50.0364Q28.4171-54.7294 30.7791-57.0202Q33.141-59.3109 37.6298-59.3109L53.8472-59.3109L53.8472-71.6689L36.6518-71.6689Q26.5843-71.6689 21.3341-66.462Q16.084-61.2551 16.084-51.2311L16.084 10.9767Q16.084 21.0007 21.3341 26.2076Q26.5843 31.4145 36.6518 31.4145ZM72.995-18.8396Q75.3848-18.8396 77.069-20.5081Q78.7532-22.1766 78.7532-24.4921L78.7532-88.6554L78.27-97.9168L82.5334-92.7184L91.542-83.2453Q93.0465-81.5737 95.3495-81.5737Q97.3805-81.5737 98.9097-82.9451Q100.439-84.3165 100.439-86.4341Q100.439-88.4338 98.7982-90.0124L77.3849-110.763Q76.3013-111.871 75.2208-112.302Q74.1404-112.732 72.995-112.732Q71.8931-112.732 70.8127-112.302Q69.7324-111.871 68.6052-110.763L47.1736-90.0124Q45.576-88.4338 45.576-86.4341Q45.576-84.3165 47.0527-82.9451Q48.5294-81.5737 50.622-81.5737Q52.9253-81.5737 54.4544-83.2453L63.4816-92.7184L67.7633-97.9355L67.2804-88.6554L67.2804-24.4921Q67.2804-22.1766 68.9737-20.5081Q70.667-18.8396 72.995-18.8396Z"/>
  </g>
  <g id="Medium-L" transform="matrix(1 0 0 1 1674.28 1556)">
   <path d="M35.9773 31.066L108.582 31.066Q118.401 31.066 123.438 26.0416Q128.475 21.0171 128.475 11.3148L128.475-51.5747Q128.475-61.277 123.438-66.3014Q118.401-71.3259 108.582-71.3259L91.234-71.3259L91.234-60.5666L107.959-60.5666Q112.663-60.5666 115.202-58.1133Q117.741-55.66 117.741-50.7142L117.741 10.4544Q117.741 15.3896 115.202 17.8368Q112.663 20.284 107.959 20.284L36.6007 20.284Q31.8392 20.284 29.3288 17.8368Q26.8183 15.3896 26.8183 10.4544L26.8183-50.7142Q26.8183-55.66 29.3288-58.1133Q31.8392-60.5666 36.6007-60.5666L53.4539-60.5666L53.4539-71.3259L35.9773-71.3259Q26.1825-71.3259 21.1332-66.3239Q16.084-61.3219 16.084-51.5747L16.084 11.3148Q16.084 21.062 21.1332 26.064Q26.1825 31.066 35.9773 31.066ZM72.2558-18.5613Q74.3686-18.5613 75.8802-20.0411Q77.3919-21.5209 77.3919-23.5916L77.3919-88.8361L76.9689-98.1103L81.592-92.8542L91.1542-82.8231Q92.5021-81.312 94.5885-81.312Q96.4514-81.312 97.818-82.555Q99.1847-83.798 99.1847-85.699Q99.1847-87.5102 97.6801-88.9445L76.0874-109.922Q75.1403-110.906 74.2005-111.282Q73.2607-111.659 72.2558-111.659Q71.2865-111.659 70.3528-111.282Q69.419-110.906 68.4243-109.922L46.8093-88.9445Q45.352-87.5102 45.352-85.699Q45.352-83.798 46.66-82.555Q47.9681-81.312 49.9005-81.312Q51.9873-81.312 53.3598-82.8231L62.9447-92.8542L67.59-98.1329L67.1674-88.8361L67.1674-23.5916Q67.1674-21.5209 68.6841-20.0411Q70.2009-18.5613 72.2558-18.5613Z"/>
  </g>
  <g id="Regular-L" transform="matrix(1 0 0 1 1378.53 1556)">
   <path d="M35.0976 30.6114L107.539 30.6114Q117.003 30.6114 121.777 25.8491Q126.552 21.0868 126.552 11.7559L126.552-52.0228Q126.552-61.3537 121.777-66.1161Q117.003-70.8784 107.539-70.8784L89.7503-70.8784L89.7503-62.2044L107.378-62.2044Q112.412-62.2044 115.158-59.5391Q117.903-56.8737 117.903-51.5984L117.903 11.3314Q117.903 16.6068 115.158 19.2581Q112.412 21.9095 107.378 21.9095L35.2585 21.9095Q30.1412 21.9095 27.437 19.2581Q24.7329 16.6068 24.7329 11.3314L24.7329-51.5984Q24.7329-56.8737 27.437-59.5391Q30.1412-62.2044 35.2585-62.2044L52.9409-62.2044L52.9409-70.8784L35.0976-70.8784Q25.6584-70.8784 20.8712-66.1437Q16.084-61.409 16.084-52.0228L16.084 11.7559Q16.084 21.1421 20.8712 25.8767Q25.6584 30.6114 35.0976 30.6114ZM71.2916-18.1983Q73.043-18.1983 74.3297-19.432Q75.6163-20.6656 75.6163-22.417L75.6163-89.0719L75.2718-98.3626L80.3641-93.0314L90.6484-82.2723Q91.7921-80.9706 93.5959-80.9706Q95.2395-80.9706 96.3941-82.0462Q97.5487-83.1217 97.5487-84.7401Q97.5487-86.3055 96.2218-87.5515L74.395-108.826Q73.626-109.647 72.8696-109.953Q72.1132-110.258 71.2916-110.258Q70.4952-110.258 69.7528-109.953Q69.0103-109.647 68.1883-108.826L46.334-87.5515Q45.0597-86.3055 45.0597-84.7401Q45.0597-83.1217 46.1479-82.0462Q47.236-80.9706 48.9595-80.9706Q50.7638-80.9706 51.9321-82.2723L62.2443-93.0314L67.364-98.3905L67.02-89.0719L67.02-22.417Q67.02-20.6656 68.3064-19.432Q69.5928-18.1983 71.2916-18.1983Z"/>
  </g>
  <g id="Light-L" transform="matrix(1 0 0 1 1082.74 1556)">
   <path d="M34.067 29.7909L106.718 29.7909Q115.609 29.7909 120.155 25.2384Q124.701 20.686 124.701 11.9085L124.701-53.2061Q124.701-61.9835 120.155-66.536Q115.609-71.0884 106.718-71.0884L88.586-71.0884L88.586-64.4756L106.557-64.4756Q112.068-64.4756 115.072-61.5526Q118.075-58.6296 118.075-52.8771L118.075 11.5796Q118.075 17.3321 115.072 20.2315Q112.068 23.1309 106.557 23.1309L34.2279 23.1309Q28.5761 23.1309 25.643 20.2315Q22.7099 17.3321 22.7099 11.5796L22.7099-52.8771Q22.7099-58.6296 25.643-61.5526Q28.5761-64.4756 34.2279-64.4756L52.2919-64.4756L52.2919-71.0884L34.067-71.0884Q25.1621-71.0884 20.623-66.5827Q16.084-62.077 16.084-53.2061L16.084 11.9085Q16.084 20.7794 20.623 25.2851Q25.1621 29.7909 34.067 29.7909ZM70.3755-18.2939Q71.7261-18.2939 72.7075-19.2412Q73.6889-20.1885 73.6889-21.539L73.6889-90.9041L73.4396-99.9466L79.7151-93.4893L90.9918-81.9097Q91.9258-80.875 93.3096-80.875Q94.5334-80.875 95.4303-81.7217Q96.3273-82.5683 96.3273-83.8051Q96.3273-85.0078 95.3057-85.9482L72.7346-108.196Q72.1564-108.808 71.5717-109.046Q70.987-109.285 70.3755-109.285Q69.751-109.285 69.1899-109.046Q68.6287-108.808 68.0164-108.196L45.399-85.9482Q44.4107-85.0078 44.4107-83.8051Q44.4107-82.5683 45.2508-81.7217Q46.0909-80.875 47.3943-80.875Q48.7789-80.875 49.6991-81.9097L61.023-93.4893L67.3448-99.9938L67.0963-90.9041L67.0963-21.539Q67.0963-20.1885 68.0773-19.2412Q69.0583-18.2939 70.3755-18.2939Z"/>
  </g>
  <g id="Thin-L" transform="matrix(1 0 0 1 787.254 1556)">
   <path d="M32.704 28.7056L105.633 28.7056Q113.767 28.7056 118.01 24.4307Q122.253 20.1558 122.253 12.1104L122.253-54.771Q122.253-62.8164 118.01-67.0913Q113.767-71.3662 105.633-71.3662L87.0461-71.3662L87.0461-67.4794L105.472-67.4794Q111.614-67.4794 114.958-64.2157Q118.303-60.952 118.303-54.5684L118.303 11.9078Q118.303 18.2914 114.958 21.5188Q111.614 24.7463 105.472 24.7463L32.8648 24.7463Q26.5061 24.7463 23.2702 21.5188Q20.0343 18.2914 20.0343 11.9078L20.0343-54.5684Q20.0343-60.952 23.2702-64.2157Q26.5061-67.4794 32.8648-67.4794L51.4335-67.4794L51.4335-71.3662L32.704-71.3662Q24.5056-71.3662 20.2948-67.1633Q16.084-62.9603 16.084-54.771L16.084 12.1104Q16.084 20.2998 20.2948 24.5027Q24.5056 28.7056 32.704 28.7056ZM69.1639-18.4202Q69.9843-18.4202 70.562-18.9888Q71.1396-19.5574 71.1396-20.3779L71.1396-93.3274L71.0163-102.042L78.8567-94.0949L91.446-81.43Q92.1026-80.7487 92.9309-80.7487Q93.5995-80.7487 94.1557-81.2925Q94.7119-81.8363 94.7119-82.5684Q94.7119-83.2915 94.0941-83.8278L70.5387-107.363Q70.2128-107.697 69.8552-107.848Q69.4976-107.998 69.1639-107.998Q68.7667-107.998 68.4454-107.848Q68.124-107.697 67.7891-107.363L44.1624-83.8278Q43.5523-83.2915 43.5523-82.5684Q43.5523-81.8363 44.0644-81.2925Q44.5765-80.7487 45.3243-80.7487Q46.1538-80.7487 46.7457-81.43L59.4076-94.0949L67.3193-102.114L67.1972-93.3274L67.1972-20.3779Q67.1972-19.5574 67.7743-18.9888Q68.3513-18.4202 69.1639-18.4202Z"/>
  </g>
  <g id="Ultralight-L" transform="matrix(1 0 0 1 491.17 1556)">
   <path d="M32.0059 28.1498L105.077 28.1498Q112.823 28.1498 116.911 24.017Q120.999 19.8843 120.999 12.2138L120.999-55.5725Q120.999-63.243 116.911-67.3758Q112.823-71.5085 105.077-71.5085L86.2573-71.5085L86.2573-69.018L104.916-69.018Q111.382-69.018 114.9-65.5797Q118.419-62.1415 118.419-55.4347L118.419 12.076Q118.419 18.7827 114.9 22.1782Q111.382 25.5737 104.916 25.5737L32.1667 25.5737Q25.4458 25.5737 22.0548 22.1782Q18.6638 18.7827 18.6638 12.076L18.6638-55.4347Q18.6638-62.1415 22.0548-65.5797Q25.4458-69.018 32.1667-69.018L50.9938-69.018L50.9938-71.5085L32.0059-71.5085Q24.1693-71.5085 20.1266-67.4607Q16.084-63.4128 16.084-55.5725L16.084 12.2138Q16.084 20.0541 20.1266 24.1019Q24.1693 28.1498 32.0059 28.1498ZM68.5433-18.485Q69.0922-18.485 69.4631-18.8596Q69.8339-19.2342 69.8339-19.7831L69.8339-94.5686L69.7751-103.115L78.417-94.4051L91.6787-81.1844Q92.1932-80.6839 92.7369-80.6839Q93.1212-80.6839 93.5029-81.0727Q93.8846-81.4614 93.8846-81.935Q93.8846-82.4124 93.4735-82.7417L69.4139-106.937Q69.2173-107.128 68.976-107.233Q68.7347-107.339 68.5433-107.339Q68.2625-107.339 68.064-107.233Q67.8655-107.128 67.6727-106.937L43.529-82.7417Q43.1127-82.4124 43.1127-81.935Q43.1127-81.4614 43.4567-81.0727Q43.8008-80.6839 44.2641-80.6839Q44.8092-80.6839 45.233-81.1844L58.5802-94.4051L67.3063-103.2L67.2489-94.5686L67.2489-19.7831Q67.2489-19.2342 67.6191-18.8596Q67.9892-18.485 68.5433-18.485Z"/>
  </g>
  <g id="Black-M" transform="matrix(1 0 0 1 2873.24 1126)">
   <path d="M31.6184 17.9698L88.7016 17.9698Q97.7699 17.9698 102.815 12.9281Q107.859 7.88638 107.859-1.17124L107.859-46.2089Q107.859-55.2665 102.815-60.3082Q97.7699-65.3499 88.7016-65.3499L77.1954-65.3499L77.1954-48.0062L86.0648-48.0062Q88.3373-48.0062 89.4292-47.0051Q90.5211-46.0041 90.5211-43.5446L90.5211-3.83555Q90.5211-1.43319 89.4292-0.403433Q88.3373 0.626319 86.0648 0.626319L34.2553 0.626319Q32.0407 0.626319 30.9198-0.403433Q29.7989-1.43319 29.7989-3.83555L29.7989-43.5446Q29.7989-46.0041 30.9198-47.0051Q32.0407-48.0062 34.2553-48.0062L43.5808-48.0062L43.5808-65.3499L31.6184-65.3499Q22.5559-65.3499 17.5084-60.3079Q12.4609-55.266 12.4609-46.2089L12.4609-1.17124Q12.4609 7.88581 17.5084 12.9278Q22.5559 17.9698 31.6184 17.9698ZM60.1573-24.0386Q63.3404-24.0386 65.4552-26.2336Q67.5701-28.4287 67.5701-31.3834L67.5701-76.2867L66.9094-83.3101L68.7093-79.2047L73.093-74.5432Q75.0169-72.4886 77.8058-72.4886Q80.1275-72.4886 82.0859-74.1533Q84.0444-75.818 84.0444-78.4765Q84.0444-80.9012 82.1553-82.7851L66.263-97.9886Q64.765-99.4349 63.2414-100.033Q61.7178-100.631 60.1573-100.631Q58.6596-100.631 57.1073-100.033Q55.555-99.4349 54.0516-97.9886L38.1596-82.7851Q36.276-80.9012 36.276-78.4765Q36.276-75.818 38.229-74.1533Q40.1821-72.4886 42.509-72.4886Q45.2979-72.4886 47.2277-74.5432L51.611-79.2047L53.4106-83.3098L52.7499-76.2867L52.7499-31.3834Q52.7499-28.4287 54.8933-26.2336Q57.0368-24.0386 60.1573-24.0386Z"/>
  </g>
  <g id="Heavy-M" transform="matrix(1 0 0 1 2577.56 1126)">
   <path d="M30.7123 17.5634L87.5407 17.5634Q96.2762 17.5634 101.034 12.8126Q105.792 8.06175 105.792-0.638753L105.792-46.5291Q105.792-55.2296 101.034-59.9804Q96.2762-64.7313 87.5407-64.7313L75.5437-64.7313L75.5437-49.6175L85.4967-49.6175Q88.0892-49.6175 89.3908-48.4Q90.6924-47.1825 90.6924-44.4031L90.6924-2.76474Q90.6924-0.0289649 89.3908 1.20919Q88.0892 2.44734 85.4967 2.44734L32.7562 2.44734Q30.2005 2.44734 28.8805 1.20919Q27.5605-0.0289649 27.5605-2.76474L27.5605-44.4031Q27.5605-47.1825 28.8805-48.4Q30.2005-49.6175 32.7562-49.6175L43.0627-49.6175L43.0627-64.7313L30.7123-64.7313Q21.9908-64.7313 17.2259-59.9827Q12.4609-55.2342 12.4609-46.5291L12.4609-0.638753Q12.4609 8.0663 17.2259 12.8148Q21.9908 17.5634 30.7123 17.5634ZM59.1183-23.5528Q61.9243-23.5528 63.8163-25.4939Q65.7084-27.435 65.7084-30.0665L65.7084-76.1953L65.1278-83.2933L67.2749-79.3334L72.3709-73.9152Q74.0781-72.0716 76.5951-72.0716Q78.7259-72.0716 80.4679-73.5709Q82.2099-75.0701 82.2099-77.4485Q82.2099-79.6359 80.4829-81.3441L64.4505-96.7185Q63.1398-98.0019 61.8144-98.5236Q60.489-99.0453 59.1183-99.0453Q57.8053-99.0453 56.4592-98.5236Q55.1131-98.0019 53.786-96.7185L37.7513-81.3441Q36.0408-79.6359 36.0408-77.4485Q36.0408-75.0701 37.7652-73.5709Q39.4897-72.0716 41.6391-72.0716Q44.1562-72.0716 45.8775-73.9152L50.9758-79.3334L53.1251-83.2956L52.5445-76.1953L52.5445-30.0665Q52.5445-27.435 54.4584-25.4939Q56.3723-23.5528 59.1183-23.5528Z"/>
  </g>
  <g id="Bold-M" transform="matrix(1 0 0 1 2282.01 1126)">
   <path d="M29.6986 17.1088L86.242 17.1088Q94.6053 17.1088 99.0425 12.6834Q103.48 8.25793 103.48-0.0430887L103.48-46.8873Q103.48-55.1884 99.0425-59.6138Q94.6053-64.0392 86.242-64.0392L73.6961-64.0392L73.6961-51.42L84.8612-51.42Q87.8116-51.42 89.3478-49.9604Q90.884-48.5008 90.884-45.3635L90.884-1.5669Q90.884 1.54186 89.3478 3.01314Q87.8116 4.48441 84.8612 4.48441L31.0794 4.48441Q28.1421 4.48441 26.5994 3.01314Q25.0566 1.54186 25.0566-1.5669L25.0566-45.3635Q25.0566-48.5008 26.5994-49.9604Q28.1421-51.42 31.0794-51.42L42.4831-51.42L42.4831-64.0392L29.6986-64.0392Q21.3587-64.0392 16.9098-59.6189Q12.4609-55.1986 12.4609-46.8873L12.4609-0.0430887Q12.4609 8.2682 16.9098 12.6885Q21.3587 17.1088 29.6986 17.1088ZM57.956-23.0094Q60.3401-23.0094 61.983-24.6664Q63.6258-26.3234 63.6258-28.5934L63.6258-76.093L63.1349-83.2744L65.6703-79.4774L71.5632-73.2127Q73.0279-71.6051 75.2408-71.6051Q77.1579-71.6051 78.6578-72.9193Q80.1577-74.2335 80.1577-76.2984Q80.1577-78.2204 78.6122-79.7321L62.423-95.2976Q61.3218-96.3989 60.2181-96.8352Q59.1143-97.2715 57.956-97.2715Q56.8497-97.2715 55.7342-96.8352Q54.6188-96.3989 53.4889-95.2976L37.2947-79.7321Q35.7777-78.2204 35.7777-76.2984Q35.7777-74.2335 37.2464-72.9193Q38.7152-71.6051 40.6659-71.6051Q42.8789-71.6051 44.3671-73.2127L50.2652-79.4774L52.8057-83.2796L52.3148-76.093L52.3148-28.5934Q52.3148-26.3234 53.9719-24.6664Q55.6289-23.0094 57.956-23.0094Z"/>
  </g>
  <g id="Semibold-M" transform="matrix(1 0 0 1 1986.09 1126)">
   <path d="M28.9999 16.7954L85.3466 16.7954Q93.4534 16.7954 97.6695 12.5943Q101.886 8.39318 101.886 0.367559L101.886-47.1343Q101.886-55.1599 97.6695-59.361Q93.4534-63.5621 85.3466-63.5621L72.4223-63.5621L72.4223-52.6626L84.4231-52.6626Q87.6203-52.6626 89.3181-51.0361Q91.016-49.4096 91.016-46.0256L91.016-0.741106Q91.016 2.62477 89.3181 4.25677Q87.6203 5.88876 84.4231 5.88876L29.9234 5.88876Q26.723 5.88876 25.0267 4.25677Q23.3305 2.62477 23.3305-0.741106L23.3305-46.0256Q23.3305-49.4096 25.0267-51.0361Q26.723-52.6626 29.9234-52.6626L42.0835-52.6626L42.0835-63.5621L28.9999-63.5621Q20.9229-63.5621 16.6919-59.3681Q12.4609-55.1741 12.4609-47.1343L12.4609 0.367559Q12.4609 8.40739 16.6919 12.6014Q20.9229 16.7954 28.9999 16.7954ZM57.1547-22.6348Q59.2481-22.6348 60.7191-24.096Q62.1901-25.5571 62.1901-27.5778L62.1901-76.0225L61.7609-83.2614L64.5641-79.5767L71.0063-72.7284Q72.3039-71.2834 74.3072-71.2834Q76.077-71.2834 77.41-72.4701Q78.743-73.6568 78.743-75.5056Q78.743-77.2447 77.3225-78.6209L61.0253-94.3181Q60.0685-95.2937 59.1176-95.6712Q58.1666-96.0487 57.1547-96.0487Q56.1908-96.0487 55.2344-95.6712Q54.278-95.2937 53.2841-94.3181L36.9798-78.6209Q35.5964-77.2447 35.5964-75.5056Q35.5964-73.6568 36.8888-72.4701Q38.1812-71.2834 39.995-71.2834Q41.9984-71.2834 43.3258-72.7284L49.7753-79.5767L52.5855-83.2686L52.1564-76.0225L52.1564-27.5778Q52.1564-25.5571 53.6364-24.096Q55.1165-22.6348 57.1547-22.6348Z"/>
  </g>
  <g id="Medium-M" transform="matrix(1 0 0 1 1689.99 1126)">
   <path d="M28.47 16.5578L84.6678 16.5578Q92.58 16.5578 96.6284 12.5268Q100.677 8.49573 100.677 0.678929L100.677-47.3215Q100.677-55.1383 96.6284-59.1693Q92.58-63.2004 84.6678-63.2004L71.4565-63.2004L71.4565-53.6049L84.091-53.6049Q87.4752-53.6049 89.2957-51.8518Q91.1162-50.0988 91.1162-46.5276L91.1162-0.114957Q91.1162 3.44589 89.2957 5.19974Q87.4752 6.95359 84.091 6.95359L29.0468 6.95359Q25.647 6.95359 23.8343 5.19974Q22.0216 3.44589 22.0216-0.114957L22.0216-46.5276Q22.0216-50.0988 23.8343-51.8518Q25.647-53.6049 29.0468-53.6049L41.7805-53.6049L41.7805-63.2004L28.47-63.2004Q20.5925-63.2004 16.5267-59.1779Q12.4609-55.1555 12.4609-47.3215L12.4609 0.678929Q12.4609 8.51292 16.5267 12.5354Q20.5925 16.5578 28.47 16.5578ZM56.5471-22.3508Q58.42-22.3508 59.7607-23.6634Q61.1015-24.976 61.1015-26.8078L61.1015-75.9691L60.7192-83.2516L63.7253-79.6519L70.5841-72.3612Q71.755-71.0396 73.5993-71.0396Q75.2574-71.0396 76.4638-72.1295Q77.6703-73.2194 77.6703-74.9044Q77.6703-76.5048 76.3446-77.7782L59.9655-93.5754Q59.1181-94.4558 58.2831-94.7886Q57.4481-95.1215 56.5471-95.1215Q55.6913-95.1215 54.8555-94.7886Q54.0196-94.4558 53.1288-93.5754L36.7411-77.7782Q35.4589-76.5048 35.4589-74.9044Q35.4589-73.2194 36.6176-72.1295Q37.7763-71.0396 39.4863-71.0396Q41.3308-71.0396 42.5363-72.3612L49.4038-79.6519L52.4185-83.2602L52.0363-75.9691L52.0363-26.8078Q52.0363-24.976 53.3821-23.6634Q54.7279-22.3508 56.5471-22.3508Z"/>
  </g>
  <g id="Regular-M" transform="matrix(1 0 0 1 1394.06 1126)">
   <path d="M27.7789 16.2478L83.7823 16.2478Q91.4407 16.2478 95.2705 12.4387Q99.1003 8.62949 99.1003 1.08506L99.1003-47.5657Q99.1003-55.1102 95.2705-58.9193Q91.4407-62.7285 83.7823-62.7285L70.1968-62.7285L70.1968-54.8338L83.6577-54.8338Q87.2859-54.8338 89.2663-52.9157Q91.2468-50.9976 91.2468-47.1824L91.2468 0.701758Q91.2468 4.5169 89.2663 6.42971Q87.2859 8.34251 83.6577 8.34251L27.9035 8.34251Q24.2435 8.34251 22.279 6.42971Q20.3144 4.5169 20.3144 0.701758L20.3144-47.1824Q20.3144-50.9976 22.279-52.9157Q24.2435-54.8338 27.9035-54.8338L41.3853-54.8338L41.3853-62.7285L27.7789-62.7285Q20.1615-62.7285 16.3112-58.9299Q12.4609-55.1313 12.4609-47.5657L12.4609 1.08506Q12.4609 8.65058 16.3112 12.4492Q20.1615 16.2478 27.7789 16.2478ZM55.7547-21.9803Q57.3399-21.9803 58.5107-23.0992Q59.6815-24.2182 59.6815-25.8034L59.6815-75.8993L59.3603-83.2387L62.6312-79.7501L70.0334-71.8822Q71.039-70.7215 72.6759-70.7215Q74.1884-70.7215 75.2297-71.6853Q76.2711-72.649 76.2711-74.1203Q76.2711-75.5397 75.0691-76.6792L58.5831-92.6066Q57.8786-93.3628 57.1947-93.6374Q56.5108-93.9121 55.7547-93.9121Q55.0397-93.9121 54.3612-93.6374Q53.6826-93.3628 52.9263-92.6066L36.4298-76.6792Q35.2795-75.5397 35.2795-74.1203Q35.2795-72.649 36.2639-71.6853Q37.2482-70.7215 38.8228-70.7215Q40.4599-70.7215 41.5065-71.8822L48.9193-79.7501L52.2007-83.2493L51.8797-75.8993L51.8797-25.8034Q51.8797-24.2182 53.0504-23.0992Q54.2211-21.9803 55.7547-21.9803Z"/>
  </g>
  <g id="Light-M" transform="matrix(1 0 0 1 1098.18 1126)">
   <path d="M26.8549 15.5122L83.0466 15.5122Q90.1916 15.5122 93.8161 11.8911Q97.4406 8.27013 97.4406 1.22191L97.4406-48.6266Q97.4406-55.6748 93.8161-59.2958Q90.1916-62.9168 83.0466-62.9168L69.1529-62.9168L69.1529-56.8701L82.922-56.8701Q86.978-56.8701 89.1894-54.721Q91.4009-52.5719 91.4009-48.3289L91.4009 0.924271Q91.4009 5.16719 89.1894 7.30236Q86.978 9.43754 82.922 9.43754L26.9795 9.43754Q22.8403 9.43754 20.6705 7.30236Q18.5007 5.16719 18.5007 0.924271L18.5007-48.3289Q18.5007-52.5719 20.6705-54.721Q22.8403-56.8701 26.9795-56.8701L40.8035-56.8701L40.8035-62.9168L26.8549-62.9168Q19.7165-62.9168 16.0887-59.3235Q12.4609-55.7301 12.4609-48.6266L12.4609 1.22191Q12.4609 8.32544 16.0887 11.9188Q19.7165 15.5122 26.8549 15.5122ZM54.9333-22.0659Q56.1592-22.0659 57.0563-22.9282Q57.9534-23.7904 57.9534-25.0163L57.9534-77.542L57.7176-84.6589L62.0494-80.1606L70.3413-71.5571Q71.1588-70.6358 72.4192-70.6358Q73.5553-70.6358 74.3657-71.3943Q75.176-72.1528 75.176-73.282Q75.176-74.3763 74.2478-75.2418L57.0945-92.042Q56.561-92.6099 56.0311-92.8247Q55.5012-93.0396 54.9333-93.0396Q54.3725-93.0396 53.8565-92.8247Q53.3405-92.6099 52.7722-92.042L35.5915-75.2418Q34.6976-74.3763 34.6976-73.282Q34.6976-72.1528 35.4596-71.3943Q36.2216-70.6358 37.4196-70.6358Q38.6804-70.6358 39.5045-71.5571L47.8243-80.1606L52.1834-84.6868L51.9481-77.542L51.9481-25.0163Q51.9481-23.7904 52.845-22.9282Q53.7419-22.0659 54.9333-22.0659Z"/>
  </g>
  <g id="Thin-M" transform="matrix(1 0 0 1 802.569 1126)">
   <path d="M25.6329 14.5392L82.0736 14.5392Q88.5395 14.5392 91.8926 11.167Q95.2456 7.79485 95.2456 1.40289L95.2456-50.0296Q95.2456-56.4215 91.8926-59.7937Q88.5395-63.1659 82.0736-63.1659L67.7723-63.1659L67.7723-59.5632L81.949-59.5632Q86.5708-59.5632 89.0877-57.1086Q91.6047-54.6539 91.6047-49.8453L91.6047 1.21856Q91.6047 6.02725 89.0877 8.45653Q86.5708 10.8858 81.949 10.8858L25.7575 10.8858Q20.9845 10.8858 18.5432 8.45653Q16.1019 6.02725 16.1019 1.21856L16.1019-49.8453Q16.1019-54.6539 18.5432-57.1086Q20.9845-59.5632 25.7575-59.5632L40.0339-59.5632L40.0339-63.1659L25.6329-63.1659Q19.1279-63.1659 15.7944-59.844Q12.4609-56.5221 12.4609-50.0296L12.4609 1.40289Q12.4609 7.89541 15.7944 11.2173Q19.1279 14.5392 25.6329 14.5392ZM53.847-22.1792Q54.5977-22.1792 55.1328-22.7019Q55.6679-23.2246 55.6679-23.9752L55.6679-79.7146L55.545-86.5372L61.2798-80.7036L70.7485-71.127Q71.3174-70.5225 72.0796-70.5225Q72.7181-70.5225 73.2229-71.0095Q73.7278-71.4966 73.7278-72.1733Q73.7278-72.8375 73.1615-73.3406L55.1257-91.2953Q54.8185-91.6141 54.4922-91.7498Q54.1658-91.8856 53.847-91.8856Q53.49-91.8856 53.189-91.7498Q52.888-91.6141 52.5684-91.2953L34.4827-73.3406Q33.928-72.8375 33.928-72.1733Q33.928-71.4966 34.3959-71.0095Q34.8638-70.5225 35.5638-70.5225Q36.3268-70.5225 36.8566-71.127L46.376-80.7036L52.1606-86.5879L52.0386-79.7146L52.0386-23.9752Q52.0386-23.2246 52.5733-22.7019Q53.108-22.1792 53.847-22.1792Z"/>
  </g>
  <g id="Ultralight-M" transform="matrix(1 0 0 1 506.42 1126)">
   <path d="M25.007 14.0408L81.5753 14.0408Q87.6933 14.0408 90.9073 10.7961Q94.1213 7.55142 94.1213 1.49559L94.1213-50.7482Q94.1213-56.804 90.9073-60.0487Q87.6933-63.2934 81.5753-63.2934L67.0652-63.2934L67.0652-60.9426L81.4507-60.9426Q86.3622-60.9426 89.0356-58.3315Q91.709-55.7204 91.709-50.6219L91.709 1.3693Q91.709 6.46777 89.0356 9.04768Q86.3622 11.6276 81.4507 11.6276L25.1316 11.6276Q20.0339 11.6276 17.4535 9.04768Q14.8732 6.46777 14.8732 1.3693L14.8732-50.6219Q14.8732-55.7204 17.4535-58.3315Q20.0339-60.9426 25.1316-60.9426L39.6397-60.9426L39.6397-63.2934L25.007-63.2934Q18.8264-63.2934 15.6437-60.1106Q12.4609-56.9278 12.4609-50.7482L12.4609 1.49559Q12.4609 7.67515 15.6437 10.858Q18.8264 14.0408 25.007 14.0408ZM53.2906-22.2373Q53.7978-22.2373 54.1476-22.5861Q54.4973-22.9348 54.4973-23.442L54.4973-80.8274L54.4323-87.4992L60.8856-80.9817L70.9571-70.9068Q71.3986-70.4645 71.9057-70.4645Q72.2892-70.4645 72.6376-70.8124Q72.986-71.1604 72.986-71.6054Q72.986-72.0494 72.6051-72.3669L54.1173-90.9128Q53.926-91.104 53.7039-91.1993Q53.4819-91.2945 53.2906-91.2945Q53.038-91.2945 52.8471-91.1993Q52.6563-91.104 52.464-90.9128L33.9148-72.3669Q33.5339-72.0494 33.5339-71.6054Q33.5339-71.1604 33.8511-70.8124Q34.1684-70.4645 34.6132-70.4645Q35.1213-70.4645 35.5004-70.9068L45.6342-80.9817L52.1489-87.5616L52.085-80.8274L52.085-23.442Q52.085-22.9348 52.4342-22.5861Q52.7834-22.2373 53.2906-22.2373Z"/>
  </g>
  <g id="Black-S" transform="matrix(1 0 0 1 2885.99 696)">
   <path d="M25 6.54297L69.8242 6.54297Q77.002 6.54297 81.0303 2.51465Q85.0586-1.51367 85.0586-8.69141L85.0586-43.7988Q85.0586-50.9766 81.0303-55.0049Q77.002-59.0332 69.8242-59.0332L60.9375-59.0332L60.9375-44.873L67.5781-44.873Q69.2871-44.873 70.0928-44.1406Q70.8984-43.4082 70.8984-41.5527L70.8984-10.9375Q70.8984-9.13086 70.0928-8.37402Q69.2871-7.61719 67.5781-7.61719L27.2461-7.61719Q25.5859-7.61719 24.7559-8.37402Q23.9258-9.13086 23.9258-10.9375L23.9258-41.5527Q23.9258-43.4082 24.7559-44.1406Q25.5859-44.873 27.2461-44.873L34.2773-44.873L34.2773-59.0332L25-59.0332Q17.8223-59.0332 13.7939-55.0049Q9.76562-50.9766 9.76562-43.7988L9.76562-8.69141Q9.76562-1.51367 13.7939 2.51465Q17.8223 6.54297 25 6.54297ZM47.4121-26.6113Q50-26.6113 51.709-28.3936Q53.418-30.1758 53.418-32.5684L53.418-67.5293L52.8809-72.998L54.248-69.6777L57.5195-66.2109Q59.082-64.5508 61.3281-64.5508Q63.1836-64.5508 64.7705-65.8936Q66.3574-67.2363 66.3574-69.3848Q66.3574-71.3379 64.8438-72.8516L52.3926-84.7656Q51.1719-85.9375 49.9268-86.4258Q48.6816-86.9141 47.4121-86.9141Q46.1914-86.9141 44.9219-86.4258Q43.6523-85.9375 42.4316-84.7656L29.9805-72.8516Q28.4668-71.3379 28.4668-69.3848Q28.4668-67.2363 30.0537-65.8936Q31.6406-64.5508 33.4961-64.5508Q35.7422-64.5508 37.3047-66.2109L40.5762-69.6777L41.9434-72.998L41.4062-67.5293L41.4062-32.5684Q41.4062-30.1758 43.1396-28.3936Q44.873-26.6113 47.4121-26.6113Z"/>
  </g>
  <g id="Heavy-S" transform="matrix(1 0 0 1 2590.05 696)">
   <path d="M24.3431 6.28943L68.9253 6.28943Q75.8841 6.28943 79.6934 2.48584Q83.5028-1.31776 83.5028-8.25348L83.5028-43.9371Q83.5028-50.8728 79.6934-54.6764Q75.8841-58.48 68.9253-58.48L59.6583-58.48L59.6583-45.9909L67.1863-45.9909Q69.1142-45.9909 70.0697-45.1029Q71.0252-44.2149 71.0252-42.1405L71.0252-10.0501Q71.0252-8.01299 70.0697-7.10633Q69.1142-6.19968 67.1863-6.19968L26.0821-6.19968Q24.1915-6.19968 23.2173-7.10633Q22.2432-8.01299 22.2432-10.0501L22.2432-42.1405Q22.2432-44.2149 23.2173-45.1029Q24.1915-45.9909 26.0821-45.9909L33.9086-45.9909L33.9086-58.48L24.3431-58.48Q17.3959-58.48 13.5807-54.6764Q9.76562-50.8728 9.76562-43.9371L9.76562-8.25348Q9.76562-1.31776 13.5807 2.48584Q17.3959 6.28943 24.3431 6.28943ZM46.6284-26.1849Q48.9397-26.1849 50.4932-27.7828Q52.0466-29.3806 52.0466-31.5427L52.0466-67.2412L51.5671-72.8021L53.0956-69.7354L56.8626-65.7154Q58.2638-64.205 60.3255-64.205Q62.0657-64.205 63.4971-65.4326Q64.9284-66.6601 64.9284-68.6126Q64.9284-70.4044 63.5184-71.8028L51.0327-83.7515Q49.9503-84.8081 48.855-85.2388Q47.7597-85.6694 46.6284-85.6694Q45.546-85.6694 44.4321-85.2388Q43.3181-84.8081 42.2242-83.7515L29.7385-71.8028Q28.34-70.4044 28.34-68.6126Q28.34-66.6601 29.7598-65.4326Q31.1796-64.205 32.9314-64.205Q34.9931-64.205 36.4058-65.7154L40.1728-69.7354L41.7013-72.8021L41.2219-67.2412L41.2219-31.5427Q41.2219-29.3806 42.7939-27.7828Q44.366-26.1849 46.6284-26.1849Z"/>
  </g>
  <g id="Bold-S" transform="matrix(1 0 0 1 2294.21 696)">
   <path d="M23.6084 6.00586L67.9199 6.00586Q74.6338 6.00586 78.1982 2.45361Q81.7627-1.09863 81.7627-7.76367L81.7627-44.0918Q81.7627-50.7568 78.1982-54.3091Q74.6338-57.8613 67.9199-57.8613L58.2275-57.8613L58.2275-47.2412L66.748-47.2412Q68.9209-47.2412 70.0439-46.1792Q71.167-45.1172 71.167-42.7979L71.167-9.05762Q71.167-6.7627 70.0439-5.68848Q68.9209-4.61426 66.748-4.61426L24.7803-4.61426Q22.6318-4.61426 21.4966-5.68848Q20.3613-6.7627 20.3613-9.05762L20.3613-42.7979Q20.3613-45.1172 21.4966-46.1792Q22.6318-47.2412 24.7803-47.2412L33.4961-47.2412L33.4961-57.8613L23.6084-57.8613Q16.9189-57.8613 13.3423-54.3091Q9.76562-50.7568 9.76562-44.0918L9.76562-7.76367Q9.76562-1.09863 13.3423 2.45361Q16.9189 6.00586 23.6084 6.00586ZM45.752-25.708Q47.7539-25.708 49.1333-27.0996Q50.5127-28.4912 50.5127-30.3955L50.5127-66.9189L50.0977-72.583L51.8066-69.7998L56.1279-65.1611Q57.3486-63.8184 59.2041-63.8184Q60.8154-63.8184 62.0728-64.917Q63.3301-66.0156 63.3301-67.749Q63.3301-69.3604 62.0361-70.6299L49.5117-82.6172Q48.584-83.5449 47.6562-83.9111Q46.7285-84.2773 45.752-84.2773Q44.8242-84.2773 43.8843-83.9111Q42.9443-83.5449 41.9922-82.6172L29.4678-70.6299Q28.1982-69.3604 28.1982-67.749Q28.1982-66.0156 29.4312-64.917Q30.6641-63.8184 32.2998-63.8184Q34.1553-63.8184 35.4004-65.1611L39.7217-69.7998L41.4307-72.583L41.0156-66.9189L41.0156-30.3955Q41.0156-28.4912 42.4072-27.0996Q43.7988-25.708 45.752-25.708Z"/>
  </g>
  <g id="Semibold-S" transform="matrix(1 0 0 1 1998.1 696)">
   <path d="M23.1019 5.81035L67.2268 5.81035Q73.7718 5.81035 77.1674 2.4314Q80.563-0.947559 80.563-7.42598L80.563-44.1984Q80.563-50.6769 77.1674-54.0558Q73.7718-57.4348 67.2268-57.4348L57.2411-57.4348L57.2411-48.1032L66.4459-48.1032Q68.7876-48.1032 70.0262-46.9212Q71.2647-45.7393 71.2647-43.2511L71.2647-8.37334Q71.2647-5.90068 70.0262-4.71094Q68.7876-3.52119 66.4459-3.52119L23.8827-3.52119Q21.5565-3.52119 20.3102-4.71094Q19.0639-5.90068 19.0639-8.37334L19.0639-43.2511Q19.0639-45.7393 20.3102-46.9212Q21.5565-48.1032 23.8827-48.1032L33.2117-48.1032L33.2117-57.4348L23.1019-57.4348Q16.5901-57.4348 13.1779-54.0558Q9.76562-50.6769 9.76562-44.1984L9.76562-7.42598Q9.76562-0.947559 13.1779 2.4314Q16.5901 5.81035 23.1019 5.81035ZM45.1477-25.3792Q46.9363-25.3792 48.1958-26.6286Q49.4552-27.878 49.4552-29.6046L49.4552-66.6968L49.0846-72.4319L50.918-69.8442L55.6214-64.779Q56.7177-63.5518 58.431-63.5518Q59.9534-63.5518 61.0908-64.5615Q62.2281-65.5713 62.2281-67.1536Q62.2281-68.6405 61.0142-69.8212L48.4631-81.8352Q47.642-82.674 46.8298-82.9958Q46.0176-83.3176 45.1477-83.3176Q44.3266-83.3176 43.5066-82.9958Q42.6866-82.674 41.8322-81.8352L29.2812-69.8212Q28.1005-68.6405 28.1005-67.1536Q28.1005-65.5713 29.2045-64.5615Q30.3086-63.5518 31.8644-63.5518Q33.5776-63.5518 34.7072-64.779L39.4106-69.8442L41.244-72.4319L40.8734-66.6968L40.8734-29.6046Q40.8734-27.878 42.1406-26.6286Q43.4078-25.3792 45.1477-25.3792Z"/>
  </g>
  <g id="Medium-S" transform="matrix(1 0 0 1 1701.85 696)">
   <path d="M22.7178 5.66211L66.7012 5.66211Q73.1182 5.66211 76.3857 2.41455Q79.6533-0.833008 79.6533-7.16992L79.6533-44.2793Q79.6533-50.6162 76.3857-53.8638Q73.1182-57.1113 66.7012-57.1113L56.4932-57.1113L56.4932-48.7568L66.2168-48.7568Q68.6865-48.7568 70.0127-47.4839Q71.3389-46.2109 71.3389-43.5947L71.3389-7.85449Q71.3389-5.24707 70.0127-3.96973Q68.6865-2.69238 66.2168-2.69238L23.2021-2.69238Q20.7412-2.69238 19.4106-3.96973Q18.0801-5.24707 18.0801-7.85449L18.0801-43.5947Q18.0801-46.2109 19.4106-47.4839Q20.7412-48.7568 23.2021-48.7568L32.9961-48.7568L32.9961-57.1113L22.7178-57.1113Q16.3408-57.1113 13.0532-53.8638Q9.76562-50.6162 9.76562-44.2793L9.76562-7.16992Q9.76562-0.833008 13.0532 2.41455Q16.3408 5.66211 22.7178 5.66211ZM44.6895-25.1299Q46.3164-25.1299 47.4849-26.2715Q48.6533-27.4131 48.6533-29.0049L48.6533-66.5283L48.3164-72.3174L50.2441-69.8779L55.2373-64.4893Q56.2393-63.3496 57.8447-63.3496Q59.2998-63.3496 60.3462-64.292Q61.3926-65.2344 61.3926-66.7021Q61.3926-68.0947 60.2393-69.208L47.668-81.2422Q46.9277-82.0137 46.2031-82.3018Q45.4785-82.5898 44.6895-82.5898Q43.9492-82.5898 43.2202-82.3018Q42.4912-82.0137 41.7109-81.2422L29.1396-69.208Q28.0264-68.0947 28.0264-66.7021Q28.0264-65.2344 29.0327-64.292Q30.0391-63.3496 31.5342-63.3496Q33.1396-63.3496 34.1816-64.4893L39.1748-69.8779L41.1025-72.3174L40.7656-66.5283L40.7656-29.0049Q40.7656-27.4131 41.9385-26.2715Q43.1113-25.1299 44.6895-25.1299Z"/>
  </g>
  <g id="Regular-S" transform="matrix(1 0 0 1 1405.73 696)">
   <path d="M22.2168 5.46875L66.0156 5.46875Q72.2656 5.46875 75.3662 2.39258Q78.4668-0.683594 78.4668-6.83594L78.4668-44.3848Q78.4668-50.5371 75.3662-53.6133Q72.2656-56.6895 66.0156-56.6895L55.5176-56.6895L55.5176-49.6094L65.918-49.6094Q68.5547-49.6094 69.9951-48.2178Q71.4355-46.8262 71.4355-44.043L71.4355-7.17773Q71.4355-4.39453 69.9951-3.00293Q68.5547-1.61133 65.918-1.61133L22.3145-1.61133Q19.6777-1.61133 18.2373-3.00293Q16.7969-4.39453 16.7969-7.17773L16.7969-44.043Q16.7969-46.8262 18.2373-48.2178Q19.6777-49.6094 22.3145-49.6094L32.7148-49.6094L32.7148-56.6895L22.2168-56.6895Q16.0156-56.6895 12.8906-53.6133Q9.76562-50.5371 9.76562-44.3848L9.76562-6.83594Q9.76562-0.683594 12.8906 2.39258Q16.0156 5.46875 22.2168 5.46875ZM44.0918-24.8047Q45.5078-24.8047 46.5576-25.8057Q47.6074-26.8066 47.6074-28.2227L47.6074-66.3086L47.3145-72.168L49.3652-69.9219L54.7363-64.1113Q55.6152-63.0859 57.0801-63.0859Q58.4473-63.0859 59.375-63.9404Q60.3027-64.7949 60.3027-66.1133Q60.3027-67.3828 59.2285-68.4082L46.6309-80.4688Q45.9961-81.1523 45.3857-81.3965Q44.7754-81.6406 44.0918-81.6406Q43.457-81.6406 42.8467-81.3965Q42.2363-81.1523 41.5527-80.4688L28.9551-68.4082Q27.9297-67.3828 27.9297-66.1133Q27.9297-64.7949 28.8086-63.9404Q29.6875-63.0859 31.1035-63.0859Q32.5684-63.0859 33.4961-64.1113L38.8672-69.9219L40.918-72.168L40.625-66.3086L40.625-28.2227Q40.625-26.8066 41.6748-25.8057Q42.7246-24.8047 44.0918-24.8047Z"/>
  </g>
  <g id="Light-S" transform="matrix(1 0 0 1 1109.75 696)">
   <path d="M21.3994 4.81796L65.3648 4.81796Q71.1606 4.81796 74.0796 1.90824Q76.9986-1.00149 76.9986-6.71488L76.9986-45.3232Q76.9986-51.0366 74.0796-53.9463Q71.1606-56.856 65.3648-56.856L54.5942-56.856L54.5942-51.4107L65.2672-51.4107Q68.2823-51.4107 69.9271-49.8147Q71.5719-48.2188 71.5719-45.0572L71.5719-6.9809Q71.5719-3.81927 69.9271-2.23096Q68.2823-0.642649 65.2672-0.642649L21.4971-0.642649Q18.4364-0.642649 16.8144-2.23096Q15.1924-3.81927 15.1924-6.9809L15.1924-45.0572Q15.1924-48.2188 16.8144-49.8147Q18.4364-51.4107 21.4971-51.4107L32.2001-51.4107L32.2001-56.856L21.3994-56.856Q15.6219-56.856 12.6938-53.9614Q9.76562-51.0668 9.76562-45.3232L9.76562-6.71488Q9.76562-0.971222 12.6938 1.92337Q15.6219 4.81796 21.3994 4.81796ZM43.3652-24.8805Q44.4633-24.8805 45.271-25.6543Q46.0787-26.4282 46.0787-27.5263L46.0787-67.7617L45.8613-73.4243L48.8505-70.285L55.0087-63.8237Q55.7213-63.0102 56.853-63.0102Q57.8873-63.0102 58.6107-63.6831Q59.3341-64.356 59.3341-65.3717Q59.3341-66.3536 58.5019-67.1366L45.314-79.9693Q44.8306-80.4863 44.3564-80.6775Q43.8822-80.8688 43.3652-80.8688Q42.8668-80.8688 42.4002-80.6775Q41.9337-80.4863 41.4164-79.9693L28.2135-67.1366Q27.415-66.3536 27.415-65.3717Q27.415-64.356 28.0972-63.6831Q28.7793-63.0102 29.8622-63.0102Q30.9942-63.0102 31.7251-63.8237L37.8985-70.285L40.9027-73.4395L40.6855-67.7617L40.6855-27.5263Q40.6855-26.4282 41.4931-25.6543Q42.3007-24.8805 43.3652-24.8805Z"/>
  </g>
  <g id="Thin-S" transform="matrix(1 0 0 1 814.011 696)">
   <path d="M20.3184 3.95724L64.5041 3.95724Q69.6992 3.95724 72.378 1.26766Q75.0569-1.42192 75.0569-6.55478L75.0569-46.5643Q75.0569-51.6972 72.378-54.3868Q69.6992-57.0763 64.5041-57.0763L53.3729-57.0763L53.3729-53.793L64.4065-53.793Q67.9221-53.793 69.8371-51.9268Q71.7521-50.0606 71.7521-46.3985L71.7521-6.72056Q71.7521-3.05845 69.8371-1.20997Q67.9221 0.638506 64.4065 0.638506L20.4161 0.638506Q16.7947 0.638506 14.9325-1.20997Q13.0704-3.05845 13.0704-6.72056L13.0704-46.3985Q13.0704-50.0606 14.9325-51.9268Q16.7947-53.793 20.4161-53.793L31.5193-53.793L31.5193-57.0763L20.3184-57.0763Q15.1013-57.0763 12.4335-54.4219Q9.76562-51.7675 9.76562-46.5643L9.76562-6.55478Q9.76562-1.35163 12.4335 1.30281Q15.1013 3.95724 20.3184 3.95724ZM42.4043-24.9807Q43.082-24.9807 43.5695-25.4542Q44.0569-25.9277 44.0569-26.6054L44.0569-69.6836L43.9394-75.0858L48.1697-70.7653L55.3689-63.4433Q55.8615-62.9099 56.5526-62.9099Q57.1466-62.9099 57.5998-63.3427Q58.0529-63.7754 58.0529-64.3909Q58.0529-64.9924 57.541-65.4549L43.5724-79.3087Q43.2891-79.6054 42.995-79.7267Q42.701-79.848 42.4043-79.848Q42.0861-79.848 41.8098-79.7267Q41.5334-79.6054 41.2361-79.3087L27.2327-65.4549Q26.7342-64.9924 26.7342-64.3909Q26.7342-63.7754 27.1562-63.3427Q27.5782-62.9099 28.2205-62.9099Q28.9122-62.9099 29.3827-63.4433L36.6174-70.7653L40.8825-75.1213L40.7656-69.6836L40.7656-26.6054Q40.7656-25.9277 41.2528-25.4542Q41.74-24.9807 42.4043-24.9807Z"/>
  </g>
  <g id="Ultralight-S" transform="matrix(1 0 0 1 517.797 696)">
   <path d="M19.7647 3.51639L64.0633 3.51639Q68.9507 3.51639 71.5065 0.93956Q74.0623-1.63727 74.0623-6.47278L74.0623-47.2Q74.0623-52.0355 71.5065-54.6124Q68.9507-57.1892 64.0633-57.1892L52.7473-57.1892L52.7473-55.0133L63.9656-55.0133Q67.7376-55.0133 69.791-53.0087Q71.8445-51.004 71.8445-47.0856L71.8445-6.58722Q71.8445-2.66876 69.791-0.687027Q67.7376 1.29471 63.9656 1.29471L19.8624 1.29471Q15.9538 1.29471 13.9687-0.687027Q11.9835-2.66876 11.9835-6.58722L11.9835-47.0856Q11.9835-51.004 13.9687-53.0087Q15.9538-55.0133 19.8624-55.0133L31.1707-55.0133L31.1707-57.1892L19.7647-57.1892Q14.8346-57.1892 12.3001-54.6577Q9.76562-52.1263 9.76562-47.2L9.76562-6.47278Q9.76562-1.54648 12.3001 0.984955Q14.8346 3.51639 19.7647 3.51639ZM41.9121-25.032Q42.3744-25.032 42.6979-25.3517Q43.0214-25.6714 43.0214-26.1337L43.0214-70.668L42.955-75.9369L47.821-71.0114L55.5534-63.2484Q55.9334-62.8586 56.3988-62.8586Q56.7673-62.8586 57.082-63.1683Q57.3967-63.4781 57.3967-63.8885Q57.3967-64.2952 57.0488-64.5935L42.6804-78.9703Q42.4995-79.1542 42.2977-79.2397Q42.0959-79.3251 41.9121-79.3251Q41.6862-79.3251 41.5073-79.2397Q41.3284-79.1542 41.1438-78.9703L26.7303-64.5935Q26.3855-64.2952 26.3855-63.8885Q26.3855-63.4781 26.6743-63.1683Q26.963-62.8586 27.3796-62.8586Q27.8458-62.8586 28.183-63.2484L35.9612-71.0114L40.8722-75.9827L40.8066-70.668L40.8066-26.1337Q40.8066-25.6714 41.1297-25.3517Q41.4528-25.032 41.9121-25.032Z"/>
  </g>
 </g>
</svg>
