<svg xmlns="http://www.w3.org/2000/svg" viewBox="0 0 40 60">
	<path d="M 40 20 Q 40 34 20 60 Q 0 34 0 20 A 2 2 90 0 1 40 20 Z M 20 8 A 2 2 90 0 0 20 32 C 27 32 32 26 32 20 L 32 18 Q 32 17 31 17 L 25 17 A 1 1 0 0 0 25 20 L 28 20 C 28 24 25 28 20 28 A 2 2 90 0 1 20 12 A 1 1 0 0 0 20 8 Z" fill="url(#gradient-fill)" />
	<defs>
		<linearGradient id="gradient-fill" x1="0%" y1="0%" x2="100%" y2="100%" gradientUnits="userSpaceOnUse">
			<stop offset="0" stop-color="#1edc14" />
			<stop offset="1" stop-color="#0a9605" />
		</linearGradient>
	</defs>
</svg>