<svg xmlns="http://www.w3.org/2000/svg" viewBox="0 0 40 40">
  <path d="M 5 20 A 1 1 0 0 0 35 20 A 1 1 0 0 0 5 20 M 10 20 A 1 1 0 0 1 30 20 A 1 1 0 0 1 10 20 Z" fill="#fff" />
  <path d="M 10 21 L 10 19 L 18 19 L 19 19 L 24 10 L 26 10 L 21 19 L 21 21 L 26 30 L 24 30 L 19 21 L 18 21 L 10 21 Z" fill="#fff" />
  <path d="M 20 17 A 1 1 0 0 0 20 23 A 1 1 0 0 0 20 17 Z" fill="#fff" />
  <path d="M 22.05 3.99 c -0.53 -2.13 -3.57 -2.13 -4.1 0 l -0.16 0.63 a 2.11 2.11 90 0 1 -3.57 0.95 l -0.45 -0.46 c -1.53 -1.58 -4.16 -0.07 -3.55 2.05 l 0.18 0.62 a 2.11 2.11 90 0 1 -2.61 2.61 l -0.62 -0.18 c -2.12 -0.6 -3.63 2.02 -2.05 3.55 l 0.46 0.45 a 2.11 2.11 90 0 1 -0.95 3.57 l -0.63 0.16 c -2.13 0.53 -2.13 3.57 0 4.1 l 0.63 0.16 a 2.11 2.11 90 0 1 0.95 3.57 l -0.46 0.45 c -1.58 1.53 -0.07 4.16 2.05 3.55 l 0.62 -0.18 a 2.11 2.11 90 0 1 2.61 2.61 l -0.18 0.62 c -0.6 2.12 2.02 3.63 3.55 2.05 l 0.45 -0.46 a 2.11 2.11 90 0 1 3.57 0.95 l 0.16 0.63 c 0.53 2.13 3.57 2.13 4.1 0 l 0.16 -0.63 a 2.11 2.11 90 0 1 3.57 -0.95 l 0.45 0.46 c 1.53 1.58 4.16 0.07 3.55 -2.05 l -0.18 -0.62 a 2.11 2.11 90 0 1 2.61 -2.61 l 0.62 0.18 c 2.12 0.6 3.63 -2.02 2.05 -3.55 l -0.46 -0.45 a 2.11 2.11 90 0 1 0.95 -3.57 l 0.63 -0.16 c 2.13 -0.53 2.13 -3.57 0 -4.1 l -0.63 -0.16 a 2.11 2.11 90 0 1 -0.95 -3.57 l 0.46 -0.45 c 1.58 -1.53 0.07 -4.16 -2.05 -3.55 l -0.62 0.18 a 2.11 2.11 90 0 1 -2.61 -2.61 l 0.18 -0.62 c 0.6 -2.12 -2.02 -3.63 -3.55 -2.05 l -0.45 0.46 a 2.11 2.11 90 0 1 -3.57 -0.95 l -0.16 -0.63 z M 20 6.8 A 2.2 2.2 90 0 1 20 33.2 A 2.2 2.2 90 0 1 20 6.8 Z" fill="#fff" />
</svg>