
<svg width="3300px" height="2200px" viewBox="0 0 3300 2200" version="1.1" xmlns="http://www.w3.org/2000/svg" xmlns:xlink="http://www.w3.org/1999/xlink">
    <g id="Page-1" stroke="none" stroke-width="1" fill="none" fill-rule="evenodd">
        <g id="location.viewfinder">
            <g id="Notes">
                <rect id="artboard" fill="#FFFFFF" fill-rule="nonzero" x="0" y="0" width="3300" height="2200"></rect>
                <line x1="263" y1="292" x2="3036" y2="292" id="Path" stroke="#15B70C" stroke-width="0.5"></line>
                <text id="Weight/Scale-Variations" fill="#15B70C" fill-rule="nonzero" font-family="Helvetica-Bold, Helvetica" font-size="13" font-weight="bold">
                    <tspan x="263" y="322">Weight/Scale Variations</tspan>
                </text>
                <text id="Ultralight" fill="#15B70C" fill-rule="nonzero" font-family="Helvetica" font-size="13" font-weight="normal">
                    <tspan x="533.711" y="322">Ultralight</tspan>
                </text>
                <text id="Thin" fill="#15B70C" fill-rule="nonzero" font-family="Helvetica" font-size="13" font-weight="normal">
                    <tspan x="843.422" y="322">Thin</tspan>
                </text>
                <text id="Light" fill="#15B70C" fill-rule="nonzero" font-family="Helvetica" font-size="13" font-weight="normal">
                    <tspan x="1138.63" y="322">Light</tspan>
                </text>
                <text id="Regular" fill="#15B70C" fill-rule="nonzero" font-family="Helvetica" font-size="13" font-weight="normal">
                    <tspan x="1426.84" y="322">Regular</tspan>
                </text>
                <text id="Medium" fill="#15B70C" fill-rule="nonzero" font-family="Helvetica" font-size="13" font-weight="normal">
                    <tspan x="1723.06" y="322">Medium</tspan>
                </text>
                <text id="Semibold" fill="#15B70C" fill-rule="nonzero" font-family="Helvetica" font-size="13" font-weight="normal">
                    <tspan x="2015.77" y="322">Semibold</tspan>
                </text>
                <text id="Bold" fill="#15B70C" fill-rule="nonzero" font-family="Helvetica" font-size="13" font-weight="normal">
                    <tspan x="2326.48" y="322">Bold</tspan>
                </text>
                <text id="Heavy" fill="#15B70C" fill-rule="nonzero" font-family="Helvetica" font-size="13" font-weight="normal">
                    <tspan x="2618.19" y="322">Heavy</tspan>
                </text>
                <text id="Black" fill="#15B70C" fill-rule="nonzero" font-family="Helvetica" font-size="13" font-weight="normal">
                    <tspan x="2917.4" y="322">Black</tspan>
                </text>
                <line x1="263" y1="1903" x2="3036" y2="1903" id="Path" stroke="#15B70C" stroke-width="0.5"></line>
                <g id="Group" transform="translate(264.367190, 1918.068400)" fill="#15B70C" fill-rule="nonzero">
                    <path d="M7.88086,15.761678 C12.18751,15.761678 15.77151,12.18746 15.77151,7.88082 C15.77151,3.5742 12.17771,0 7.87109,0 C3.57422,0 -8.8817842e-16,3.5742 -8.8817842e-16,7.88082 C-8.8817842e-16,12.18746 3.58398,15.761678 7.88086,15.761678 Z M7.88086,14.277303 C4.33593,14.277303 1.5039,11.43551 1.5039,7.88082 C1.5039,4.3261 4.32617,1.4843 7.87109,1.4843 C11.42581,1.4843 14.26761,4.3261 14.2773352,7.88082 C14.28711,11.43551 11.43551,14.277303 7.88086,14.277303 Z M5.02929,8.61324 L7.13867,8.61324 L7.13867,10.73238 C7.13867,11.17183 7.43164,11.47457 7.86133,11.47457 C8.31054,11.47457 8.60351,11.17183 8.60351,10.73238 L8.60351,8.61324 L10.73241,8.61324 C11.17191,8.61324 11.47461,8.32027 11.47461,7.89058 C11.47461,7.45113 11.17191,7.1484 10.73241,7.1484 L8.60351,7.1484 L8.60351,5.03902 C8.60351,4.5898 8.31054,4.2871 7.86133,4.2871 C7.43164,4.2871 7.13867,4.5898 7.13867,5.03902 L7.13867,7.1484 L5.02929,7.1484 C4.58008,7.1484 4.27734,7.45113 4.27734,7.89058 C4.27734,8.32027 4.58008,8.61324 5.02929,8.61324 Z" id="Shape"></path>
                </g>
                <g id="Group" transform="translate(283.254050, 1915.988300)" fill="#15B70C" fill-rule="nonzero">
                    <path d="M9.96095,19.92186 C15.41015,19.92186 19.92185,15.40037 19.92185,9.96092 C19.92185,4.5117 15.40035,0 9.95115,0 C4.51172,0 8.8817842e-16,4.5117 8.8817842e-16,9.96092 C8.8817842e-16,15.40037 4.52148,19.92186 9.96095,19.92186 Z M9.96095,18.2617 C5.35156,18.2617 1.66992,14.57029 1.66992,9.96092 C1.66992,5.3515 5.34179,1.6601 9.95115,1.6601 C14.56055,1.6601 18.25195,5.3515 18.261769,9.96092 C18.27145,14.57029 14.57035,18.2617 9.96095,18.2617 Z M6.24023,10.78123 L9.13085,10.78123 L9.13085,13.69139 C9.13085,14.17967 9.46285,14.5117 9.94145,14.5117 C10.42965,14.5117 10.77145,14.17967 10.77145,13.69139 L10.77145,10.78123 L13.68165,10.78123 C14.16995,10.78123 14.50195,10.4492 14.50195,9.97068 C14.50195,9.4824 14.16995,9.14061 13.68165,9.14061 L10.77145,9.14061 L10.77145,6.25 C10.77145,5.7422 10.42965,5.4101 9.94145,5.4101 C9.46285,5.4101 9.13085,5.7519 9.13085,6.25 L9.13085,9.14061 L6.24023,9.14061 C5.73242,9.14061 5.40039,9.4824 5.40039,9.97068 C5.40039,10.4492 5.74218,10.78123 6.24023,10.78123 Z" id="Shape"></path>
                </g>
                <g id="Group" transform="translate(307.179860, 1913.224600)" fill="#15B70C" fill-rule="nonzero">
                    <path d="M12.71484,25.43946 C19.67774,25.43946 25.43944,19.6777438 25.43944,12.72462 C25.43944,5.7617 19.66794,0 12.70504,0 C5.75195,0 0,5.7617 0,12.72462 C0,19.6777438 5.76172,25.43946 12.71484,25.43946 Z M12.71484,23.62306 C6.67969,23.62306 1.82617,18.75978 1.82617,12.72462 C1.82617,6.6797 6.66992,1.8262 12.70504,1.8262 C18.75004,1.8262 23.60354,6.6797 23.6132548,12.72462 C23.62304,18.75978 18.75974,23.62306 12.71484,23.62306 Z M7.80274,13.63282 L11.80664,13.63282 L11.80664,17.64649 C11.80664,18.1836 12.17774,18.5547 12.69534,18.5547 C13.23244,18.5547 13.60354,18.1836 13.60354,17.64649 L13.60354,13.63282 L17.62694,13.63282 C18.15434,13.63282 18.53514,13.26173 18.53514,12.74415 C18.53514,12.20704 18.16404,11.82618 17.62694,11.82618 L13.60354,11.82618 L13.60354,7.8223 C13.60354,7.2656 13.23244,6.8945 12.69534,6.8945 C12.17774,6.8945 11.80664,7.2754 11.80664,7.8223 L11.80664,11.82618 L7.80274,11.82618 C7.24609,11.82618 6.875,12.20704 6.875,12.74415 C6.875,13.26173 7.25586,13.63282 7.80274,13.63282 Z" id="Shape"></path>
                </g>
                <text id="Design-Variations" fill="#15B70C" fill-rule="nonzero" font-family="Helvetica-Bold, Helvetica" font-size="13" font-weight="bold">
                    <tspan x="263" y="1953">Design Variations</tspan>
                </text>
                <text id="Symbols-are-supported-in-up-to-nine-weights-and-three-scales." fill="#15B70C" fill-rule="nonzero" font-family="Helvetica" font-size="13" font-weight="normal">
                    <tspan x="263" y="1971">Symbols are supported in up to nine weights and three scales.</tspan>
                </text>
                <text id="For-optimal-layout-with-text-and-other-symbols,-vertically-align" fill="#15B70C" fill-rule="nonzero" font-family="Helvetica" font-size="13" font-weight="normal">
                    <tspan x="263" y="1989">For optimal layout with text and other symbols, vertically align</tspan>
                </text>
                <text id="symbols-with-the-adjacent-text." fill="#15B70C" fill-rule="nonzero" font-family="Helvetica" font-size="13" font-weight="normal">
                    <tspan x="263" y="2007">symbols with the adjacent text.</tspan>
                </text>
                <line x1="776" y1="1919" x2="776" y2="1933" id="Path" stroke="#00AEEF" stroke-width="0.5"></line>
                <g id="Group" transform="translate(778.490230, 1918.712900)" fill="#15B70C" fill-rule="nonzero">
                    <path d="M0.82032,14.414053 C1.33789,14.414053 1.5918,14.2187406 1.77735,13.681631 L3.03711,10.2246 L8.79887,10.2246 L10.05857,13.681631 C10.24417,14.2187406 10.49807,14.414053 11.00587,14.414053 C11.52347,14.414053 11.85547,14.101553 11.85547,13.613272 C11.85547,13.447256 11.82617,13.300772 11.74807,13.08593 L7.16797,0.8984 C6.94336,0.293 6.54297,0 5.91797,0 C5.3125,0 4.90235,0.293 4.6875,0.8887 L0.10743,13.09569 C0.0293,13.310538 -4.4408921e-16,13.457022 -4.4408921e-16,13.623038 C-4.4408921e-16,14.111319 0.3125,14.414053 0.82032,14.414053 Z M3.51563,8.74999 L5.88868,2.1777 L5.9375,2.1777 L8.31057,8.74999 L3.51563,8.74999 Z" id="Shape"></path>
                </g>
                <line x1="792.836" y1="1919" x2="792.836" y2="1933" id="Path" stroke="#00AEEF" stroke-width="0.5"></line>
                <text id="Margins" fill="#15B70C" fill-rule="nonzero" font-family="Helvetica-Bold, Helvetica" font-size="13" font-weight="bold">
                    <tspan x="776" y="1953">Margins</tspan>
                </text>
                <text id="Leading-and-trailing-margins-on-the-left-and-right-side-of-each-symbol" fill="#15B70C" fill-rule="nonzero" font-family="Helvetica" font-size="13" font-weight="normal">
                    <tspan x="776" y="1971">Leading and trailing margins on the left and right side of each symbol</tspan>
                </text>
                <text id="can-be-adjusted-by-modifying-the-x-location-of-the-margin-guidelines." fill="#15B70C" fill-rule="nonzero" font-family="Helvetica" font-size="13" font-weight="normal">
                    <tspan x="776" y="1989">can be adjusted by modifying the x-location of the margin guidelines.</tspan>
                </text>
                <text id="Modifications-are-automatically-applied-proportionally-to-all" fill="#15B70C" fill-rule="nonzero" font-family="Helvetica" font-size="13" font-weight="normal">
                    <tspan x="776" y="2007">Modifications are automatically applied proportionally to all</tspan>
                </text>
                <text id="scales-and-weights." fill="#15B70C" fill-rule="nonzero" font-family="Helvetica" font-size="13" font-weight="normal">
                    <tspan x="776" y="2025">scales and weights.</tspan>
                </text>
                <g id="Group" transform="translate(1291.248126, 1914.517396)" fill="#15B70C" fill-rule="nonzero">
                    <path d="M0.593673634,20.347834 L2.29289363,22.056824 C3.15226363,22.925964 4.13859363,22.867374 5.06632363,21.841984 L15.2420736,10.631044 C15.5057736,10.718934 15.7791736,10.699404 16.0916736,10.640804 L17.1561736,10.445494 L17.8202736,11.119324 L17.7811736,11.675964 C17.7420736,12.174014 17.8690736,12.554874 18.3573736,13.033384 L19.1190736,13.775574 C19.5975736,14.254084 20.2127736,14.283384 20.6815736,13.814634 L23.5916736,10.894714 C24.0604736,10.425964 24.0409736,9.83026404 23.5623736,9.35174404 L22.7909736,8.59002404 C22.3123736,8.11150404 21.9413736,7.95530404 21.4627736,7.99430404 L20.8866736,8.04310404 L20.2420736,7.40840404 L20.4862736,6.28530404 C20.6131736,5.71890404 20.4569736,5.27950404 19.8709736,4.69350404 L17.6737736,2.50600404 C14.3338736,-0.814295964 9.90027363,-0.736195964 7.00968363,2.15450404 C6.58976363,2.56460404 6.56046363,3.14080404 6.79484363,3.53140404 C7.02921363,3.89280404 7.48820363,4.12710404 8.13277363,3.96110404 C9.59757363,3.61930404 11.1209736,3.56070404 12.5467736,4.49820404 L11.9608736,5.95330404 C11.7655736,6.43180404 11.7362736,6.83220404 11.8631736,7.19350404 L0.798753634,17.584166 C-0.187576366,18.5021352 -0.265706366,19.478698 0.593673634,20.347834 Z M8.50387363,2.52560404 C10.9354736,0.748204036 14.2264736,1.05100404 16.4530736,3.27750404 L18.8846736,5.68960404 C19.1190736,5.92400404 19.1580736,6.10960404 19.0897736,6.45140404 L18.7674736,7.93570404 L20.2713736,9.42010404 L21.2577736,9.36151404 C21.5116736,9.35174404 21.5897736,9.37127404 21.7850736,9.56658404 L22.3612736,10.142764 L19.9198736,12.584164 L19.3436736,12.007994 C19.1483736,11.812684 19.1190736,11.734554 19.1288736,11.470884 L19.1971736,10.494324 L17.7030736,9.00994404 L16.1795736,9.26385404 C15.8573736,9.33221404 15.7108736,9.30291404 15.4666736,9.06854404 L13.4647736,7.06660404 C13.2108736,6.83220404 13.1815736,6.66620404 13.3377736,6.29510404 L14.2166736,4.20530404 C12.6541736,2.75020404 10.6229736,2.12520404 8.59167363,2.72090404 C8.43547363,2.75990404 8.37687363,2.63300404 8.50387363,2.52560404 Z M3.02531363,20.787304 L1.85343363,19.625184 C1.38468363,19.166198 1.49210363,18.824401 1.89249363,18.4630728 L12.7030736,8.28730404 L14.1678736,9.77166404 L4.17765363,20.757994 C3.82609363,21.158384 3.49406363,21.256044 3.02531363,20.787304 Z" id="Shape"></path>
                </g>
                <text id="Exporting" fill="#15B70C" fill-rule="nonzero" font-family="Helvetica-Bold, Helvetica" font-size="13" font-weight="bold">
                    <tspan x="1289" y="1953">Exporting</tspan>
                </text>
                <text id="Symbols-should-be-outlined-when-exporting-to-ensure-the" fill="#15B70C" fill-rule="nonzero" font-family="Helvetica" font-size="13" font-weight="normal">
                    <tspan x="1289" y="1971">Symbols should be outlined when exporting to ensure the</tspan>
                </text>
                <text id="design-is-preserved-when-submitting-to-Xcode." fill="#15B70C" fill-rule="nonzero" font-family="Helvetica" font-size="13" font-weight="normal">
                    <tspan x="1289" y="1989">design is preserved when submitting to Xcode.</tspan>
                </text>
                <text id="template-version" fill="#15B70C" fill-rule="nonzero" font-family="Helvetica" font-size="13" font-weight="normal">
                    <tspan x="2952" y="1933">Template v.2.0</tspan>
                </text>
                <text id="Requires-Xcode-12-or-greater" fill="#15B70C" fill-rule="nonzero" font-family="Helvetica" font-size="13" font-weight="normal">
                    <tspan x="2865" y="1951">Requires Xcode 12 or greater</tspan>
                </text>
                <text id="Generated-from-location.viewfinder" fill="#15B70C" fill-rule="nonzero" font-family="Helvetica" font-size="13" font-weight="normal">
                    <tspan x="2834" y="1969">Generated from location.viewfinder</tspan>
                </text>
                <text id="Typeset-at-100-points" fill="#15B70C" fill-rule="nonzero" font-family="Helvetica" font-size="13" font-weight="normal">
                    <tspan x="2912" y="1987">Typeset at 100 points</tspan>
                </text>
                <text id="Small" fill="#15B70C" fill-rule="nonzero" font-family="Helvetica" font-size="13" font-weight="normal">
                    <tspan x="263" y="726">Small</tspan>
                </text>
                <text id="Medium" fill="#15B70C" fill-rule="nonzero" font-family="Helvetica" font-size="13" font-weight="normal">
                    <tspan x="263" y="1156">Medium</tspan>
                </text>
                <text id="Large" fill="#15B70C" fill-rule="nonzero" font-family="Helvetica" font-size="13" font-weight="normal">
                    <tspan x="263" y="1586">Large</tspan>
                </text>
            </g>
            <g id="Guides" transform="translate(263.000000, 625.041000)">
                <g id="H-reference" transform="translate(76.976562, 0.500000)" fill="#27AAE1" fill-rule="nonzero">
                    <path d="M-1.22124533e-15,70.459 L2.685548,70.459 L12.011738,45.9961 L44.775438,45.9961 L54.150438,70.459 L56.787138,70.459 L29.638638,0 L27.148438,0 L-1.22124533e-15,70.459 Z M28.369138,3.3203 L28.466838,3.3203 L43.896438,43.75 L12.890638,43.75 L28.369138,3.3203 Z" id="Shape"></path>
                </g>
                <line x1="0" y1="70.959" x2="2773" y2="70.959" id="Baseline-S" stroke="#27AAE1" stroke-width="0.5"></line>
                <line x1="0" y1="0.5" x2="2773" y2="0.5" id="Capline-S" stroke="#27AAE1" stroke-width="0.5"></line>
                <g id="H-reference" transform="translate(76.976562, 430.500000)" fill="#27AAE1" fill-rule="nonzero">
                    <path d="M-1.22124533e-15,70.459 L2.685548,70.459 L12.011738,45.9961 L44.775438,45.9961 L54.150438,70.459 L56.787138,70.459 L29.638638,0 L27.148438,0 L-1.22124533e-15,70.459 Z M28.369138,3.3203 L28.466838,3.3203 L43.896438,43.75 L12.890638,43.75 L28.369138,3.3203 Z" id="Shape"></path>
                </g>
                <line x1="0" y1="500.959" x2="2773" y2="500.959" id="Baseline-M" stroke="#27AAE1" stroke-width="0.5"></line>
                <line x1="0" y1="430.499" x2="2773" y2="430.499" id="Capline-M" stroke="#27AAE1" stroke-width="0.5"></line>
                <g id="H-reference" transform="translate(76.976562, 860.500000)" fill="#27AAE1" fill-rule="nonzero">
                    <path d="M-1.22124533e-15,70.459 L2.685548,70.459 L12.011738,45.9961 L44.775438,45.9961 L54.150438,70.459 L56.787138,70.459 L29.638638,0 L27.148438,0 L-1.22124533e-15,70.459 Z M28.369138,3.3203 L28.466838,3.3203 L43.896438,43.75 L12.890638,43.75 L28.369138,3.3203 Z" id="Shape"></path>
                </g>
                <line x1="0" y1="930.959" x2="2773" y2="930.959" id="Baseline-L" stroke="#27AAE1" stroke-width="0.5"></line>
                <line x1="0" y1="860.499" x2="2773" y2="860.499" id="Capline-L" stroke="#27AAE1" stroke-width="0.5"></line>
                <line x1="1126.59" y1="405.749" x2="1126.59" y2="525.079" id="left-margin" stroke="#00AEEF" stroke-width="0.5"></line>
                <line x1="1247.1" y1="405.749" x2="1247.1" y2="525.079" id="right-margin" stroke="#00AEEF" stroke-width="0.5"></line>
            </g>
            <g filter="url(#filter-1)" id="Symbols">
                <g transform="translate(502.533500, 620.707000)">
                    <g id="Black-L" transform="translate(2365.731000, 834.951000)" fill="#15B70C" fill-rule="nonzero">
                        <path d="M120.1655,48.8283 C126.7575,48.8283 130.2735,45.2639 130.2735,38.6232 L130.2735,23.8283 C130.2735,8.6428 121.6305,0 106.3965,0 L91.6015,0 C84.9605,0 81.3964,3.5647 81.3964,10.1076 C81.3964,16.6994 85.0095,20.2639 91.6015,20.2639 L103.6625,20.2639 C107.8615,20.2639 110.0585,22.1193 110.0585,26.7092 L110.0585,38.6232 C110.0585,45.2639 113.6235,48.8283 120.1655,48.8283 Z M10.1074,48.8283 C16.6992,48.8283 20.2636,45.1662 20.2636,38.6232 L20.2636,26.7092 C20.2636,22.1193 22.4121,20.2639 26.6113,20.2639 L38.7207,20.2639 C45.3125,20.2639 48.8769,16.6994 48.8769,10.1076 C48.8769,3.5647 45.3125,0 38.7207,0 L23.9257,0 C8.6914,0 3.55271368e-15,8.6428 3.55271368e-15,23.8283 L3.55271368e-15,38.6232 C3.55271368e-15,45.2639 3.5644,48.8283 10.1074,48.8283 Z M34.9121,74.1701 L57.08,74.1701 L57.1289,96.33809 C57.1289,101.5627 59.9121,104.59005 64.6972,104.59005 C68.164,104.59005 71.0937,102.44161 72.8027,98.63302 L96.5335,46.5822 C97.5585,44.2385 98.0955,42.3342 98.0955,40.6252 C98.0955,36.4748 94.7755,33.2522 90.6735,33.2522 C88.9645,33.2522 87.0115,33.7893 84.7165,34.8147 L31.9335,58.7404 C28.4179,60.3518 26.7089,63.3303 26.7089,66.4553 C26.7089,70.7033 29.4921,74.1701 34.9121,74.1701 Z M52.4414,62.5002 L82.3242,48.9748 L68.75,78.8576 L68.8476,68.5549 C68.9453,64.1604 67.1386,62.3537 62.6953,62.4025 L52.4414,62.5002 Z M23.9257,130.2736 L38.7207,130.2736 C45.3125,130.2736 48.8769,126.7092 48.8769,120.1662 C48.8769,113.6232 45.2636,110.0588 38.7207,110.0588 L26.6113,110.0588 C22.4121,110.0588 20.2636,108.1545 20.2636,103.61348 L20.2636,91.69942 C20.2636,85.0588 16.6503,81.4943 10.1074,81.4943 C3.5644,81.4943 3.55271368e-15,85.0588 3.55271368e-15,91.69942 L3.55271368e-15,106.49434 C3.55271368e-15,121.6799 8.6914,130.2736 23.9257,130.2736 Z M91.6015,130.2736 L106.3965,130.2736 C121.6305,130.2736 130.2735,121.6799 130.2735,106.49434 L130.2735,91.69942 C130.2735,85.0588 126.7085,81.4943 120.1655,81.4943 C113.6235,81.4943 110.0585,85.1076 110.0585,91.69942 L110.0585,103.61348 C110.0585,108.1545 107.8615,110.0588 103.6625,110.0588 L91.6015,110.0588 C84.9605,110.0588 81.3964,113.6232 81.3964,120.1662 C81.3964,126.7092 84.9605,130.2736 91.6015,130.2736 Z" id="Shape"></path>
                    </g>
                    <g id="Heavy-L" transform="translate(2070.041000, 835.976600)" fill="#15B70C" fill-rule="nonzero">
                        <path d="M119.4825,46.5332 C125.1465,46.5332 128.2225,43.457 128.2225,37.6953 L128.2225,22.6562 C128.2225,8.1055 120.1175,0 105.4685,0 L90.4295,0 C84.7165,0 81.5917,3.125 81.5917,8.7891 C81.5917,14.4043 84.7655,17.5293 90.4295,17.5293 L103.3695,17.5293 C108.1545,17.5293 110.7425,19.8242 110.7425,24.9512 L110.7425,37.6953 C110.7425,43.457 113.8185,46.5332 119.4825,46.5332 Z M8.7402,46.5332 C14.4531,46.5332 17.5293,43.4082 17.5293,37.6953 L17.5293,24.9512 C17.5293,19.8242 20.0195,17.5293 24.8535,17.5293 L37.7929,17.5293 C43.5546,17.5293 46.6308,14.4043 46.6308,8.7891 C46.6308,3.125 43.5546,0 37.7929,0 L22.7539,0 C8.1543,0 3.55271368e-15,8.1055 3.55271368e-15,22.6562 L3.55271368e-15,37.6953 C3.55271368e-15,43.457 3.0761,46.5332 8.7402,46.5332 Z M33.0078,72.5586 L56.7382,72.6074 L56.7382,96.14257 C56.7382,101.07421 59.2773,103.90624 63.7207,103.90624 C66.8945,103.90624 69.58,101.90429 71.1914,98.29101 L96.0935,44.0918 C97.0215,41.9922 97.5095,40.1855 97.5095,38.6719 C97.5095,34.8144 94.4825,31.8359 90.6245,31.8359 C89.1115,31.8359 87.2555,32.373 85.2055,33.3008 L30.371,58.3496 C27.0507,59.8633 25.3906,62.5976 25.3906,65.4785 C25.3906,69.4824 28.0273,72.5586 33.0078,72.5586 Z M48.1933,62.0117 L83.3984,45.9473 L67.2851,81.1035 L67.4316,67.4316 C67.4316,63.5742 65.7714,61.8652 61.8652,61.8652 L48.1933,62.0117 Z M22.7539,128.2715 L37.7929,128.2715 C43.5546,128.2715 46.6308,125.1465 46.6308,119.4824 C46.6308,113.8184 43.5058,110.7422 37.7929,110.7422 L24.8535,110.7422 C20.0195,110.7422 17.5293,108.44726 17.5293,103.32031 L17.5293,90.57617 C17.5293,84.8144 14.4043,81.7383 8.7402,81.7383 C3.0761,81.7383 3.55271368e-15,84.8144 3.55271368e-15,90.57617 L3.55271368e-15,105.61523 C3.55271368e-15,120.166 8.1543,128.2715 22.7539,128.2715 Z M90.4295,128.2715 L105.4685,128.2715 C120.1175,128.2715 128.2225,120.166 128.2225,105.61523 L128.2225,90.57617 C128.2225,84.8144 125.1465,81.7383 119.4825,81.7383 C113.8185,81.7383 110.7425,84.8633 110.7425,90.57617 L110.7425,103.32031 C110.7425,108.44726 108.1545,110.7422 103.3695,110.7422 L90.4295,110.7422 C84.7165,110.7422 81.5917,113.8184 81.5917,119.4824 C81.5917,125.1465 84.7165,128.2715 90.4295,128.2715 Z" id="Shape"></path>
                    </g>
                    <g id="Bold-L" transform="translate(1774.481000, 837.148500)" fill="#15B70C" fill-rule="nonzero">
                        <path d="M118.7015,43.9453 C123.3885,43.9453 125.9275,41.4062 125.9275,36.6699 L125.9275,21.3379 C125.9275,7.5195 118.4085,0 104.4925,0 L89.1605,0 C84.4235,0 81.8359,2.5879 81.8359,7.2265 C81.8359,11.8652 84.4235,14.4531 89.1605,14.4531 L103.0275,14.4531 C108.4965,14.4531 111.4745,17.1875 111.4745,22.998 L111.4745,36.6699 C111.4745,41.4062 114.0625,43.9453 118.7015,43.9453 Z M7.2265,43.9453 C11.914,43.9453 14.4531,41.3574 14.4531,36.6699 L14.4531,22.998 C14.4531,17.1875 17.3828,14.4531 22.9003,14.4531 L36.8164,14.4531 C41.5039,14.4531 44.0917,11.8652 44.0917,7.2265 C44.0917,2.5879 41.5039,0 36.8164,0 L21.4355,0 C7.5683,0 7.10542736e-15,7.4707 7.10542736e-15,21.3379 L7.10542736e-15,36.6699 C7.10542736e-15,41.4062 2.539,43.9453 7.2265,43.9453 Z M30.8105,70.7031 L56.2988,70.7519 L56.3476,95.94723 C56.3476,100.48825 58.6425,103.07614 62.6464,103.07614 C65.4785,103.07614 67.9199,101.2695 69.4335,97.900359 L95.5565,41.2597 C96.3865,39.4531 96.8265,37.7929 96.8265,36.4257 C96.8265,32.959 94.1405,30.2734 90.6245,30.2734 C89.2575,30.2734 87.5975,30.7129 85.7905,31.5429 L28.6132,57.8125 C25.5371,59.2285 23.9746,61.6699 23.9746,64.3554 C23.9746,68.0664 26.3183,70.7031 30.8105,70.7031 Z M43.457,61.3769 L84.5705,42.5293 L65.6738,83.6425 L65.7714,66.1133 C65.8203,62.8418 64.2089,61.2304 60.9375,61.2793 L43.457,61.3769 Z M21.4355,125.9277 L36.8164,125.9277 C41.5039,125.9277 44.0917,123.3886 44.0917,118.7011 C44.0917,114.0625 41.5039,111.4746 36.8164,111.4746 L22.9003,111.4746 C17.3828,111.4746 14.4531,108.7402 14.4531,102.97848 L14.4531,89.30661 C14.4531,84.5703 11.8652,81.9824 7.2265,81.9824 C2.539,81.9824 7.10542736e-15,84.5703 7.10542736e-15,89.30661 L7.10542736e-15,104.63864 C7.10542736e-15,118.457 7.5683,125.9277 21.4355,125.9277 Z M89.1605,125.9277 L104.4925,125.9277 C118.4085,125.9277 125.9275,118.457 125.9275,104.63864 L125.9275,89.30661 C125.9275,84.5703 123.3885,81.9824 118.7015,81.9824 C114.0135,81.9824 111.4745,84.5703 111.4745,89.30661 L111.4745,102.97848 C111.4745,108.7402 108.4965,111.4746 103.0275,111.4746 L89.1605,111.4746 C84.4235,111.4746 81.8359,114.0625 81.8359,118.7011 C81.8359,123.3886 84.4235,125.9277 89.1605,125.9277 Z" id="Shape"></path>
                    </g>
                    <g id="Semibold-L" transform="translate(1478.551000, 837.929700)" fill="#15B70C" fill-rule="nonzero">
                        <path d="M118.1645,42.1875 C122.2165,42.1875 124.3655,39.9903 124.3655,35.9375 L124.3655,20.4102 C124.3655,7.1289 117.2365,0 103.8085,0 L88.2325,0 C84.2285,0 81.9824,2.1973 81.9824,6.2012 C81.9824,10.1563 84.2285,12.3535 88.2325,12.3535 L102.7835,12.3535 C108.6915,12.3535 112.0115,15.4297 112.0115,21.6309 L112.0115,35.9375 C112.0115,39.9903 114.2085,42.1875 118.1645,42.1875 Z M6.1523,42.1875 C10.205,42.1875 12.3535,39.9903 12.3535,35.9375 L12.3535,21.6309 C12.3535,15.4297 15.5761,12.3535 21.5332,12.3535 L36.0839,12.3535 C40.1367,12.3535 42.3339,10.1563 42.3339,6.2012 C42.3339,2.1973 40.1367,0 36.0839,0 L20.5566,0 C7.1289,0 -1.0658141e-14,7.0801 -1.0658141e-14,20.4102 L-1.0658141e-14,35.9375 C-1.0658141e-14,39.9903 2.1972,42.1875 6.1523,42.1875 Z M29.3457,69.4824 L56.0058,69.5313 L56.0546,95.84963 C56.0546,100.1465 58.1543,102.53908 61.8652,102.53908 C64.5019,102.53908 66.748,100.87892 68.2128,97.656269 L95.1655,39.3555 C95.9475,37.6953 96.3865,36.1817 96.3865,34.9121 C96.3865,31.6895 93.8965,29.1992 90.6245,29.1992 C89.3065,29.1992 87.7925,29.6387 86.1815,30.3711 L27.3925,57.5195 C24.4628,58.8379 22.9492,61.084 22.9492,63.6231 C22.9492,67.1387 25.1953,69.4824 29.3457,69.4824 Z M40.2343,60.9863 L85.4005,40.1856 L64.5507,85.4004 L64.6484,65.2344 C64.6484,62.4024 63.1347,60.8399 60.2539,60.8887 L40.2343,60.9863 Z M20.5566,124.3653 L36.0839,124.3653 C40.1367,124.3653 42.3339,122.168 42.3339,118.2129 C42.3339,114.209 40.1367,112.0117 36.0839,112.0117 L21.5332,112.0117 C15.5761,112.0117 12.3535,108.9844 12.3535,102.73439 L12.3535,88.42775 C12.3535,84.375 10.1562,82.1778 6.1523,82.1778 C2.1484,82.1778 -1.0658141e-14,84.375 -1.0658141e-14,88.42775 L-1.0658141e-14,103.9551 C-1.0658141e-14,117.334 7.1289,124.3653 20.5566,124.3653 Z M88.2325,124.3653 L103.8085,124.3653 C117.2365,124.3653 124.3655,117.2852 124.3655,103.9551 L124.3655,88.42775 C124.3655,84.375 122.1675,82.1778 118.1645,82.1778 C114.1605,82.1778 112.0115,84.4238 112.0115,88.42775 L112.0115,102.73439 C112.0115,108.9844 108.6915,112.0117 102.7835,112.0117 L88.2325,112.0117 C84.2285,112.0117 81.9824,114.209 81.9824,118.2129 C81.9824,122.168 84.2285,124.3653 88.2325,124.3653 Z" id="Shape"></path>
                    </g>
                    <g id="Medium-L" transform="translate(1182.451000, 838.564500)" fill="#15B70C" fill-rule="nonzero">
                        <path d="M117.7735,40.8203 C121.2895,40.8203 123.1445,38.916 123.1445,35.4004 L123.1445,19.7265 C123.1445,6.7871 116.3575,0 103.2715,0 L87.5485,0 C84.0815,0 82.1289,1.9043 82.1289,5.3711 C82.1289,8.789 84.0815,10.7422 87.5485,10.7422 L102.6365,10.7422 C108.8865,10.7422 112.4025,14.0137 112.4025,20.6055 L112.4025,35.4004 C112.4025,38.916 114.3065,40.8203 117.7735,40.8203 Z M5.371,40.8203 C8.8867,40.8203 10.7421,38.8672 10.7421,35.4004 L10.7421,20.6055 C10.7421,14.0137 14.1601,10.7422 20.5078,10.7422 L35.5957,10.7422 C39.1113,10.7422 41.0156,8.789 41.0156,5.3711 C41.0156,1.9043 39.1113,0 35.5957,0 L19.873,0 C6.8359,0 -1.0658141e-14,6.7383 -1.0658141e-14,19.7265 L-1.0658141e-14,35.4004 C-1.0658141e-14,38.916 1.9043,40.8203 5.371,40.8203 Z M28.2226,68.5058 L55.8105,68.5547 L55.8105,95.70311 C55.8105,99.80467 57.8125,102.09959 61.3281,102.09959 C63.7695,102.09959 65.8691,100.53709 67.2363,97.412094 L94.9215,37.8906 C95.6055,36.3281 96.0445,34.9121 96.0445,33.6914 C96.0445,30.664 93.7015,28.3691 90.6245,28.3691 C89.4045,28.3691 87.9885,28.8086 86.4745,29.4433 L26.4648,57.2265 C23.6816,58.4961 22.2167,60.5957 22.2167,62.9883 C22.2167,66.3574 24.3164,68.5058 28.2226,68.5058 Z M37.7441,60.6445 L85.9865,38.3789 L63.7207,86.6699 L63.8183,64.5019 C63.8183,62.0117 62.3046,60.498 59.7656,60.5469 L37.7441,60.6445 Z M19.873,123.1445 L35.5957,123.1445 C39.1113,123.1445 41.0156,121.2402 41.0156,117.7734 C41.0156,114.3066 39.0625,112.4023 35.5957,112.4023 L20.5078,112.4023 C14.1601,112.4023 10.7421,109.082 10.7421,102.53905 L10.7421,87.74412 C10.7421,84.2285 8.8378,82.2754 5.371,82.2754 C1.8554,82.2754 -1.0658141e-14,84.2285 -1.0658141e-14,87.74412 L-1.0658141e-14,103.41795 C-1.0658141e-14,116.4062 6.8359,123.1445 19.873,123.1445 Z M87.5485,123.1445 L103.2715,123.1445 C116.3575,123.1445 123.1445,116.3574 123.1445,103.41795 L123.1445,87.74412 C123.1445,84.2285 121.2405,82.2754 117.7735,82.2754 C114.3065,82.2754 112.4025,84.2285 112.4025,87.74412 L112.4025,102.53905 C112.4025,109.082 108.8865,112.4023 102.6365,112.4023 L87.5485,112.4023 C84.0815,112.4023 82.1289,114.3066 82.1289,117.7734 C82.1289,121.2402 84.0815,123.1445 87.5485,123.1445 Z" id="Shape"></path>
                    </g>
                    <g id="Regular-L" transform="translate(886.521000, 839.345700)" fill="#15B70C" fill-rule="nonzero">
                        <path d="M117.2365,39.1114 C120.0685,39.1114 121.5815,37.5 121.5815,34.7168 L121.5815,18.7989 C121.5815,6.3965 115.2345,0 102.5875,0 L86.6695,0 C83.8867,0 82.2753,1.5625 82.2753,4.3457 C82.2753,7.0801 83.8867,8.6426 86.6695,8.6426 L102.3925,8.6426 C109.0815,8.6426 112.9395,12.2559 112.9395,19.2871 L112.9395,34.7168 C112.9395,37.5 114.5015,39.1114 117.2365,39.1114 Z M4.3457,39.1114 C7.1289,39.1114 8.6425,37.5 8.6425,34.7168 L8.6425,19.2871 C8.6425,12.2559 12.3535,8.6426 19.1894,8.6426 L34.9121,8.6426 C37.6953,8.6426 39.3066,7.0801 39.3066,4.3457 C39.3066,1.5625 37.6953,0 34.9121,0 L18.9941,0 C6.3964,0 3.55271368e-15,6.2989 3.55271368e-15,18.7989 L3.55271368e-15,34.7168 C3.55271368e-15,37.5 1.5625,39.1114 4.3457,39.1114 Z M26.7578,67.2852 L55.5175,67.334 L55.5664,95.556675 C55.5664,99.46292 57.373,101.56253 60.5468,101.56253 C62.7929,101.56253 64.746,100.09769 66.0156,97.168 L94.5315,35.9864 C95.1655,34.6192 95.5565,33.3008 95.5565,32.2266 C95.5565,29.3946 93.4565,27.295 90.6245,27.295 C89.5015,27.295 88.1835,27.6856 86.8655,28.2715 L25.2441,56.9336 C22.6562,58.1055 21.2402,60.0098 21.2402,62.2559 C21.2402,65.4297 23.1933,67.2852 26.7578,67.2852 Z M34.5214,60.2539 L86.8165,36.0352 L62.5976,88.42777 L62.6953,63.6231 C62.6953,61.5723 61.2793,60.1075 59.1308,60.1075 L34.5214,60.2539 Z M18.9941,121.5821 L34.9121,121.5821 C37.6953,121.5821 39.3066,120.0196 39.3066,117.2364 C39.3066,114.502 37.6953,112.9395 34.9121,112.9395 L19.1894,112.9395 C12.3535,112.9395 8.6425,109.3262 8.6425,102.29496 L8.6425,86.86527 C8.6425,84.0821 7.08,82.4707 4.3457,82.4707 C1.5136,82.4707 3.55271368e-15,84.0821 3.55271368e-15,86.86527 L3.55271368e-15,102.78324 C3.55271368e-15,115.2832 6.3964,121.5821 18.9941,121.5821 Z M86.6695,121.5821 L102.5875,121.5821 C115.2345,121.5821 121.5815,115.1856 121.5815,102.78324 L121.5815,86.86527 C121.5815,84.0821 120.0195,82.4707 117.2365,82.4707 C114.4535,82.4707 112.9395,84.0821 112.9395,86.86527 L112.9395,102.29496 C112.9395,109.3262 109.0815,112.9395 102.3925,112.9395 L86.6695,112.9395 C83.8867,112.9395 82.2753,114.502 82.2753,117.2364 C82.2753,120.0196 83.8867,121.5821 86.6695,121.5821 Z" id="Shape"></path>
                    </g>
                    <g id="Light-L" transform="translate(591.001000, 840.566400)" fill="#15B70C" fill-rule="nonzero">
                        <path d="M115.8695,37.7442 C118.0175,37.7442 119.1895,36.5235 119.1895,34.375 L119.1895,17.8711 C119.1895,6.1524 113.0855,0 101.2205,0 L84.6675,0 C82.5195,0 81.2988,1.1719 81.2988,3.3204 C81.2988,5.42 82.5195,6.5918 84.6675,6.5918 L101.0255,6.5918 C108.3495,6.5918 112.5485,10.5469 112.5485,18.2129 L112.5485,34.375 C112.5485,36.5235 113.7205,37.7442 115.8695,37.7442 Z M3.3203,37.7442 C5.4687,37.7442 6.6406,36.5235 6.6406,34.375 L6.6406,18.2129 C6.6406,10.5469 10.6445,6.5918 18.1152,6.5918 L34.5214,6.5918 C36.6699,6.5918 37.8906,5.42 37.8906,3.3204 C37.8906,1.1719 36.6699,0 34.5214,0 L17.9687,0 C6.1035,0 3.55271368e-15,6.0547 3.55271368e-15,17.8711 L3.55271368e-15,34.375 C3.55271368e-15,36.5235 1.1718,37.7442 3.3203,37.7442 Z M25.5859,65.4297 L55.6152,65.4786 L55.664,95.166053 C55.664,98.24222 57.2265,100.00004 59.7167,100.00004 C61.5234,100.00004 63.1347,98.82816 64.1601,96.53324 L93.3595,34.0821 C93.8965,33.0078 94.1895,31.8848 94.1895,31.0059 C94.1895,28.6621 92.5295,26.9532 90.1365,26.9532 C89.1605,26.9532 88.0855,27.295 87.0605,27.7344 L24.2675,57.0313 C22.2167,58.0078 21.0449,59.5704 21.0449,61.3282 C21.0449,63.8672 22.705,65.4297 25.5859,65.4297 Z M31.25,59.8633 L87.4515,33.7403 L61.2304,89.89262 L61.2793,62.793 C61.2793,60.9864 60.1562,59.7657 58.2031,59.7657 L31.25,59.8633 Z M17.9687,119.1895 L34.5214,119.1895 C36.6699,119.1895 37.8906,118.0176 37.8906,115.8692 C37.8906,113.7207 36.6699,112.5489 34.5214,112.5489 L18.1152,112.5489 C10.6445,112.5489 6.6406,108.5938 6.6406,100.9766 L6.6406,84.81449 C6.6406,82.6172 5.4199,81.3965 3.3203,81.3965 C1.1718,81.3965 3.55271368e-15,82.6172 3.55271368e-15,84.81449 L3.55271368e-15,101.3184 C3.55271368e-15,113.1348 6.1035,119.1895 17.9687,119.1895 Z M84.6675,119.1895 L101.2205,119.1895 C113.0855,119.1895 119.1895,113.0371 119.1895,101.3184 L119.1895,84.81449 C119.1895,82.6172 118.0175,81.3965 115.8695,81.3965 C113.7205,81.3965 112.5485,82.6172 112.5485,84.81449 L112.5485,100.9766 C112.5485,108.5938 108.3495,112.5489 101.0255,112.5489 L84.6675,112.5489 C82.5195,112.5489 81.2988,113.7207 81.2988,115.8692 C81.2988,118.0176 82.5195,119.1895 84.6675,119.1895 Z" id="Shape"></path>
                    </g>
                    <g id="Thin-L" transform="translate(295.881000, 842.177800)" fill="#15B70C" fill-rule="nonzero">
                        <path d="M114.0625,35.9863 C115.3315,35.9863 116.0155,35.2539 116.0155,33.9843 L116.0155,16.6015 C116.0155,5.8593 110.2535,0 99.4145,0 L82.0312,0 C80.7128,0 79.9804,0.6836 79.9804,1.9531 C79.9804,3.2226 80.7128,3.9062 82.0312,3.9062 L99.2185,3.9062 C107.3735,3.9062 112.0605,8.3007 112.0605,16.7968 L112.0605,33.9843 C112.0605,35.2539 112.7445,35.9863 114.0625,35.9863 Z M1.9531,35.9863 C3.2226,35.9863 3.9062,35.2539 3.9062,33.9843 L3.9062,16.7968 C3.9062,8.3007 8.3496,3.9062 16.748,3.9062 L33.9843,3.9062 C35.2539,3.9062 36.0351,3.2226 36.0351,1.9531 C36.0351,0.6836 35.2539,0 33.9843,0 L16.6015,0 C5.7128,0 3.55271368e-15,5.7129 3.55271368e-15,16.6015 L3.55271368e-15,33.9843 C3.55271368e-15,35.2539 0.6835,35.9863 1.9531,35.9863 Z M24.0722,62.9882 L55.8105,63.0371 L55.8105,94.62887 C55.8105,96.63082 57.0312,97.94918 58.6425,97.94918 C59.8144,97.94918 60.9863,97.16793 61.6699,95.70309 L91.7965,31.5429 C92.1875,30.8105 92.4315,30.0293 92.4315,29.3945 C92.4315,27.6855 91.2595,26.5136 89.4535,26.5136 C88.7695,26.5136 87.9885,26.7578 87.3045,27.0507 L23.0468,57.2265 C21.6308,57.8613 20.8496,59.0332 20.8496,60.1562 C20.8496,61.7675 22.0703,62.9882 24.0722,62.9882 Z M26.9043,59.375 L88.2815,30.664 L59.4726,91.79684 L59.4726,61.6699 C59.4726,60.205 58.6425,59.3261 56.9824,59.3261 L26.9043,59.375 Z M16.6015,116.0156 L33.9843,116.0156 C35.2539,116.0156 36.0351,115.332 36.0351,114.0136 C36.0351,112.7441 35.2539,112.0605 33.9843,112.0605 L16.748,112.0605 C8.3496,112.0605 3.9062,107.666 3.9062,99.21872 L3.9062,82.0312 C3.9062,80.7617 3.2226,79.9804 1.9531,79.9804 C0.6835,79.9804 3.55271368e-15,80.7617 3.55271368e-15,82.0312 L3.55271368e-15,99.41403 C3.55271368e-15,110.3027 5.7128,116.0156 16.6015,116.0156 Z M82.0312,116.0156 L99.4145,116.0156 C110.2535,116.0156 116.0155,110.1562 116.0155,99.41403 L116.0155,82.0312 C116.0155,80.7617 115.3315,79.9804 114.0625,79.9804 C112.7445,79.9804 112.0605,80.7617 112.0605,82.0312 L112.0605,99.21872 C112.0605,107.666 107.3735,112.0605 99.2185,112.0605 L82.0312,112.0605 C80.7128,112.0605 79.9804,112.7441 79.9804,114.0136 C79.9804,115.332 80.7128,116.0156 82.0312,116.0156 Z" id="Shape"></path>
                    </g>
                    <g id="Ultralight-L" transform="translate(0.000000, 843.007800)" fill="#15B70C" fill-rule="nonzero">
                        <path d="M113.0855,35.1075 C113.9155,35.1075 114.3555,34.5704 114.3555,33.7403 L114.3555,15.918 C114.3555,5.7129 108.8375,0 98.4865,0 L80.664,0 C79.8339,0 79.2968,0.4395 79.2968,1.2696 C79.2968,2.0997 79.8339,2.5391 80.664,2.5391 L98.2905,2.5391 C106.8845,2.5391 111.8165,7.1778 111.8165,16.0645 L111.8165,33.7403 C111.8165,34.5704 112.2555,35.1075 113.0855,35.1075 Z M1.2695,35.1075 C2.0996,35.1075 2.539,34.5704 2.539,33.7403 L2.539,16.0645 C2.539,7.1778 7.1289,2.5391 16.0644,2.5391 L33.7402,2.5391 C34.5703,2.5391 35.1074,2.0997 35.1074,1.2696 C35.1074,0.4395 34.5703,0 33.7402,0 L15.9179,0 C5.5175,0 7.10542736e-15,5.5176 7.10542736e-15,15.918 L7.10542736e-15,33.7403 C7.10542736e-15,34.5704 0.4394,35.1075 1.2695,35.1075 Z M23.291,61.7188 L55.9082,61.8164 L55.8593,94.33598 C55.8593,95.80082 56.9335,96.87504 58.0566,96.87504 C58.9843,96.87504 59.9121,96.33793 60.3515,95.26372 L91.0155,30.2735 C91.3085,29.6875 91.5035,29.0528 91.5035,28.5645 C91.5035,27.1973 90.5765,26.2696 89.1605,26.2696 C88.5745,26.2696 87.8905,26.4649 87.4515,26.6602 L22.4121,57.2754 C21.3867,57.7637 20.7519,58.7403 20.7519,59.5215 C20.7519,60.6934 21.7285,61.7188 23.291,61.7188 Z M24.707,59.1309 L88.7205,29.0528 L58.5449,92.773481 L58.5449,61.084 C58.5449,59.8145 57.9101,59.0821 56.3476,59.0821 L24.707,59.1309 Z M15.9179,114.3555 L33.7402,114.3555 C34.5703,114.3555 35.1074,113.9161 35.1074,113.086 C35.1074,112.2559 34.5703,111.8164 33.7402,111.8164 L16.0644,111.8164 C7.1289,111.8164 2.539,107.2266 2.539,98.29106 L2.539,80.6153 C2.539,79.7852 2.0996,79.2481 1.2695,79.2481 C0.4394,79.2481 7.10542736e-15,79.7852 7.10542736e-15,80.6153 L7.10542736e-15,98.43754 C7.10542736e-15,108.8379 5.5175,114.3555 15.9179,114.3555 Z M80.664,114.3555 L98.4865,114.3555 C108.8375,114.3555 114.3555,108.6426 114.3555,98.43754 L114.3555,80.6153 C114.3555,79.7852 113.9155,79.2481 113.0855,79.2481 C112.2555,79.2481 111.8165,79.7852 111.8165,80.6153 L111.8165,98.29106 C111.8165,107.2266 106.8845,111.8164 98.2905,111.8164 L80.664,111.8164 C79.8339,111.8164 79.2968,112.2559 79.2968,113.086 C79.2968,113.9161 79.8339,114.3555 80.664,114.3555 Z" id="Shape"></path>
                    </g>
                    <g id="Black-M" transform="translate(2379.647700, 418.867200)" fill="#15B70C" fill-rule="nonzero">
                        <path d="M93.3108,40.1856 C99.2188,40.1856 102.4418,37.0117 102.4418,31.0059 L102.4418,19.5313 C102.4418,7.2754 95.1658,0 82.9101,0 L71.4843,0 C65.4785,0 62.2558,3.2227 62.2558,9.1309 C62.2558,15.0879 65.5273,18.2617 71.4843,18.2617 L79.9804,18.2617 C82.8125,18.2617 84.1797,19.3848 84.1797,22.461 L84.1797,31.0059 C84.1797,37.0117 87.4023,40.1856 93.3108,40.1856 Z M9.1308,40.1856 C15.0879,40.1856 18.3105,36.9141 18.3105,31.0059 L18.3105,22.461 C18.3105,19.3848 19.6289,18.2617 22.4609,18.2617 L31.0058,18.2617 C36.9629,18.2617 40.1855,15.0879 40.1855,9.1309 C40.1855,3.2227 36.9629,0 31.0058,0 L19.5312,0 C7.2754,0 0,7.2754 0,19.5313 L0,31.0059 C0,37.0117 3.2226,40.1856 9.1308,40.1856 Z M29.0527,58.6914 L44.8242,58.6914 L44.8242,74.6582 C44.8242,78.71096 47.1679,81.15236 51.0254,81.15236 C53.8574,81.15236 56.2988,79.44338 57.5683,76.56252 L74.8047,38.4766 C75.6836,36.4258 76.123,34.8633 76.123,33.4961 C76.123,30.127 73.3886,27.4414 70.0195,27.4414 C68.6035,27.4414 66.9922,27.8809 65.039,28.7598 L26.416,46.1914 C23.6816,47.4121 22.3633,49.9024 22.3633,52.3438 C22.3633,55.6153 24.6093,58.6914 29.0527,58.6914 Z M44.6289,48.9746 L62.6953,40.8203 L54.541,58.8379 L54.5898,54.2481 C54.6875,50.1953 53.3203,48.8281 49.2676,48.9258 L44.6289,48.9746 Z M19.5312,102.4414 L31.0058,102.4414 C36.9629,102.4414 40.1855,99.2188 40.1855,93.31057 C40.1855,87.402362 36.914,84.17971 31.0058,84.17971 L22.4609,84.17971 C19.6289,84.17971 18.3105,83.05666 18.3105,79.98049 L18.3105,71.4356 C18.3105,65.4785 15.0879,62.2559 9.1308,62.2559 C3.2226,62.2559 0,65.4785 0,71.4356 L0,82.91018 C0,95.16603 7.2754,102.4414 19.5312,102.4414 Z M71.4843,102.4414 L82.9101,102.4414 C95.1658,102.4414 102.4418,95.16603 102.4418,82.91018 L102.4418,71.4356 C102.4418,65.4785 99.2678,62.2559 93.3108,62.2559 C87.4023,62.2559 84.1797,65.5274 84.1797,71.4356 L84.1797,79.98049 C84.1797,83.05666 82.8125,84.17971 79.9804,84.17971 L71.4843,84.17971 C65.4785,84.17971 62.2558,87.402362 62.2558,93.31057 C62.2558,99.2188 65.4785,102.4414 71.4843,102.4414 Z" id="Shape"></path>
                    </g>
                    <g id="Heavy-M" transform="translate(2083.737700, 419.697300)" fill="#15B70C" fill-rule="nonzero">
                        <path d="M92.9198,38.0371 C98.0468,38.0371 100.8298,35.2539 100.8298,30.0781 L100.8298,18.457 C100.8298,6.7383 94.0918,0 82.3242,0 L70.7031,0 C65.5273,0 62.7441,2.7832 62.7441,7.9102 C62.7441,13.0371 65.5761,15.8203 70.7031,15.8203 L80.0293,15.8203 C83.3496,15.8203 85.0097,17.2363 85.0097,20.8008 L85.0097,30.0781 C85.0097,35.2539 87.7928,38.0371 92.9198,38.0371 Z M7.9101,38.0371 C13.0371,38.0371 15.8203,35.2051 15.8203,30.0781 L15.8203,20.8008 C15.8203,17.2363 17.4804,15.8203 20.8008,15.8203 L30.1269,15.8203 C35.3027,15.8203 38.0859,13.0371 38.0859,7.9102 C38.0859,2.7832 35.3027,0 30.1269,0 L18.5547,0 C6.7871,0 0,6.7383 0,18.457 L0,30.0781 C0,35.2539 2.7832,38.0371 7.9101,38.0371 Z M27.2461,57.373 L44.3847,57.373 L44.3847,74.5605 C44.3847,78.46679 46.5332,80.76172 50.1465,80.76172 C52.7832,80.76172 55.0781,79.15039 56.3476,76.31836 L74.6093,36.1816 C75.4394,34.375 75.83,32.9102 75.83,31.6406 C75.83,28.4668 73.291,25.9766 70.1172,25.9766 C68.8476,25.9766 67.334,26.416 65.5761,27.1973 L24.9023,45.6543 C22.2656,46.875 20.9961,49.1699 20.9961,51.5137 C20.9961,54.6387 23.0957,57.373 27.2461,57.373 Z M40.8203,48.4863 L63.7207,38.0859 L53.3203,60.8887 L53.3691,53.1738 C53.4179,49.707 52.0996,48.3398 48.584,48.3887 L40.8203,48.4863 Z M18.5547,100.8301 L30.1269,100.8301 C35.3027,100.8301 38.0859,98.0469 38.0859,92.91992 C38.0859,87.79297 35.2539,85.009762 30.1269,85.009762 L20.8008,85.009762 C17.4804,85.009762 15.8203,83.54492 15.8203,79.98047 L15.8203,70.7519 C15.8203,65.5762 13.0371,62.793 7.9101,62.793 C2.7832,62.793 0,65.5762 0,70.7519 L0,82.32422 C0,94.09179 6.7871,100.8301 18.5547,100.8301 Z M70.7031,100.8301 L82.3242,100.8301 C94.0918,100.8301 100.8298,94.04297 100.8298,82.32422 L100.8298,70.7519 C100.8298,65.5762 98.0468,62.793 92.9198,62.793 C87.7928,62.793 85.0097,65.625 85.0097,70.7519 L85.0097,79.98047 C85.0097,83.54492 83.3496,85.009762 80.0293,85.009762 L70.7031,85.009762 C65.5273,85.009762 62.7441,87.79297 62.7441,92.91992 C62.7441,98.0469 65.5273,100.8301 70.7031,100.8301 Z" id="Shape"></path>
                    </g>
                    <g id="Bold-M" transform="translate(1787.927700, 420.576200)" fill="#15B70C" fill-rule="nonzero">
                        <path d="M92.4808,35.6445 C96.7288,35.6445 99.0238,33.3496 99.0238,29.0527 L99.0238,17.334 C99.0238,6.2012 92.8218,0 81.5918,0 L69.873,0 C65.625,0 63.2812,2.3438 63.2812,6.543 C63.2812,10.791 65.625,13.0859 69.873,13.0859 L80.0781,13.0859 C83.8867,13.0859 85.9375,14.9414 85.9375,18.9941 L85.9375,29.0527 C85.9375,33.3496 88.2808,35.6445 92.4808,35.6445 Z M6.5429,35.6445 C10.791,35.6445 13.0859,33.3008 13.0859,29.0527 L13.0859,18.9941 C13.0859,14.9414 15.0879,13.0859 18.9453,13.0859 L29.1504,13.0859 C33.3984,13.0859 35.7422,10.791 35.7422,6.543 C35.7422,2.3438 33.3984,0 29.1504,0 L17.4316,0 C6.2011,0 0,6.1523 0,17.334 L0,29.0527 C0,33.3496 2.2949,35.6445 6.5429,35.6445 Z M25.1953,55.957 L43.8965,55.957 L43.8965,74.5117 C43.8965,78.27149 45.8496,80.41992 49.2187,80.41992 C51.6113,80.41992 53.6621,78.90625 54.9316,76.12305 L74.3652,33.7402 C75.0976,32.1289 75.4883,30.7617 75.4883,29.5898 C75.4883,26.6602 73.1933,24.4141 70.2636,24.4141 C69.0918,24.4141 67.6758,24.8047 66.1621,25.4883 L23.2422,45.1172 C20.7031,46.2891 19.4336,48.3398 19.4336,50.5859 C19.4336,53.6133 21.4355,55.957 25.1953,55.957 Z M36.6211,47.9492 L64.7949,35.0586 L51.9043,63.2813 L52.0019,52.0508 C52.0019,49.1699 50.7324,47.8516 47.8027,47.8516 L36.6211,47.9492 Z M17.4316,99.0234 L29.1504,99.0234 C33.3984,99.0234 35.7422,96.7285 35.7422,92.48047 C35.7422,88.28125 33.3984,85.98633 29.1504,85.98633 L18.9453,85.98633 C15.0879,85.98633 13.0859,84.130862 13.0859,80.0293 L13.0859,70.0195 C13.0859,65.7227 10.7422,63.4277 6.5429,63.4277 C2.2949,63.4277 0,65.7227 0,70.0195 L0,81.68946 C0,92.8711 6.2011,99.0234 17.4316,99.0234 Z M69.873,99.0234 L81.5918,99.0234 C92.8218,99.0234 99.0238,92.8711 99.0238,81.68946 L99.0238,70.0195 C99.0238,65.7227 96.7288,63.4277 92.4808,63.4277 C88.2328,63.4277 85.9375,65.7715 85.9375,70.0195 L85.9375,80.0293 C85.9375,84.130862 83.8867,85.98633 80.0781,85.98633 L69.873,85.98633 C65.625,85.98633 63.2812,88.28125 63.2812,92.48047 C63.2812,96.7285 65.625,99.0234 69.873,99.0234 Z" id="Shape"></path>
                    </g>
                    <g id="Semibold-M" transform="translate(1491.857700, 421.211000)" fill="#15B70C" fill-rule="nonzero">
                        <path d="M92.1878,33.9843 C95.8008,33.9843 97.7538,31.9824 97.7538,28.3203 L97.7538,16.5527 C97.7538,5.7617 91.9918,0 81.1035,0 L69.3359,0 C65.6738,0 63.6718,2.0019 63.6718,5.6152 C63.6718,9.1797 65.6738,11.1816 69.3359,11.1816 L80.0781,11.1816 C84.2773,11.1816 86.6211,13.33 86.6211,17.7246 L86.6211,28.3203 C86.6211,31.9824 88.5738,33.9843 92.1878,33.9843 Z M5.5664,33.9843 C9.2285,33.9843 11.1816,31.9824 11.1816,28.3203 L11.1816,17.7246 C11.1816,13.33 13.4277,11.1816 17.6758,11.1816 L28.4668,11.1816 C32.1289,11.1816 34.082,9.1797 34.082,5.6152 C34.082,2.0019 32.1289,0 28.4668,0 L16.6504,0 C5.8105,0 0,5.7617 0,16.5527 L0,28.3203 C0,31.9824 2.0019,33.9843 5.5664,33.9843 Z M23.8281,54.9316 L43.5547,54.9804 L43.5547,74.41403 C43.5547,78.07614 45.3613,80.12692 48.584,80.12692 C50.83,80.12692 52.7343,78.66208 53.955,75.97653 L74.2187,31.9824 C74.9023,30.5175 75.2441,29.248 75.2441,28.1738 C75.2441,25.3906 73.0957,23.291 70.3613,23.291 C69.2383,23.291 67.9687,23.6816 66.5527,24.3164 L22.1191,44.7265 C19.6777,45.8496 18.4082,47.7539 18.4082,49.9023 C18.4082,52.8808 20.2636,54.9316 23.8281,54.9316 Z M33.6914,47.5586 L65.5761,32.959 L50.9277,64.8925 L51.0254,51.2207 C51.0742,48.7304 49.7558,47.4609 47.2656,47.4609 L33.6914,47.5586 Z M16.6504,97.8027 L28.4668,97.8027 C32.1289,97.8027 34.082,95.8008 34.082,92.18747 C34.082,88.57419 32.08,86.62106 28.4668,86.62106 L17.6758,86.62106 C13.4277,86.62106 11.1816,84.472625 11.1816,80.02927 L11.1816,69.4824 C11.1816,65.8203 9.1797,63.8183 5.5664,63.8183 C1.9531,63.8183 0,65.8203 0,69.4824 L0,81.24997 C0,92.04098 5.8105,97.8027 16.6504,97.8027 Z M69.3359,97.8027 L81.1035,97.8027 C91.9918,97.8027 97.7538,91.99216 97.7538,81.24997 L97.7538,69.4824 C97.7538,65.8203 95.8008,63.8183 92.1878,63.8183 C88.5738,63.8183 86.6211,65.8203 86.6211,69.4824 L86.6211,80.02927 C86.6211,84.472625 84.2773,86.62106 80.0781,86.62106 L69.3359,86.62106 C65.6738,86.62106 63.6718,88.57419 63.6718,92.18747 C63.6718,95.8008 65.6738,97.8027 69.3359,97.8027 Z" id="Shape"></path>
                    </g>
                    <g id="Medium-M" transform="translate(1195.607700, 421.699200)" fill="#15B70C" fill-rule="nonzero">
                        <path d="M91.9438,32.7149 C95.1168,32.7149 96.8258,30.9571 96.8258,27.7833 L96.8258,15.918 C96.8258,5.4688 91.3578,0 80.7617,0 L68.8965,0 C65.7226,0 63.9648,1.709 63.9648,4.8829 C63.9648,8.0079 65.7226,9.7168 68.8965,9.7168 L80.1269,9.7168 C84.5703,9.7168 87.1093,12.0606 87.1093,16.7969 L87.1093,27.7833 C87.1093,30.9571 88.8188,32.7149 91.9438,32.7149 Z M4.8828,32.7149 C8.0566,32.7149 9.7168,30.9571 9.7168,27.7833 L9.7168,16.7969 C9.7168,12.0606 12.207,9.7168 16.6992,9.7168 L27.9297,9.7168 C31.1035,9.7168 32.8613,8.0079 32.8613,4.8829 C32.8613,1.709 31.1035,0 27.9297,0 L16.0644,0 C5.5176,0 0,5.42 0,15.918 L0,27.7833 C0,30.9571 1.7578,32.7149 4.8828,32.7149 Z M22.7539,54.1504 L43.2617,54.1993 L43.3105,74.36528 C43.3105,77.92974 45.0195,79.88286 48.0468,79.88286 C50.1953,79.88286 52.0019,78.51568 53.2226,75.83013 L74.1211,30.6641 C74.707,29.3458 75.0488,28.125 75.0488,27.0508 C75.0488,24.4629 73.0468,22.461 70.4101,22.461 C69.3847,22.461 68.164,22.8028 66.8457,23.3887 L21.2402,44.4336 C18.8476,45.5079 17.5781,47.3145 17.5781,49.4141 C17.5781,52.3438 19.3847,54.1504 22.7539,54.1504 Z M31.4941,47.2657 L66.1621,31.3477 L50.2441,66.1133 L50.2929,50.586 C50.3418,48.4376 49.0722,47.168 46.875,47.168 L31.4941,47.2657 Z M16.0644,96.8262 L27.9297,96.8262 C31.1035,96.8262 32.8613,95.0684 32.8613,91.94341 C32.8613,88.81841 31.1035,87.0606 27.9297,87.0606 L16.6992,87.0606 C12.207,87.0606 9.7168,84.76568 9.7168,80.02935 L9.7168,69.043 C9.7168,65.8692 8.0078,64.1114 4.8828,64.1114 C1.709,64.1114 0,65.8692 0,69.043 L0,80.90825 C0,91.35747 5.5176,96.8262 16.0644,96.8262 Z M68.8965,96.8262 L80.7617,96.8262 C91.3578,96.8262 96.8258,91.35747 96.8258,80.90825 L96.8258,69.043 C96.8258,65.8692 95.0688,64.1114 91.9438,64.1114 C88.7698,64.1114 87.1093,65.8692 87.1093,69.043 L87.1093,80.02935 C87.1093,84.76568 84.5703,87.0606 80.1269,87.0606 L68.8965,87.0606 C65.7226,87.0606 63.9648,88.81841 63.9648,91.94341 C63.9648,95.0684 65.7226,96.8262 68.8965,96.8262 Z" id="Shape"></path>
                    </g>
                    <g id="Regular-M" transform="translate(899.507700, 422.334000)" fill="#15B70C" fill-rule="nonzero">
                        <path d="M91.6508,31.0547 C94.2378,31.0547 95.6058,29.5899 95.6058,27.0508 L95.6058,15.0879 C95.6058,5.0293 90.4788,0 80.2734,0 L68.3105,0 C65.7715,0 64.3554,1.3672 64.3554,3.9063 C64.3554,6.4453 65.7715,7.8613 68.3105,7.8613 L80.1269,7.8613 C84.9609,7.8613 87.7438,10.4492 87.7438,15.5274 L87.7438,27.0508 C87.7438,29.5899 89.1598,31.0547 91.6508,31.0547 Z M3.9062,31.0547 C6.4941,31.0547 7.8613,29.5899 7.8613,27.0508 L7.8613,15.5274 C7.8613,10.4492 10.5468,7.8613 15.4297,7.8613 L27.2461,7.8613 C29.834,7.8613 31.25,6.4453 31.25,3.9063 C31.25,1.3672 29.834,0 27.2461,0 L15.332,0 C5.1269,0 0,5.0293 0,15.0879 L0,27.0508 C0,29.5899 1.416,31.0547 3.9062,31.0547 Z M21.3867,53.1738 L42.9199,53.2227 L42.9687,74.26759 C42.9687,77.73439 44.5312,79.58986 47.4121,79.58986 C49.414,79.58986 51.0742,78.2715 52.2461,75.68361 L73.9746,28.9551 C74.5117,27.7344 74.8535,26.6113 74.8535,25.6348 C74.8535,23.1934 72.998,21.3379 70.5078,21.3379 C69.5312,21.3379 68.4082,21.6797 67.2363,22.2168 L20.1172,43.9942 C17.7734,45.0684 16.5527,46.7285 16.5527,48.7305 C16.5527,51.6113 18.2617,53.1738 21.3867,53.1738 Z M28.6133,46.875 L66.9433,29.2481 L49.2676,67.6758 L49.3652,49.7559 C49.3652,48.0469 48.1445,46.7774 46.3379,46.7774 L28.6133,46.875 Z M15.332,95.5567 L27.2461,95.5567 C29.834,95.5567 31.25,94.1406 31.25,91.65041 C31.25,89.11134 29.834,87.69533 27.2461,87.69533 L15.4297,87.69533 C10.5468,87.69533 7.8613,85.10744 7.8613,80.02931 L7.8613,68.5059 C7.8613,65.918 6.4453,64.502 3.9062,64.502 C1.3672,64.502 0,65.918 0,68.5059 L0,80.41994 C0,90.52736 5.1269,95.5567 15.332,95.5567 Z M68.3105,95.5567 L80.2734,95.5567 C90.4788,95.5567 95.6058,90.47853 95.6058,80.41994 L95.6058,68.5059 C95.6058,65.918 94.1898,64.502 91.6508,64.502 C89.1108,64.502 87.7438,65.918 87.7438,68.5059 L87.7438,80.02931 C87.7438,85.10744 84.9609,87.69533 80.1269,87.69533 L68.3105,87.69533 C65.7715,87.69533 64.3554,89.11134 64.3554,91.65041 C64.3554,94.1406 65.7715,95.5567 68.3105,95.5567 Z" id="Shape"></path>
                    </g>
                    <g id="Light-M" transform="translate(603.867700, 423.408200)" fill="#15B70C" fill-rule="nonzero">
                        <path d="M90.4298,29.8828 C92.3828,29.8828 93.4568,28.7598 93.4568,26.8067 L93.4568,14.2578 C93.4568,4.8828 88.5738,0 79.0527,0 L66.5039,0 C64.5508,0 63.4277,1.0743 63.4277,3.0274 C63.4277,4.9317 64.5508,6.0547 66.5039,6.0547 L78.9062,6.0547 C84.3261,6.0547 87.4023,8.9356 87.4023,14.5996 L87.4023,26.8067 C87.4023,28.7598 88.4768,29.8828 90.4298,29.8828 Z M3.0273,29.8828 C4.9804,29.8828 6.0547,28.7598 6.0547,26.8067 L6.0547,14.5996 C6.0547,8.9356 9.0332,6.0547 14.5019,6.0547 L26.9043,6.0547 C28.9062,6.0547 29.9804,4.9317 29.9804,3.0274 C29.9804,1.0743 28.9062,0 26.9043,0 L14.4043,0 C4.8828,0 0,4.834 0,14.2578 L0,26.8067 C0,28.7598 1.0742,29.8828 3.0273,29.8828 Z M20.3613,51.5137 L43.0664,51.5625 L43.1152,73.92582 C43.1152,76.66019 44.4336,78.22269 46.6797,78.22269 C48.2422,78.22269 49.6582,77.14847 50.5371,75.09769 L72.9004,27.2461 C73.3398,26.3184 73.6328,25.3418 73.6328,24.5606 C73.6328,22.5586 72.1191,21.045 70.0683,21.045 C69.2383,21.045 68.3105,21.3379 67.3828,21.7286 L19.2383,44.1407 C17.4316,45.0196 16.4062,46.3379 16.4062,47.9493 C16.4062,50.1953 17.8222,51.5137 20.3613,51.5137 Z M25.6836,46.5821 L67.4804,27.1973 L48.0468,68.9942 L48.1445,49.0235 C48.1445,47.5098 47.1191,46.4844 45.5078,46.4844 L25.6836,46.5821 Z M14.4043,93.4571 L26.9043,93.4571 C28.9062,93.4571 29.9804,92.334 29.9804,90.42972 C29.9804,88.4766 28.9062,87.40238 26.9043,87.40238 L14.5019,87.40238 C9.0332,87.40238 6.0547,84.47269 6.0547,78.85746 L6.0547,66.6504 C6.0547,64.6973 4.9804,63.5743 3.0273,63.5743 C1.0254,63.5743 0,64.6973 0,66.6504 L0,79.15042 C0,88.62308 4.8828,93.4571 14.4043,93.4571 Z M66.5039,93.4571 L79.0527,93.4571 C88.5738,93.4571 93.4568,88.57425 93.4568,79.15042 L93.4568,66.6504 C93.4568,64.6973 92.3338,63.5743 90.4298,63.5743 C88.4278,63.5743 87.4023,64.6973 87.4023,66.6504 L87.4023,78.85746 C87.4023,84.47269 84.3261,87.40238 78.9062,87.40238 L66.5039,87.40238 C64.5508,87.40238 63.4277,88.4766 63.4277,90.42972 C63.4277,92.334 64.5508,93.4571 66.5039,93.4571 Z" id="Shape"></path>
                    </g>
                    <g id="Thin-M" transform="translate(308.600700, 424.873100)" fill="#15B70C" fill-rule="nonzero">
                        <path d="M88.7698,28.2715 C89.9418,28.2715 90.5758,27.5879 90.5758,26.416 L90.5758,13.0859 C90.5758,4.5898 86.084,0 77.4414,0 L64.1113,0 C62.9394,0 62.2558,0.6347 62.2558,1.8066 C62.2558,2.9785 62.9394,3.6133 64.1113,3.6133 L77.2949,3.6133 C83.4472,3.6133 86.9629,6.9336 86.9629,13.2812 L86.9629,26.416 C86.9629,27.5879 87.5978,28.2715 88.7698,28.2715 Z M1.8066,28.2715 C2.9785,28.2715 3.6133,27.5879 3.6133,26.416 L3.6133,13.2812 C3.6133,6.9336 6.9336,3.6133 13.2812,3.6133 L26.4648,3.6133 C27.6367,3.6133 28.3203,2.9785 28.3203,1.8066 C28.3203,0.6347 27.6367,0 26.4648,0 L13.1836,0 C4.541,0 0,4.4922 0,13.0859 L0,26.416 C0,27.5879 0.6347,28.2715 1.8066,28.2715 Z M18.9941,49.3164 L43.2129,49.3652 L43.2129,73.43748 C43.2129,75.19529 44.2383,76.31834 45.7031,76.31834 C46.7285,76.31834 47.7539,75.63474 48.3398,74.31638 L71.4843,24.9511 C71.8261,24.3164 72.0215,23.6328 72.0215,23.0957 C72.0215,21.6308 70.9961,20.6054 69.4824,20.6054 C68.8965,20.6054 68.2129,20.8496 67.6269,21.0937 L18.1152,44.2871 C16.8945,44.873 16.2109,45.8496 16.2109,46.875 C16.2109,48.291 17.2363,49.3164 18.9941,49.3164 Z M21.7773,46.1426 L68.2129,24.414 L46.4843,70.7031 L46.4843,47.998 C46.4843,46.8261 45.8008,46.0449 44.4336,46.0449 L21.7773,46.1426 Z M13.1836,90.5761 L26.4648,90.5761 C27.6367,90.5761 28.3203,89.94138 28.3203,88.76951 C28.3203,87.59763 27.6367,86.96287 26.4648,86.96287 L13.2812,86.96287 C6.9336,86.96287 3.6133,83.64256 3.6133,77.24607 L3.6133,64.1601 C3.6133,62.9883 2.9785,62.2558 1.8066,62.2558 C0.6347,62.2558 0,62.9883 0,64.1601 L0,77.44138 C0,86.08396 4.541,90.5761 13.1836,90.5761 Z M64.1113,90.5761 L77.4414,90.5761 C86.084,90.5761 90.5758,85.93748 90.5758,77.44138 L90.5758,64.1601 C90.5758,62.9883 89.9418,62.2558 88.7698,62.2558 C87.5978,62.2558 86.9629,62.9883 86.9629,64.1601 L86.9629,77.24607 C86.9629,83.64256 83.4472,86.96287 77.2949,86.96287 L64.1113,86.96287 C62.9394,86.96287 62.2558,87.59763 62.2558,88.76951 C62.2558,89.94138 62.9394,90.5761 64.1113,90.5761 Z" id="Shape"></path>
                    </g>
                    <g id="Ultralight-M" transform="translate(12.621700, 425.605500)" fill="#15B70C" fill-rule="nonzero">
                        <path d="M87.9398,27.4902 C88.7208,27.4902 89.1108,27.002 89.1108,26.2207 L89.1108,12.5488 C89.1108,4.4434 84.7656,0 76.6113,0 L62.8906,0 C62.1093,0 61.6699,0.3906 61.6699,1.1719 C61.6699,1.9531 62.1093,2.3926 62.8906,2.3926 L76.4648,2.3926 C82.959,2.3926 86.7187,5.9082 86.7187,12.6465 L86.7187,26.2207 C86.7187,27.002 87.1582,27.4902 87.9398,27.4902 Z M1.1718,27.4902 C1.9531,27.4902 2.3926,27.002 2.3926,26.2207 L2.3926,12.6465 C2.3926,5.9082 5.9082,2.3926 12.6465,2.3926 L26.2207,2.3926 C27.0019,2.3926 27.4902,1.9531 27.4902,1.1719 C27.4902,0.3906 27.0019,0 26.2207,0 L12.5488,0 C4.3457,0 0,4.3457 0,12.5488 L0,26.2207 C0,27.002 0.4394,27.4902 1.1718,27.4902 Z M18.3105,48.1934 L43.3105,48.2422 L43.3105,73.19336 C43.3105,74.46289 44.1406,75.39062 45.166,75.39062 C45.9472,75.39062 46.7773,74.90234 47.1679,73.92578 L70.7519,23.8281 C70.9961,23.3398 71.1914,22.8027 71.1914,22.3633 C71.1914,21.1914 70.4101,20.4102 69.1894,20.4102 C68.7011,20.4102 68.164,20.6055 67.7246,20.8008 L17.5781,44.3848 C16.6504,44.7754 16.1133,45.6055 16.1133,46.2891 C16.1133,47.3145 16.9433,48.1934 18.3105,48.1934 Z M19.8242,45.8984 L68.6035,22.998 L45.6543,71.63086 L45.6543,47.5098 C45.6543,46.4355 45.1172,45.8496 43.8476,45.8496 L19.8242,45.8984 Z M12.5488,89.11133 L26.2207,89.11133 C27.0019,89.11133 27.4902,88.7207 27.4902,87.93945 C27.4902,87.1582 27.0019,86.71875 26.2207,86.71875 L12.6465,86.71875 C5.9082,86.71875 2.3926,83.20312 2.3926,76.46484 L2.3926,62.8906 C2.3926,62.1094 1.9531,61.6211 1.1718,61.6211 C0.4394,61.6211 0,62.1094 0,62.8906 L0,76.5625 C0,84.76562 4.3457,89.11133 12.5488,89.11133 Z M62.8906,89.11133 L76.6113,89.11133 C84.7656,89.11133 89.1108,84.61914 89.1108,76.5625 L89.1108,62.8906 C89.1108,62.1094 88.7208,61.6211 87.9398,61.6211 C87.1582,61.6211 86.7187,62.1094 86.7187,62.8906 L86.7187,76.46484 C86.7187,83.20312 82.959,86.71875 76.4648,86.71875 L62.8906,86.71875 C62.1093,86.71875 61.6699,87.1582 61.6699,87.93945 C61.6699,88.7207 62.1093,89.11133 62.8906,89.11133 Z" id="Shape"></path>
                    </g>
                    <g id="Black-S" transform="translate(2390.782120, 0.000000)" fill="#15B70C" fill-rule="nonzero">
                        <path d="M73.09568,31.3477 C77.68558,31.3477 80.17578,28.8575 80.17578,24.2188 L80.17578,15.2344 C80.17578,5.6641 74.51168,0 64.94138,0 L55.95708,0 C51.31838,0 48.82818,2.4903 48.82818,7.0801 C48.82818,11.67 51.36718,14.1602 55.95708,14.1602 L62.69528,14.1602 C64.94138,14.1602 66.01558,15.0391 66.01558,17.4805 L66.01558,24.2188 C66.01558,28.8575 68.50588,31.3477 73.09568,31.3477 Z M7.08008,31.3477 C11.66988,31.3477 14.16018,28.8086 14.16018,24.2188 L14.16018,17.4805 C14.16018,15.0391 15.23438,14.1602 17.48048,14.1602 L24.21878,14.1602 C28.85738,14.1602 31.34768,11.67 31.34768,7.0801 C31.34768,2.4903 28.85738,0 24.21878,0 L15.23438,0 C5.66408,0 1.77635684e-15,5.6641 1.77635684e-15,15.2344 L1.77635684e-15,24.2188 C1.77635684e-15,28.8575 2.49028,31.3477 7.08008,31.3477 Z M22.60738,45.8985 L35.05858,45.8985 L35.05858,58.4961 C35.05858,61.67 36.86528,63.5742 39.89258,63.5742 C42.08988,63.5742 43.99418,62.2559 45.01958,59.961 L58.59378,29.9805 C59.27738,28.418 59.61918,27.1973 59.61918,26.1231 C59.61918,23.4864 57.47068,21.3868 54.83398,21.3868 C53.75978,21.3868 52.49028,21.7285 50.97658,22.4121 L20.55668,36.1328 C18.40818,37.1094 17.38278,39.0625 17.38278,40.9668 C17.38278,43.5059 19.14058,45.8985 22.60738,45.8985 Z M34.66798,38.3301 L49.16988,31.7871 L42.62698,46.2403 L42.67578,42.4317 C42.72458,39.3067 41.65038,38.2325 38.52538,38.2813 L34.66798,38.3301 Z M15.23438,80.17581 L24.21878,80.17581 C28.85738,80.17581 31.34768,77.68558 31.34768,73.09573 C31.34768,68.50589 28.80858,66.01566 24.21878,66.01566 L17.48048,66.01566 C15.23438,66.01566 14.16018,65.1368 14.16018,62.6953 L14.16018,55.9571 C14.16018,51.3184 11.66988,48.8282 7.08008,48.8282 C2.49028,48.8282 1.77635684e-15,51.3184 1.77635684e-15,55.9571 L1.77635684e-15,64.9414 C1.77635684e-15,74.51175 5.66408,80.17581 15.23438,80.17581 Z M55.95708,80.17581 L64.94138,80.17581 C74.51168,80.17581 80.17578,74.51175 80.17578,64.9414 L80.17578,55.9571 C80.17578,51.3184 77.68558,48.8282 73.09568,48.8282 C68.50588,48.8282 66.01558,51.3672 66.01558,55.9571 L66.01558,62.6953 C66.01558,65.1368 64.94138,66.01566 62.69528,66.01566 L55.95708,66.01566 C51.31838,66.01566 48.82818,68.50589 48.82818,73.09573 C48.82818,77.68558 51.31838,80.17581 55.95708,80.17581 Z" id="Shape"></path>
                    </g>
                    <g id="Heavy-S" transform="translate(2094.552120, 0.488300)" fill="#15B70C" fill-rule="nonzero">
                        <path d="M72.94918,29.834 C77.00198,29.834 79.19918,27.6367 79.19918,23.5352 L79.19918,14.5508 C79.19918,5.3223 73.87698,0 64.59958,0 L55.61528,0 C51.51368,0 49.31638,2.1973 49.31638,6.25 C49.31638,10.3027 51.56248,12.5 55.61528,12.5 L62.84178,12.5 C65.38088,12.5 66.69918,13.6231 66.69918,16.3574 L66.69918,23.5352 C66.69918,27.6367 68.89648,29.834 72.94918,29.834 Z M6.24998,29.834 C10.30278,29.834 12.49998,27.5879 12.49998,23.5352 L12.49998,16.3574 C12.49998,13.6231 13.76958,12.5 16.30858,12.5 L23.58398,12.5 C27.68558,12.5 29.88278,10.3027 29.88278,6.25 C29.88278,2.1973 27.68558,0 23.58398,0 L14.59958,0 C5.32228,0 0,5.3223 0,14.5508 L0,23.5352 C0,27.6367 2.19728,29.834 6.24998,29.834 Z M21.33788,45.1172 L34.71678,45.1172 L34.71678,58.4961 C34.71678,61.6211 36.42578,63.4766 39.30668,63.4766 C41.40628,63.4766 43.21288,62.1582 44.23828,59.8633 L58.54488,28.4668 C59.17968,27.0508 59.52148,25.8789 59.52148,24.8535 C59.52148,22.3145 57.51958,20.3613 54.98048,20.3613 C53.95508,20.3613 52.73438,20.6543 51.36718,21.2891 L19.53128,35.7422 C17.38278,36.7188 16.35738,38.5254 16.35738,40.4297 C16.35738,42.9688 18.01758,45.1172 21.33788,45.1172 Z M32.12888,37.9883 L49.85348,29.9317 L41.79688,47.7051 L41.84568,41.7481 C41.89458,38.9649 40.82028,37.8906 38.08598,37.9395 L32.12888,37.9883 Z M14.59958,79.19923 L23.58398,79.19923 C27.68558,79.19923 29.88278,77.00197 29.88278,72.94923 C29.88278,68.8965 27.63668,66.69923 23.58398,66.69923 L16.30858,66.69923 C13.76958,66.69923 12.49998,65.57618 12.49998,62.8418 L12.49998,55.6641 C12.49998,51.5625 10.30278,49.3652 6.24998,49.3652 C2.19728,49.3652 0,51.5625 0,55.6641 L0,64.6485 C0,73.876966 5.32228,79.19923 14.59958,79.19923 Z M55.61528,79.19923 L64.59958,79.19923 C73.87698,79.19923 79.19918,73.876966 79.19918,64.6485 L79.19918,55.6641 C79.19918,51.5625 76.95318,49.3652 72.94918,49.3652 C68.89648,49.3652 66.69918,51.6113 66.69918,55.6641 L66.69918,62.8418 C66.69918,65.57618 65.38088,66.69923 62.84178,66.69923 L55.61528,66.69923 C51.51368,66.69923 49.31638,68.8965 49.31638,72.94923 C49.31638,77.00197 51.51368,79.19923 55.61528,79.19923 Z" id="Shape"></path>
                    </g>
                    <g id="Bold-S" transform="translate(1798.402120, 1.074200)" fill="#15B70C" fill-rule="nonzero">
                        <path d="M72.75388,28.125 C76.22068,28.125 78.07618,26.2208 78.07618,22.754 L78.07618,13.7208 C78.07618,4.834 73.14458,0 64.20898,0 L55.17578,0 C51.70898,0 49.85348,1.8555 49.85348,5.2735 C49.85348,8.6915 51.75778,10.5958 55.17578,10.5958 L63.03708,10.5958 C65.91798,10.5958 67.43168,11.9629 67.43168,15.0391 L67.43168,22.754 C67.43168,26.2208 69.33598,28.125 72.75388,28.125 Z M5.32228,28.125 C8.74028,28.125 10.59568,26.2208 10.59568,22.754 L10.59568,15.0391 C10.59568,11.9629 12.15818,10.5958 15.03908,10.5958 L22.85158,10.5958 C26.36718,10.5958 28.22268,8.6915 28.22268,5.2735 C28.22268,1.8555 26.36718,0 22.85158,0 L13.86718,0 C4.93168,0 1.77635684e-15,4.834 1.77635684e-15,13.7208 L1.77635684e-15,22.754 C1.77635684e-15,26.2208 1.85548,28.125 5.32228,28.125 Z M19.92188,44.1895 L34.32618,44.1895 L34.32618,58.4473 C34.32618,61.5235 35.88868,63.2813 38.67188,63.2813 C40.67388,63.2813 42.33398,62.0606 43.35938,59.7657 L58.49608,26.7579 C59.08208,25.4395 59.42388,24.3165 59.42388,23.3399 C59.42388,20.9961 57.51958,19.1407 55.12698,19.1407 C54.19918,19.1407 53.02738,19.4336 51.75778,20.0196 L18.35938,35.254 C16.25978,36.2305 15.18558,37.9395 15.18558,39.7461 C15.18558,42.2852 16.79688,44.1895 19.92188,44.1895 Z M29.24808,37.5977 L50.63478,27.8321 L40.91798,49.3165 L40.96678,40.918 C41.01558,38.5743 39.89258,37.5 37.59768,37.5489 L29.24808,37.5977 Z M13.86718,78.02739 L22.85158,78.02739 C26.36718,78.02739 28.22268,76.17192 28.22268,72.75396 C28.22268,69.33599 26.31838,67.43169 22.85158,67.43169 L15.03908,67.43169 C12.15818,67.43169 10.59568,66.0645 10.59568,62.9883 L10.59568,55.2735 C10.59568,51.8067 8.74028,49.9024 5.32228,49.9024 C1.85548,49.9024 1.77635684e-15,51.8067 1.77635684e-15,55.2735 L1.77635684e-15,64.30669 C1.77635684e-15,73.19341 4.93168,78.02739 13.86718,78.02739 Z M55.17578,78.02739 L64.20898,78.02739 C73.14458,78.02739 78.07618,73.19341 78.07618,64.30669 L78.07618,55.2735 C78.07618,51.8067 76.17188,49.9024 72.75388,49.9024 C69.28708,49.9024 67.43168,51.8067 67.43168,55.2735 L67.43168,62.9883 C67.43168,66.0645 65.91798,67.43169 63.03708,67.43169 L55.17578,67.43169 C51.70898,67.43169 49.85348,69.33599 49.85348,72.75396 C49.85348,76.17192 51.70898,78.02739 55.17578,78.02739 Z" id="Shape"></path>
                    </g>
                    <g id="Semibold-S" transform="translate(1502.082120, 1.464900)" fill="#15B70C" fill-rule="nonzero">
                        <path d="M72.60738,26.9531 C75.68358,26.9531 77.29488,25.2929 77.29488,22.2168 L77.29488,13.1836 C77.29488,4.541 72.65628,0 63.96488,0 L54.88278,0 C51.85548,0 50.19528,1.6601 50.19528,4.6386 C50.19528,7.6172 51.85548,9.2773 54.88278,9.2773 L63.18358,9.2773 C66.25978,9.2773 67.96878,10.8886 67.96878,14.1601 L67.96878,22.2168 C67.96878,25.2929 69.62888,26.9531 72.60738,26.9531 Z M4.63868,26.9531 C7.66598,26.9531 9.32618,25.2929 9.32618,22.2168 L9.32618,14.1601 C9.32618,10.8886 10.98638,9.2773 14.11138,9.2773 L22.36328,9.2773 C25.43948,9.2773 27.09958,7.6172 27.09958,4.6386 C27.09958,1.6601 25.43948,0 22.36328,0 L13.33008,0 C4.63868,0 1.77635684e-15,4.541 1.77635684e-15,13.1836 L1.77635684e-15,22.2168 C1.77635684e-15,25.2929 1.66018,26.9531 4.63868,26.9531 Z M18.94528,43.5547 L34.03318,43.5547 L34.08208,58.3984 C34.08208,61.5234 35.54688,63.2324 38.23238,63.2324 C40.13668,63.2324 41.74808,61.9629 42.77348,59.6679 L58.49608,25.5371 C59.03318,24.3652 59.32618,23.291 59.32618,22.3633 C59.32618,20.0683 57.56838,18.3105 55.27348,18.3105 C54.34568,18.3105 53.27148,18.6035 52.05078,19.1406 L17.52928,34.9609 C15.47848,35.9375 14.40428,37.5 14.40428,39.3554 C14.40428,41.8945 15.96678,43.5547 18.94528,43.5547 Z M27.24608,37.3535 L51.17188,26.416 L40.28318,50.4394 L40.33208,40.332 C40.38088,38.3301 39.25778,37.2558 37.25588,37.2558 L27.24608,37.3535 Z M13.33008,77.24607 L22.36328,77.24607 C25.43948,77.24607 27.09958,75.63474 27.09958,72.6074 C27.09958,69.62888 25.39058,67.96872 22.36328,67.96872 L14.11138,67.96872 C10.98638,67.96872 9.32618,66.40622 9.32618,63.0859 L9.32618,55.0293 C9.32618,51.9531 7.66598,50.2929 4.63868,50.2929 C1.61138,50.2929 1.77635684e-15,51.9531 1.77635684e-15,55.0293 L1.77635684e-15,64.06248 C1.77635684e-15,72.70505 4.63868,77.24607 13.33008,77.24607 Z M54.88278,77.24607 L63.96488,77.24607 C72.65628,77.24607 77.29488,72.70505 77.29488,64.06248 L77.29488,55.0293 C77.29488,51.9531 75.63478,50.2929 72.60738,50.2929 C69.58008,50.2929 67.96878,52.0019 67.96878,55.0293 L67.96878,63.0859 C67.96878,66.40622 66.25978,67.96872 63.18358,67.96872 L54.88278,67.96872 C51.85548,67.96872 50.19528,69.62888 50.19528,72.6074 C50.19528,75.63474 51.85548,77.24607 54.88278,77.24607 Z" id="Shape"></path>
                    </g>
                    <g id="Medium-S" transform="translate(1205.672120, 1.757800)" fill="#15B70C" fill-rule="nonzero">
                        <path d="M72.55858,26.0743 C75.24418,26.0743 76.70898,24.5606 76.70898,21.8262 L76.70898,12.793 C76.70898,4.3457 72.31448,0 63.72068,0 L54.68748,0 C51.95318,0 50.48828,1.4649 50.48828,4.1504 C50.48828,6.836 51.95318,8.3008 54.68748,8.3008 L63.28128,8.3008 C66.55278,8.3008 68.35938,10.0098 68.35938,13.4766 L68.35938,21.8262 C68.35938,24.5606 69.87308,26.0743 72.55858,26.0743 Z M4.15038,26.0743 C6.88478,26.0743 8.30078,24.5606 8.30078,21.8262 L8.30078,13.4766 C8.30078,10.0098 10.15628,8.3008 13.42778,8.3008 L22.02148,8.3008 C24.75588,8.3008 26.22068,6.836 26.22068,4.1504 C26.22068,1.4649 24.75588,0 22.02148,0 L12.93948,0 C4.44338,0 1.77635684e-15,4.3457 1.77635684e-15,12.793 L1.77635684e-15,21.8262 C1.77635684e-15,24.5606 1.46488,26.0743 4.15038,26.0743 Z M18.21288,43.0664 L33.83788,43.1153 L33.88668,58.3985 C33.88668,61.4747 35.30278,63.1348 37.93948,63.1348 C39.74608,63.1348 41.30858,61.9141 42.33398,59.6192 L58.44728,24.6582 C58.98438,23.5352 59.27738,22.5098 59.27738,21.5821 C59.27738,19.3848 57.56838,17.6758 55.32228,17.6758 C54.44338,17.6758 53.41798,17.9688 52.29488,18.5059 L16.94338,34.7168 C14.89258,35.6934 13.81838,37.2071 13.81838,39.0137 C13.81838,41.5528 15.33208,43.0664 18.21288,43.0664 Z M25.78128,37.1582 L51.61138,25.3418 L39.79488,51.2696 L39.89258,39.8926 C39.89258,38.1348 38.81838,37.0606 37.01168,37.0606 L25.78128,37.1582 Z M12.93948,76.6602 L22.02148,76.6602 C24.75588,76.6602 26.22068,75.19536 26.22068,72.50981 C26.22068,69.82426 24.70708,68.35942 22.02148,68.35942 L13.42778,68.35942 C10.15628,68.35942 8.30078,66.65043 8.30078,63.1836 L8.30078,54.834 C8.30078,52.0997 6.83598,50.6348 4.15038,50.6348 C1.46488,50.6348 1.77635684e-15,52.0997 1.77635684e-15,54.834 L1.77635684e-15,63.86723 C1.77635684e-15,72.3145 4.44338,76.6602 12.93948,76.6602 Z M54.68748,76.6602 L63.72068,76.6602 C72.31448,76.6602 76.70898,72.3145 76.70898,63.86723 L76.70898,54.834 C76.70898,52.0997 75.19528,50.6348 72.55858,50.6348 C69.82418,50.6348 68.35938,52.0997 68.35938,54.834 L68.35938,63.1836 C68.35938,66.65043 66.55278,68.35942 63.28128,68.35942 L54.68748,68.35942 C51.95318,68.35942 50.48828,69.82426 50.48828,72.50981 C50.48828,75.19536 51.95318,76.6602 54.68748,76.6602 Z" id="Shape"></path>
                    </g>
                    <g id="Regular-S" transform="translate(909.342120, 2.099600)" fill="#15B70C" fill-rule="nonzero">
                        <path d="M72.41208,24.9512 C74.70708,24.9512 75.92778,23.6817 75.92778,21.3868 L75.92778,12.3047 C75.92778,4.1016 71.82618,0 63.47658,0 L54.39458,0 C52.09958,0 50.83008,1.2696 50.83008,3.5645 C50.83008,5.8106 52.09958,7.0801 54.39458,7.0801 L63.37888,7.0801 C66.89458,7.0801 68.89648,8.9844 68.89648,12.6465 L68.89648,21.3868 C68.89648,23.6817 70.16598,24.9512 72.41208,24.9512 Z M3.51558,24.9512 C5.81058,24.9512 7.03128,23.6817 7.03128,21.3868 L7.03128,12.6465 C7.03128,8.9844 9.03318,7.0801 12.54888,7.0801 L21.53318,7.0801 C23.82818,7.0801 25.09768,5.8106 25.09768,3.5645 C25.09768,1.2696 23.82818,0 21.53318,0 L12.45118,0 C4.15038,0 0,4.1016 0,12.3047 L0,21.3868 C0,23.6817 1.26958,24.9512 3.51558,24.9512 Z M17.23638,42.4805 L33.54488,42.5293 L33.59378,58.3985 C33.59378,61.4746 34.96098,63.086 37.49998,63.086 C39.20898,63.086 40.67388,61.9141 41.74808,59.6192 L58.44728,23.5352 C58.88668,22.5098 59.17968,21.4844 59.17968,20.6543 C59.17968,18.5059 57.56838,16.8946 55.46878,16.8946 C54.58988,16.8946 53.61328,17.1875 52.58788,17.6758 L16.11328,34.4727 C14.11138,35.4004 13.03708,36.8164 13.03708,38.6231 C13.03708,41.1622 14.50198,42.4805 17.23638,42.4805 Z M23.82818,36.9141 L52.14848,23.9746 L39.16018,52.4414 L39.25778,39.4043 C39.25778,37.9395 38.18358,36.8164 36.66988,36.8164 L23.82818,36.9141 Z M12.45118,75.9766 L21.53318,75.9766 C23.82818,75.9766 25.09768,74.70707 25.09768,72.460978 C25.09768,70.16606 23.82818,68.89652 21.53318,68.89652 L12.54888,68.89652 C9.03318,68.89652 7.03128,66.99223 7.03128,63.33012 L7.03128,54.6387 C7.03128,52.295 5.76168,51.0254 3.51558,51.0254 C1.22068,51.0254 0,52.295 0,54.6387 L0,63.67192 C0,71.87504 4.15038,75.9766 12.45118,75.9766 Z M54.39458,75.9766 L63.47658,75.9766 C71.82618,75.9766 75.92778,71.87504 75.92778,63.67192 L75.92778,54.6387 C75.92778,52.295 74.65818,51.0254 72.41208,51.0254 C70.11718,51.0254 68.89648,52.295 68.89648,54.6387 L68.89648,63.33012 C68.89648,66.99223 66.89458,68.89652 63.37888,68.89652 L54.39458,68.89652 C52.09958,68.89652 50.83008,70.16606 50.83008,72.460978 C50.83008,74.70707 52.09958,75.9766 54.39458,75.9766 Z" id="Shape"></path>
                    </g>
                    <g id="Light-S" transform="translate(613.592120, 3.076200)" fill="#15B70C" fill-rule="nonzero">
                        <path d="M71.33788,23.877 C73.09568,23.877 74.02348,22.9004 74.02348,21.0938 L74.02348,11.5234 C74.02348,3.9063 70.11718,0 62.40238,0 L52.83208,0 C51.02538,0 50.04888,0.9766 50.04888,2.7344 C50.04888,4.4922 51.02538,5.4199 52.83208,5.4199 L62.30468,5.4199 C66.30858,5.4199 68.60348,7.6172 68.60348,11.8164 L68.60348,21.0938 C68.60348,22.9004 69.58008,23.877 71.33788,23.877 Z M2.73438,23.877 C4.49218,23.877 5.41988,22.9004 5.41988,21.0938 L5.41988,11.8164 C5.41988,7.6172 7.66598,5.4199 11.71878,5.4199 L21.24028,5.4199 C22.99808,5.4199 23.97458,4.4922 23.97458,2.7344 C23.97458,0.9766 22.99808,0 21.24028,0 L11.62108,0 C3.90628,0 1.77635684e-15,3.8574 1.77635684e-15,11.5234 L1.77635684e-15,21.0938 C1.77635684e-15,22.9004 0.97658,23.877 2.73438,23.877 Z M16.30858,41.0156 L33.64258,41.0645 L33.69138,58.1055 C33.69138,60.498 34.81448,61.8164 36.81638,61.8164 C38.23238,61.8164 39.40428,60.8887 40.23438,59.082 L57.47068,22.0215 C57.86138,21.1914 58.10548,20.3613 58.10548,19.6777 C58.10548,17.9199 56.83598,16.6504 55.02928,16.6504 C54.34568,16.6504 53.51558,16.8945 52.73438,17.2363 L15.38088,34.5703 C13.76958,35.3027 12.89058,36.4746 12.89058,37.8906 C12.89058,39.8926 14.11138,41.0156 16.30858,41.0156 Z M21.24028,36.6211 L52.63668,22.1191 L38.08598,53.5645 L38.18358,38.7207 C38.18358,37.4512 37.25588,36.5723 35.93748,36.5723 L21.24028,36.6211 Z M11.62108,74.02344 L21.24028,74.02344 C22.99808,74.02344 23.97458,73.046878 23.97458,71.337894 C23.97458,69.58008 22.99808,68.60352 21.24028,68.60352 L11.71878,68.60352 C7.66598,68.60352 5.41988,66.45508 5.41988,62.25586 L5.41988,52.9297 C5.41988,51.1719 4.44338,50.1953 2.73438,50.1953 C0.92778,50.1953 1.77635684e-15,51.1719 1.77635684e-15,52.9297 L1.77635684e-15,62.54883 C1.77635684e-15,70.16602 3.90628,74.02344 11.62108,74.02344 Z M52.83208,74.02344 L62.40238,74.02344 C70.11718,74.02344 74.02348,70.16602 74.02348,62.54883 L74.02348,52.9297 C74.02348,51.1719 73.04688,50.1953 71.33788,50.1953 C69.53128,50.1953 68.60348,51.1719 68.60348,52.9297 L68.60348,62.25586 C68.60348,66.45508 66.30858,68.60352 62.30468,68.60352 L52.83208,68.60352 C51.02538,68.60352 50.04888,69.58008 50.04888,71.337894 C50.04888,73.046878 51.02538,74.02344 52.83208,74.02344 Z" id="Shape"></path>
                    </g>
                    <g id="Thin-S" transform="translate(318.122120, 4.345700)" fill="#15B70C" fill-rule="nonzero">
                        <path d="M69.87308,22.5098 C70.94728,22.5098 71.53318,21.875 71.53318,20.8008 L71.53318,10.4981 C71.53318,3.6621 67.91988,0 60.98638,0 L50.68358,0 C49.60938,0 49.02348,0.586 49.02348,1.6602 C49.02348,2.7344 49.60938,3.3203 50.68358,3.3203 L60.88868,3.3203 C65.52738,3.3203 68.21288,5.8594 68.21288,10.6934 L68.21288,20.8008 C68.21288,21.875 68.79888,22.5098 69.87308,22.5098 Z M1.66018,22.5098 C2.73438,22.5098 3.32028,21.875 3.32028,20.8008 L3.32028,10.6934 C3.32028,5.8594 5.85938,3.3203 10.64458,3.3203 L20.80078,3.3203 C21.87498,3.3203 22.50978,2.7344 22.50978,1.6602 C22.50978,0.586 21.87498,0 20.80078,0 L10.54688,0 C3.61328,0 0,3.6133 0,10.4981 L0,20.8008 C0,21.875 0.58598,22.5098 1.66018,22.5098 Z M15.13668,39.1114 L33.78908,39.1602 L33.78908,57.6661 C33.78908,59.2285 34.66798,60.2051 35.93748,60.2051 C36.86528,60.2051 37.74418,59.6192 38.28128,58.3985 L56.24998,20.0196 C56.54298,19.4825 56.68948,18.8965 56.68948,18.4082 C56.68948,17.1387 55.81058,16.2598 54.54098,16.2598 C54.00388,16.2598 53.41798,16.4551 52.88088,16.6993 L14.40428,34.7168 C13.33008,35.2051 12.69528,36.0352 12.69528,36.9629 C12.69528,38.2325 13.62308,39.1114 15.13668,39.1114 Z M17.77348,36.2305 L53.27148,19.6778 L36.66988,55.127 L36.71878,37.8418 C36.71878,36.8164 36.08398,36.1817 35.00978,36.1817 L17.77348,36.2305 Z M10.54688,71.533238 L20.80078,71.533238 C21.87498,71.533238 22.50978,70.9473 22.50978,69.87308 C22.50978,68.79886 21.87498,68.21292 20.80078,68.21292 L10.64458,68.21292 C5.85938,68.21292 3.32028,65.72269 3.32028,60.8887 L3.32028,50.7813 C3.32028,49.7071 2.73438,49.0723 1.66018,49.0723 C0.58598,49.0723 0,49.7071 0,50.7813 L0,61.03519 C0,67.96878 3.61328,71.533238 10.54688,71.533238 Z M50.68358,71.533238 L60.98638,71.533238 C67.91988,71.533238 71.53318,67.87113 71.53318,61.03519 L71.53318,50.7813 C71.53318,49.7071 70.94728,49.0723 69.87308,49.0723 C68.79888,49.0723 68.21288,49.7071 68.21288,50.7813 L68.21288,60.8887 C68.21288,65.72269 65.52738,68.21292 60.88868,68.21292 L50.68358,68.21292 C49.60938,68.21292 49.02348,68.79886 49.02348,69.87308 C49.02348,70.9473 49.60938,71.533238 50.68358,71.533238 Z" id="Shape"></path>
                    </g>
                    <g id="Ultralight-S" transform="translate(22.070120, 5.029300)" fill="#15B70C" fill-rule="nonzero">
                        <path d="M69.14058,21.7285 C69.82418,21.7285 70.21488,21.2891 70.21488,20.6055 L70.21488,9.961 C70.21488,3.5157 66.74808,0 60.20508,0 L49.60938,0 C48.87698,0 48.48638,0.3907 48.48638,1.0742 C48.48638,1.8067 48.87698,2.1973 49.60938,2.1973 L60.10738,2.1973 C65.13668,2.1973 68.01758,4.8828 68.01758,10.1075 L68.01758,20.6055 C68.01758,21.2891 68.40818,21.7285 69.14058,21.7285 Z M1.12308,21.7285 C1.80668,21.7285 2.19728,21.2891 2.19728,20.6055 L2.19728,10.1075 C2.19728,4.8828 4.88278,2.1973 10.10738,2.1973 L20.60548,2.1973 C21.33788,2.1973 21.77738,1.8067 21.77738,1.0742 C21.77738,0.3907 21.33788,0 20.60548,0 L10.00978,0 C3.46678,0 0,3.4668 0,9.961 L0,20.6055 C0,21.2891 0.39058,21.7285 1.12308,21.7285 Z M14.50198,38.086 L33.88668,38.1348 L33.88668,57.4219 C33.88668,58.5449 34.57028,59.3262 35.49808,59.3262 C36.18168,59.3262 36.86528,58.8867 37.25588,58.0567 L55.61528,18.9942 C55.81058,18.5547 55.95708,18.1153 55.95708,17.7246 C55.95708,16.7481 55.27348,16.0645 54.24808,16.0645 C53.85738,16.0645 53.36918,16.211 53.02738,16.3575 L13.86718,34.7657 C13.08598,35.1075 12.59768,35.791 12.59768,36.4258 C12.59768,37.3535 13.33008,38.086 14.50198,38.086 Z M16.01558,36.0352 L53.61328,18.4082 L35.93748,55.8594 L35.98638,37.3535 C35.98638,36.4746 35.49808,35.9864 34.47268,35.9864 L16.01558,36.0352 Z M10.00978,70.2148719 L20.60548,70.2148719 C21.33788,70.2148719 21.77738,69.824247 21.77738,69.09182 C21.77738,68.40823 21.33788,68.01761 20.60548,68.01761 L10.10738,68.01761 C4.88278,68.01761 2.19728,65.33206 2.19728,60.1075 L2.19728,49.6094 C2.19728,48.9258 1.80668,48.4864 1.12308,48.4864 C0.39058,48.4864 0,48.9258 0,49.6094 L0,60.2539 C0,66.74808 3.46678,70.2148719 10.00978,70.2148719 Z M49.60938,70.2148719 L60.20508,70.2148719 C66.74808,70.2148719 70.21488,66.65042 70.21488,60.2539 L70.21488,49.6094 C70.21488,48.9258 69.82418,48.4864 69.14058,48.4864 C68.40818,48.4864 68.01758,48.9258 68.01758,49.6094 L68.01758,60.1075 C68.01758,65.33206 65.13668,68.01761 60.10738,68.01761 L49.60938,68.01761 C48.87698,68.01761 48.48638,68.40823 48.48638,69.09182 C48.48638,69.824247 48.87698,70.2148719 49.60938,70.2148719 Z" id="Shape"></path>
                    </g>
                </g>
            </g>
        </g>
    </g>
</svg>