<?xml version="1.0" encoding="UTF-8"?>
<!--Generator: Apple Native CoreSVG 149-->
<!DOCTYPE svg
PUBLIC "-//W3C//DTD SVG 1.1//EN"
       "http://www.w3.org/Graphics/SVG/1.1/DTD/svg11.dtd">
<svg version="1.1" xmlns="http://www.w3.org/2000/svg" xmlns:xlink="http://www.w3.org/1999/xlink" width="3300" height="2200">
 <!--glyph: "uni10064B.medium", point size: 100.000000, font version: "Version 16.0d18e1", template writer version: "8"-->
 <g id="Notes">
  <rect height="2200" id="artboard" style="fill:white;opacity:1" width="3300" x="0" y="0"/>
  <line id="" style="fill:none;stroke:black;opacity:1;stroke-width:0.5;" x1="263" x2="3036" y1="292" y2="292"/>
  <text style="stroke:none;fill:black;font-family:-apple-system,&quot;SF Pro Display&quot;,&quot;SF Pro Text&quot;,Helvetica,sans-serif;font-weight:bold;" transform="matrix(1 0 0 1 263 322)">Weight/Scale Variations</text>
  <text style="stroke:none;fill:black;font-family:-apple-system,&quot;SF Pro Display&quot;,&quot;SF Pro Text&quot;,Helvetica,sans-serif;text-anchor:middle;" transform="matrix(1 0 0 1 559.711 322)">Ultralight</text>
  <text style="stroke:none;fill:black;font-family:-apple-system,&quot;SF Pro Display&quot;,&quot;SF Pro Text&quot;,Helvetica,sans-serif;text-anchor:middle;" transform="matrix(1 0 0 1 856.422 322)">Thin</text>
  <text style="stroke:none;fill:black;font-family:-apple-system,&quot;SF Pro Display&quot;,&quot;SF Pro Text&quot;,Helvetica,sans-serif;text-anchor:middle;" transform="matrix(1 0 0 1 1153.13 322)">Light</text>
  <text style="stroke:none;fill:black;font-family:-apple-system,&quot;SF Pro Display&quot;,&quot;SF Pro Text&quot;,Helvetica,sans-serif;text-anchor:middle;" transform="matrix(1 0 0 1 1449.84 322)">Regular</text>
  <text style="stroke:none;fill:black;font-family:-apple-system,&quot;SF Pro Display&quot;,&quot;SF Pro Text&quot;,Helvetica,sans-serif;text-anchor:middle;" transform="matrix(1 0 0 1 1746.56 322)">Medium</text>
  <text style="stroke:none;fill:black;font-family:-apple-system,&quot;SF Pro Display&quot;,&quot;SF Pro Text&quot;,Helvetica,sans-serif;text-anchor:middle;" transform="matrix(1 0 0 1 2043.27 322)">Semibold</text>
  <text style="stroke:none;fill:black;font-family:-apple-system,&quot;SF Pro Display&quot;,&quot;SF Pro Text&quot;,Helvetica,sans-serif;text-anchor:middle;" transform="matrix(1 0 0 1 2339.98 322)">Bold</text>
  <text style="stroke:none;fill:black;font-family:-apple-system,&quot;SF Pro Display&quot;,&quot;SF Pro Text&quot;,Helvetica,sans-serif;text-anchor:middle;" transform="matrix(1 0 0 1 2636.69 322)">Heavy</text>
  <text style="stroke:none;fill:black;font-family:-apple-system,&quot;SF Pro Display&quot;,&quot;SF Pro Text&quot;,Helvetica,sans-serif;text-anchor:middle;" transform="matrix(1 0 0 1 2933.4 322)">Black</text>
  <line id="" style="fill:none;stroke:black;opacity:1;stroke-width:0.5;" x1="263" x2="3036" y1="1903" y2="1903"/>
  <g id="" transform="matrix(1 0 0 1 263 1933)">
   <path d="M9.24805 0.830078C13.5547 0.830078 17.1387-2.74414 17.1387-7.05078C17.1387-11.3574 13.5449-14.9316 9.23828-14.9316C4.94141-14.9316 1.36719-11.3574 1.36719-7.05078C1.36719-2.74414 4.95117 0.830078 9.24805 0.830078ZM9.24805-0.654297C5.70312-0.654297 2.87109-3.49609 2.87109-7.05078C2.87109-10.6055 5.69336-13.4473 9.23828-13.4473C12.793-13.4473 15.6348-10.6055 15.6445-7.05078C15.6543-3.49609 12.8027-0.654297 9.24805-0.654297ZM6.39648-6.31836L8.50586-6.31836L8.50586-4.19922C8.50586-3.75977 8.79883-3.45703 9.22852-3.45703C9.67773-3.45703 9.9707-3.75977 9.9707-4.19922L9.9707-6.31836L12.0996-6.31836C12.5391-6.31836 12.8418-6.61133 12.8418-7.04102C12.8418-7.48047 12.5391-7.7832 12.0996-7.7832L9.9707-7.7832L9.9707-9.89258C9.9707-10.3418 9.67773-10.6445 9.22852-10.6445C8.79883-10.6445 8.50586-10.3418 8.50586-9.89258L8.50586-7.7832L6.39648-7.7832C5.94727-7.7832 5.64453-7.48047 5.64453-7.04102C5.64453-6.61133 5.94727-6.31836 6.39648-6.31836Z"/>
  </g>
  <g id="" transform="matrix(1 0 0 1 281.506 1933)">
   <path d="M11.709 2.91016C17.1582 2.91016 21.6699-1.61133 21.6699-7.05078C21.6699-12.5 17.1484-17.0117 11.6992-17.0117C6.25977-17.0117 1.74805-12.5 1.74805-7.05078C1.74805-1.61133 6.26953 2.91016 11.709 2.91016ZM11.709 1.25C7.09961 1.25 3.41797-2.44141 3.41797-7.05078C3.41797-11.6602 7.08984-15.3516 11.6992-15.3516C16.3086-15.3516 20-11.6602 20.0098-7.05078C20.0195-2.44141 16.3184 1.25 11.709 1.25ZM7.98828-6.23047L10.8789-6.23047L10.8789-3.32031C10.8789-2.83203 11.2109-2.5 11.6895-2.5C12.1777-2.5 12.5195-2.83203 12.5195-3.32031L12.5195-6.23047L15.4297-6.23047C15.918-6.23047 16.25-6.5625 16.25-7.04102C16.25-7.5293 15.918-7.87109 15.4297-7.87109L12.5195-7.87109L12.5195-10.7617C12.5195-11.2695 12.1777-11.6016 11.6895-11.6016C11.2109-11.6016 10.8789-11.2598 10.8789-10.7617L10.8789-7.87109L7.98828-7.87109C7.48047-7.87109 7.14844-7.5293 7.14844-7.04102C7.14844-6.5625 7.49023-6.23047 7.98828-6.23047Z"/>
  </g>
  <g id="" transform="matrix(1 0 0 1 304.924 1933)">
   <path d="M14.9707 5.66406C21.9336 5.66406 27.6953-0.0976562 27.6953-7.05078C27.6953-14.0137 21.9238-19.7754 14.9609-19.7754C8.00781-19.7754 2.25586-14.0137 2.25586-7.05078C2.25586-0.0976562 8.01758 5.66406 14.9707 5.66406ZM14.9707 3.84766C8.93555 3.84766 4.08203-1.01562 4.08203-7.05078C4.08203-13.0957 8.92578-17.9492 14.9609-17.9492C21.0059-17.9492 25.8594-13.0957 25.8691-7.05078C25.8789-1.01562 21.0156 3.84766 14.9707 3.84766ZM10.0586-6.14258L14.0625-6.14258L14.0625-2.12891C14.0625-1.5918 14.4336-1.2207 14.9512-1.2207C15.4883-1.2207 15.8594-1.5918 15.8594-2.12891L15.8594-6.14258L19.8828-6.14258C20.4102-6.14258 20.791-6.51367 20.791-7.03125C20.791-7.56836 20.4199-7.94922 19.8828-7.94922L15.8594-7.94922L15.8594-11.9531C15.8594-12.5098 15.4883-12.8809 14.9512-12.8809C14.4336-12.8809 14.0625-12.5 14.0625-11.9531L14.0625-7.94922L10.0586-7.94922C9.50195-7.94922 9.13086-7.56836 9.13086-7.03125C9.13086-6.51367 9.51172-6.14258 10.0586-6.14258Z"/>
  </g>
  <text style="stroke:none;fill:black;font-family:-apple-system,&quot;SF Pro Display&quot;,&quot;SF Pro Text&quot;,Helvetica,sans-serif;font-weight:bold;" transform="matrix(1 0 0 1 263 1953)">Design Variations</text>
  <text style="stroke:none;fill:black;font-family:-apple-system,&quot;SF Pro Display&quot;,&quot;SF Pro Text&quot;,Helvetica,sans-serif;" transform="matrix(1 0 0 1 263 1971)">Symbols are supported in up to nine weights and three scales.</text>
  <text style="stroke:none;fill:black;font-family:-apple-system,&quot;SF Pro Display&quot;,&quot;SF Pro Text&quot;,Helvetica,sans-serif;" transform="matrix(1 0 0 1 263 1989)">For optimal layout with text and other symbols, vertically align</text>
  <text style="stroke:none;fill:black;font-family:-apple-system,&quot;SF Pro Display&quot;,&quot;SF Pro Text&quot;,Helvetica,sans-serif;" transform="matrix(1 0 0 1 263 2007)">symbols with the adjacent text.</text>
  <line id="" style="fill:none;stroke:#00AEEF;stroke-width:0.5;opacity:1.0;" x1="776" x2="776" y1="1919" y2="1933"/>
  <g id="" transform="matrix(1 0 0 1 776 1933)">
   <path d="M3.31055 0.126953C3.82812 0.126953 4.08203-0.0683594 4.26758-0.605469L5.52734-4.0625L11.2891-4.0625L12.5488-0.605469C12.7344-0.0683594 12.9883 0.126953 13.4961 0.126953C14.0137 0.126953 14.3457-0.185547 14.3457-0.673828C14.3457-0.839844 14.3164-0.986328 14.2383-1.20117L9.6582-13.3887C9.43359-13.9941 9.0332-14.2871 8.4082-14.2871C7.80273-14.2871 7.39258-13.9941 7.17773-13.3984L2.59766-1.19141C2.51953-0.976562 2.49023-0.830078 2.49023-0.664062C2.49023-0.175781 2.80273 0.126953 3.31055 0.126953ZM6.00586-5.53711L8.37891-12.1094L8.42773-12.1094L10.8008-5.53711Z"/>
  </g>
  <line id="" style="fill:none;stroke:#00AEEF;stroke-width:0.5;opacity:1.0;" x1="792.836" x2="792.836" y1="1919" y2="1933"/>
  <text style="stroke:none;fill:black;font-family:-apple-system,&quot;SF Pro Display&quot;,&quot;SF Pro Text&quot;,Helvetica,sans-serif;font-weight:bold;" transform="matrix(1 0 0 1 776 1953)">Margins</text>
  <text style="stroke:none;fill:black;font-family:-apple-system,&quot;SF Pro Display&quot;,&quot;SF Pro Text&quot;,Helvetica,sans-serif;" transform="matrix(1 0 0 1 776 1971)">Leading and trailing margins on the left and right side of each symbol</text>
  <text style="stroke:none;fill:black;font-family:-apple-system,&quot;SF Pro Display&quot;,&quot;SF Pro Text&quot;,Helvetica,sans-serif;" transform="matrix(1 0 0 1 776 1989)">can be adjusted by modifying the x-location of the margin guidelines.</text>
  <text style="stroke:none;fill:black;font-family:-apple-system,&quot;SF Pro Display&quot;,&quot;SF Pro Text&quot;,Helvetica,sans-serif;" transform="matrix(1 0 0 1 776 2007)">Modifications are automatically applied proportionally to all</text>
  <text style="stroke:none;fill:black;font-family:-apple-system,&quot;SF Pro Display&quot;,&quot;SF Pro Text&quot;,Helvetica,sans-serif;" transform="matrix(1 0 0 1 776 2025)">scales and weights.</text>
  <g id="" transform="matrix(1 0 0 1 1289 1933)">
   <path d="M2.8418 1.86523L4.54102 3.57422C5.40039 4.44336 6.38672 4.38477 7.31445 3.35938L17.4902-7.85156C17.7539-7.76367 18.0273-7.7832 18.3398-7.8418L19.4043-8.03711L20.0684-7.36328L20.0293-6.80664C19.9902-6.30859 20.1172-5.92773 20.6055-5.44922L21.3672-4.70703C21.8457-4.22852 22.4609-4.19922 22.9297-4.66797L25.8398-7.58789C26.3086-8.05664 26.2891-8.65234 25.8105-9.13086L25.0391-9.89258C24.5605-10.3711 24.1895-10.5273 23.7109-10.4883L23.1348-10.4395L22.4902-11.0742L22.7344-12.1973C22.8613-12.7637 22.7051-13.2031 22.1191-13.7891L19.9219-15.9766C16.582-19.2969 12.1484-19.2188 9.25781-16.3281C8.83789-15.918 8.80859-15.3418 9.04297-14.9512C9.27734-14.5898 9.73633-14.3555 10.3809-14.5215C11.8457-14.8633 13.3691-14.9219 14.7949-13.9844L14.209-12.5293C14.0137-12.0508 13.9844-11.6504 14.1113-11.2891L3.04688-0.898438C2.06055 0.0195312 1.98242 0.996094 2.8418 1.86523ZM10.752-15.957C13.1836-17.7344 16.4746-17.4316 18.7012-15.2051L21.1328-12.793C21.3672-12.5586 21.4062-12.373 21.3379-12.0312L21.0156-10.5469L22.5195-9.0625L23.5059-9.12109C23.7598-9.13086 23.8379-9.11133 24.0332-8.91602L24.6094-8.33984L22.168-5.89844L21.5918-6.47461C21.3965-6.66992 21.3672-6.74805 21.377-7.01172L21.4453-7.98828L19.9512-9.47266L18.4277-9.21875C18.1055-9.15039 17.959-9.17969 17.7148-9.41406L15.7129-11.416C15.459-11.6504 15.4297-11.8164 15.5859-12.1875L16.4648-14.2773C14.9023-15.7324 12.8711-16.3574 10.8398-15.7617C10.6836-15.7227 10.625-15.8496 10.752-15.957ZM5.27344 2.30469L4.10156 1.14258C3.63281 0.683594 3.74023 0.341797 4.14062-0.0195312L14.9512-10.1953L16.416-8.71094L6.42578 2.27539C6.07422 2.67578 5.74219 2.77344 5.27344 2.30469Z"/>
  </g>
  <text style="stroke:none;fill:black;font-family:-apple-system,&quot;SF Pro Display&quot;,&quot;SF Pro Text&quot;,Helvetica,sans-serif;font-weight:bold;" transform="matrix(1 0 0 1 1289 1953)">Exporting</text>
  <text style="stroke:none;fill:black;font-family:-apple-system,&quot;SF Pro Display&quot;,&quot;SF Pro Text&quot;,Helvetica,sans-serif;" transform="matrix(1 0 0 1 1289 1971)">Symbols should be outlined when exporting to ensure the</text>
  <text style="stroke:none;fill:black;font-family:-apple-system,&quot;SF Pro Display&quot;,&quot;SF Pro Text&quot;,Helvetica,sans-serif;" transform="matrix(1 0 0 1 1289 1989)">design is preserved when submitting to Xcode.</text>
  <text id="template-version" style="stroke:none;fill:black;font-family:-apple-system,&quot;SF Pro Display&quot;,&quot;SF Pro Text&quot;,Helvetica,sans-serif;text-anchor:end;" transform="matrix(1 0 0 1 3036 1933)">Template v.2.0</text>
  <text style="stroke:none;fill:black;font-family:-apple-system,&quot;SF Pro Display&quot;,&quot;SF Pro Text&quot;,Helvetica,sans-serif;text-anchor:end;" transform="matrix(1 0 0 1 3036 1951)">Requires Xcode 12 or greater</text>
  <text style="stroke:none;fill:black;font-family:-apple-system,&quot;SF Pro Display&quot;,&quot;SF Pro Text&quot;,Helvetica,sans-serif;text-anchor:end;" transform="matrix(1 0 0 1 3036 1969)">Generated from map.fill</text>
  <text style="stroke:none;fill:black;font-family:-apple-system,&quot;SF Pro Display&quot;,&quot;SF Pro Text&quot;,Helvetica,sans-serif;text-anchor:end;" transform="matrix(1 0 0 1 3036 1987)">Typeset at 100 points</text>
  <text style="stroke:none;fill:black;font-family:-apple-system,&quot;SF Pro Display&quot;,&quot;SF Pro Text&quot;,Helvetica,sans-serif;" transform="matrix(1 0 0 1 263 726)">Small</text>
  <text style="stroke:none;fill:black;font-family:-apple-system,&quot;SF Pro Display&quot;,&quot;SF Pro Text&quot;,Helvetica,sans-serif;" transform="matrix(1 0 0 1 263 1156)">Medium</text>
  <text style="stroke:none;fill:black;font-family:-apple-system,&quot;SF Pro Display&quot;,&quot;SF Pro Text&quot;,Helvetica,sans-serif;" transform="matrix(1 0 0 1 263 1586)">Large</text>
 </g>
 <g id="Guides">
  <g id="H-reference" style="fill:#27AAE1;stroke:none;" transform="matrix(1 0 0 1 339 696)">
   <path d="M0.976562 0L3.66211 0L12.9883-24.4629L45.752-24.4629L55.127 0L57.7637 0L30.6152-70.459L28.125-70.459ZM29.3457-67.1387L29.4434-67.1387L44.873-26.709L13.8672-26.709Z"/>
  </g>
  <line id="Baseline-S" style="fill:none;stroke:#27AAE1;opacity:1;stroke-width:0.5;" x1="263" x2="3036" y1="696" y2="696"/>
  <line id="Capline-S" style="fill:none;stroke:#27AAE1;opacity:1;stroke-width:0.5;" x1="263" x2="3036" y1="625.541" y2="625.541"/>
  <g id="H-reference" style="fill:#27AAE1;stroke:none;" transform="matrix(1 0 0 1 339 1126)">
   <path d="M0.976562 0L3.66211 0L12.9883-24.4629L45.752-24.4629L55.127 0L57.7637 0L30.6152-70.459L28.125-70.459ZM29.3457-67.1387L29.4434-67.1387L44.873-26.709L13.8672-26.709Z"/>
  </g>
  <line id="Baseline-M" style="fill:none;stroke:#27AAE1;opacity:1;stroke-width:0.5;" x1="263" x2="3036" y1="1126" y2="1126"/>
  <line id="Capline-M" style="fill:none;stroke:#27AAE1;opacity:1;stroke-width:0.5;" x1="263" x2="3036" y1="1055.54" y2="1055.54"/>
  <g id="H-reference" style="fill:#27AAE1;stroke:none;" transform="matrix(1 0 0 1 339 1556)">
   <path d="M0.976562 0L3.66211 0L12.9883-24.4629L45.752-24.4629L55.127 0L57.7637 0L30.6152-70.459L28.125-70.459ZM29.3457-67.1387L29.4434-67.1387L44.873-26.709L13.8672-26.709Z"/>
  </g>
  <line id="Baseline-L" style="fill:none;stroke:#27AAE1;opacity:1;stroke-width:0.5;" x1="263" x2="3036" y1="1556" y2="1556"/>
  <line id="Capline-L" style="fill:none;stroke:#27AAE1;opacity:1;stroke-width:0.5;" x1="263" x2="3036" y1="1485.54" y2="1485.54"/>
  <line id="left-margin" style="fill:none;stroke:#00AEEF;stroke-width:0.5;opacity:1.0;" x1="1386.61" x2="1386.61" y1="1030.79" y2="1150.12"/>
  <line id="right-margin" style="fill:none;stroke:#00AEEF;stroke-width:0.5;opacity:1.0;" x1="1513.08" x2="1513.08" y1="1030.79" y2="1150.12"/>
 </g>
 <g id="Symbols">
  <g id="Black-L" transform="matrix(1 0 0 1 2847.88 1556)">
   <path d="M16.0645 17.9199C16.0645 26.2207 21.9727 30.4688 28.7109 30.4688C31.2988 30.4688 33.8867 29.7852 36.3281 28.4668L57.1289 17.1875L57.1289-98.0469C54.8828-97.5098 52.1484-96.3867 48.8281-94.5312L24.5117-81.0547C18.7012-77.832 16.0645-73.2422 16.0645-66.6992ZM68.5059 13.9648L93.5059 27.6855C96.582 29.3457 98.7305 30.5664 102.197 31.1523L102.197-79.1992L78.2715-92.9199C74.2188-95.2148 70.9961-96.9238 68.5059-97.7051ZM113.623 30.4688C114.502 30.2246 115.625 29.7852 116.65 29.1504L145.947 12.9883C152.393 9.42383 154.98 4.93164 154.98-1.75781L154.98-84.5215C154.98-93.4082 148.877-97.168 140.869-97.168C137.842-97.168 134.326-96.2402 131.592-94.7266L113.623-84.7656Z"/>
  </g>
  <g id="Heavy-L" transform="matrix(1 0 0 1 2552.41 1556)">
   <path d="M16.0645 17.6758C16.0645 25.0488 21.1914 28.8574 27.2949 28.8574C29.5898 28.8574 31.9336 28.2227 34.2285 26.9531L56.5918 14.7949L56.5918-97.4609C54.5898-96.9238 52.1973-95.9473 49.3652-94.3359L23.7305-79.9316C18.457-77.002 16.0645-72.9004 16.0645-66.9434ZM67.1387 12.1582L93.6523 26.9043C96.2402 28.3203 98.0957 29.3457 100.977 29.8828L100.977-78.418L75.4395-93.3594C72.0703-95.2637 69.3359-96.7285 67.1387-97.3633ZM111.523 29.2969C112.402 29.0527 113.379 28.6621 114.355 28.0762L144.385 11.2793C150.146 8.10547 152.49 4.10156 152.49-1.95312L152.49-85.2051C152.49-92.9688 147.217-96.4355 140.137-96.4355C137.549-96.4355 134.473-95.6055 131.934-94.2383L111.523-82.9102Z"/>
  </g>
  <g id="Bold-L" transform="matrix(1 0 0 1 2257.09 1556)">
   <path d="M65.5273 10.1562L93.8477 26.0742C95.8496 27.1484 97.4121 27.9785 99.6094 28.418L99.6094-77.5879L72.2656-93.8477C69.6289-95.3613 67.4316-96.4844 65.5273-97.0215ZM16.0645 17.4316C16.0645 23.6816 20.2637 27.002 25.6836 27.002C27.6855 27.002 29.7363 26.416 31.8848 25.2441L55.957 12.1582L55.957-96.7773C54.248-96.2891 52.2461-95.4102 50-94.1406L22.8027-78.6621C18.2129-76.0742 16.0645-72.5098 16.0645-67.2363ZM109.229 27.9785C110.01 27.7344 110.938 27.3926 111.816 26.8555L142.676 9.42383C147.607 6.68945 149.707 3.125 149.707-2.14844L149.707-85.9375C149.707-92.5293 145.41-95.6055 139.404-95.6055C137.158-95.6055 134.668-94.9219 132.373-93.6523L109.229-80.8105Z"/>
  </g>
  <g id="Semibold-L" transform="matrix(1 0 0 1 1961.33 1556)">
   <path d="M64.4531 8.78906L93.9453 25.4883C95.6055 26.3672 96.9238 27.0508 98.6816 27.4414L98.6816-77.002L70.0684-94.1895C67.9688-95.4102 66.1133-96.3379 64.4531-96.7773ZM16.0645 17.2363C16.0645 22.7539 19.6289 25.7324 24.5605 25.7324C26.3672 25.7324 28.2227 25.1953 30.2246 24.1211L55.5176 10.3516L55.5176-96.3379C54.0039-95.8496 52.2949-95.0684 50.3906-93.9941L22.2168-77.7832C18.0176-75.4395 16.0645-72.2168 16.0645-67.4316ZM107.617 27.0508C108.398 26.8555 109.229 26.5137 110.01 25.9766L141.455 8.1543C145.85 5.71289 147.803 2.49023 147.803-2.29492L147.803-86.4746C147.803-92.2363 144.141-95.0195 138.867-95.0195C136.914-95.0195 134.766-94.4336 132.666-93.2617L107.617-79.3945Z"/>
  </g>
  <g id="Medium-L" transform="matrix(1 0 0 1 1665.35 1556)">
   <path d="M63.623 7.71484L94.043 25.0488C95.4102 25.7812 96.582 26.3672 97.9492 26.6602L97.9492-76.5625L68.4082-94.4824C66.6992-95.459 65.0879-96.2402 63.623-96.582ZM16.0645 17.1387C16.0645 22.0703 19.1406 24.8047 23.7305 24.8047C25.3906 24.8047 27.0508 24.3164 29.0039 23.2422L55.2246 8.98438L55.2246-95.9961C53.8574-95.5078 52.2949-94.7754 50.7324-93.8965L21.7285-77.1484C17.8711-75 16.0645-72.0215 16.0645-67.627ZM106.396 26.3672C107.129 26.1719 107.91 25.8301 108.691 25.3418L140.576 7.17773C144.531 4.93164 146.338 2.00195 146.338-2.44141L146.338-86.8652C146.338-91.9922 143.213-94.5801 138.428-94.5801C136.719-94.5801 134.863-94.043 132.861-92.9199L106.396-78.3203Z"/>
  </g>
  <g id="Regular-L" transform="matrix(1 0 0 1 1369.6 1556)">
   <path d="M62.5488 6.34766L94.1406 24.4629C95.1172 25 96.0938 25.4395 97.0215 25.6836L97.0215-75.9766L66.2109-94.8242C65.0879-95.5078 63.8184-96.0449 62.5488-96.3379ZM16.0645 16.9434C16.0645 21.1426 18.5059 23.5352 22.6074 23.5352C24.0723 23.5352 25.5859 23.0957 27.3926 22.0703L54.7852 7.17773L54.7852-95.5566C53.6133-95.0684 52.3438-94.4336 51.123-93.75L21.1426-76.2695C17.7246-74.3652 16.0645-71.7285 16.0645-67.8223ZM104.834 25.4883C105.518 25.2441 106.25 24.9512 106.934 24.5117L139.404 5.9082C142.773 3.95508 144.434 1.36719 144.434-2.58789L144.434-87.4023C144.434-91.6504 141.943-93.9941 137.939-93.9941C136.475-93.9941 134.961-93.5547 133.154-92.5293L104.834-76.9043Z"/>
  </g>
  <g id="Light-L" transform="matrix(1 0 0 1 1074.69 1556)">
   <path d="M61.1328 5.12695L92.4805 23.5352C93.457 24.1211 94.4336 24.6094 95.3613 24.8047L95.3613-75.1953L64.8926-93.7988C63.7207-94.5312 62.4023-95.1172 61.1328-95.4102ZM16.0645 16.6504C16.0645 20.3125 18.2617 22.4121 21.7285 22.4121C22.998 22.4121 24.3164 22.0215 25.8789 21.1914L54.4922 5.37109L54.4922-94.9707C53.2715-94.5801 51.9531-93.9941 50.7324-93.2617L20.5078-75.3418C17.5293-73.6328 16.0645-71.582 16.0645-68.0176ZM102.051 24.6094C102.783 24.3164 103.613 24.0234 104.443 23.4863L136.377 4.88281C139.355 3.17383 140.82 1.12305 140.82-2.39258L140.82-87.1582C140.82-90.918 138.574-92.9199 135.205-92.9199C133.936-92.9199 132.617-92.5293 131.055-91.6992L102.051-75.7324Z"/>
  </g>
  <g id="Thin-L" transform="matrix(1 0 0 1 780.372 1556)">
   <path d="M16.0645 16.3086C16.0645 19.2383 17.9199 20.9473 20.5566 20.9473C21.582 20.9473 22.7051 20.6055 23.8281 19.9707L54.0527 2.97852L54.0527-94.2383C52.832-93.9941 51.416-93.4082 50.1465-92.627L19.6777-74.0234C17.334-72.6562 16.0645-71.3379 16.0645-68.3105ZM59.2773 3.4668L90.2344 22.3633C91.2598 22.998 92.2363 23.4863 93.1152 23.6816L93.1152-74.2188L63.1836-92.4316C61.9141-93.2129 60.5469-93.8477 59.2773-94.1406ZM98.3398 23.4375C99.2188 23.0957 100.146 22.7051 101.123 22.1191L132.422 3.51562C134.766 2.14844 136.035 0.830078 136.035-2.19727L136.035-86.8164C136.035-89.8926 134.082-91.4551 131.592-91.4551C130.566-91.4551 129.492-91.2109 128.32-90.5762L98.3398-74.2188Z"/>
  </g>
  <g id="Ultralight-L" transform="matrix(1 0 0 1 484.882 1556)">
   <path d="M16.0645 16.1133C16.0645 18.6523 17.7734 20.166 19.9707 20.166C20.8496 20.166 21.875 19.873 22.8027 19.3848L53.8574 1.75781L53.8574-93.8965C52.6367-93.6523 51.1719-93.1152 49.8535-92.2852L19.2383-73.3887C17.2363-72.168 16.0645-71.2402 16.0645-68.457ZM58.3008 2.58789L89.1113 21.7773C90.1367 22.4121 91.1133 22.9004 91.9922 23.0957L91.9922-73.6816L62.2559-91.6992C60.9863-92.5293 59.6191-93.1641 58.3008-93.5059ZM96.4355 22.8027C97.3633 22.5098 98.3398 22.0703 99.4629 21.3867L130.42 2.83203C132.422 1.61133 133.594 0.683594 133.594-2.09961L133.594-86.6699C133.594-89.4043 131.787-90.7227 129.785-90.7227C128.857-90.7227 127.881-90.5273 126.953-89.9902L96.4355-73.3887Z"/>
  </g>
  <g id="Black-M" transform="matrix(1 0 0 1 2866.41 1126)">
   <path d="M12.4512 6.15234C12.4512 13.5742 18.0176 17.2852 23.7305 17.2852C25.9766 17.2852 28.2715 16.6992 30.1758 15.6738L44.8242 7.61719L44.8242-84.4238C42.7734-84.0332 40.1855-83.0566 36.8652-81.2012L19.7266-71.7285C14.6973-68.9941 12.4512-65.0879 12.4512-59.375ZM89.3555 16.7969C90.1367 16.5527 91.1621 16.1621 92.1875 15.625L113.574 3.80859C119.336 0.683594 121.533-3.07617 121.533-8.93555L121.533-72.3633C121.533-80.4688 115.771-83.6426 108.643-83.6426C105.908-83.6426 102.637-82.8613 100.391-81.5918L89.3555-75.4883ZM54.248 4.63867L71.3867 14.0625C74.4141 15.7227 76.4648 16.9434 79.9316 17.5293L79.9316-69.9219L63.8184-78.8086C59.668-81.1035 56.5918-82.8125 54.248-83.5449Z"/>
  </g>
  <g id="Heavy-M" transform="matrix(1 0 0 1 2570.6 1126)">
   <path d="M12.4512 5.95703C12.4512 12.5 17.1875 15.7715 22.3633 15.7715C24.4141 15.7715 26.416 15.2832 28.2715 14.2578L44.3359 5.51758L44.3359-83.8867C42.5293-83.5449 40.332-82.6172 37.5977-81.1035L19.043-70.752C14.502-68.2617 12.4512-64.7461 12.4512-59.5703ZM53.0762 3.02734L71.9727 13.4766C74.5117 14.8438 76.2207 15.8203 79.0527 16.3086L79.0527-69.2871L61.0352-79.541C57.666-81.3965 55.0781-82.8125 53.0762-83.4473ZM87.793 15.7715C88.5254 15.5273 89.4531 15.1855 90.332 14.6973L112.695 2.24609C117.725-0.537109 119.727-3.95508 119.727-9.17969L119.727-73.1934C119.727-80.2246 114.844-83.1055 108.594-83.1055C106.25-83.1055 103.418-82.4219 101.318-81.25L87.793-73.7793Z"/>
  </g>
  <g id="Bold-M" transform="matrix(1 0 0 1 2274.87 1126)">
   <path d="M12.4512 5.76172C12.4512 11.2793 16.2598 14.1113 20.8984 14.1113C22.6074 14.1113 24.3652 13.623 26.1719 12.6953L43.75 3.125L43.75-83.3496C42.2363-82.959 40.4785-82.1777 38.3789-81.0059L18.2129-69.6777C14.2578-67.4805 12.4512-64.3555 12.4512-59.8633ZM51.7578 1.17188L72.6562 12.793C74.5605 13.8184 75.9277 14.5996 78.0762 14.9902L78.0762-68.5547L57.959-80.3711C55.4688-81.7871 53.418-82.8613 51.7578-83.3496ZM86.084 14.5508C86.7188 14.3555 87.5 14.0625 88.2324 13.623L111.67 0.537109C115.967-1.85547 117.773-4.93164 117.773-9.47266L117.773-74.0723C117.773-79.9316 113.867-82.5195 108.545-82.5195C106.543-82.5195 104.297-81.9336 102.393-80.8594L86.084-71.8262Z"/>
  </g>
  <g id="Semibold-M" transform="matrix(1 0 0 1 1978.84 1126)">
   <path d="M50.8789-0.0976562L73.0957 12.3535C74.6094 13.1348 75.7324 13.7207 77.3438 14.0625L77.3438-68.0664L55.8105-80.957C53.9062-82.0801 52.2461-82.8613 50.8789-83.252ZM12.4512 5.61523C12.4512 10.4004 15.625 12.9883 19.8242 12.9883C21.3867 12.9883 22.998 12.5488 24.6582 11.5723L43.3594 1.51367L43.3594-82.959C42.0898-82.5684 40.5762-81.8848 38.916-80.957L17.6758-68.8965C14.1113-66.8945 12.4512-64.0625 12.4512-60.0586ZM84.9121 13.7695C85.498 13.5742 86.1816 13.2812 86.8164 12.9395L110.938-0.683594C114.746-2.7832 116.406-5.56641 116.406-9.66797L116.406-74.707C116.406-79.7363 113.135-82.1289 108.496-82.1289C106.787-82.1289 104.883-81.5918 103.076-80.6152L84.9121-70.5078Z"/>
  </g>
  <g id="Medium-M" transform="matrix(1 0 0 1 1682.64 1126)">
   <path d="M50.1953-1.02539L73.4863 11.9629C74.6582 12.5977 75.6348 13.0859 76.8555 13.3789L76.8555-67.7246L54.1992-81.3965C52.7344-82.2754 51.3672-82.9102 50.1953-83.2031ZM12.4512 5.51758C12.4512 9.76562 15.1367 12.1094 19.043 12.1094C20.459 12.1094 21.9238 11.6699 23.584 10.791L43.0176 0.244141L43.0176-82.666C41.9434-82.2266 40.6738-81.6895 39.3555-80.9082L17.2852-68.3594C13.9648-66.5039 12.4512-63.8672 12.4512-60.1562ZM83.9844 13.1348C84.5703 12.9883 85.1562 12.7441 85.6934 12.3535L110.4-1.61133C113.818-3.51562 115.381-6.10352 115.381-9.81445L115.381-75.1465C115.381-79.5898 112.646-81.7871 108.496-81.7871C106.982-81.7871 105.371-81.3477 103.662-80.4199L83.9844-69.4824Z"/>
  </g>
  <g id="Regular-M" transform="matrix(1 0 0 1 1386.61 1126)">
   <path d="M49.3164-2.29492L73.9258 11.5234C74.6582 11.9141 75.4395 12.2559 76.1719 12.4512L76.1719-67.2363L52.0508-81.9824C51.2207-82.5195 50.2441-82.9102 49.3164-83.1055ZM12.4512 5.37109C12.4512 8.93555 14.502 10.9863 18.0176 10.9863C19.2871 10.9863 20.5078 10.5957 22.1191 9.7168L42.627-1.36719L42.627-82.2754C41.748-81.8359 40.7715-81.3477 39.8926-80.8594L16.748-67.5781C13.8184-65.9668 12.4512-63.623 12.4512-60.3516ZM82.8125 12.3047C83.3008 12.1582 83.8379 11.9629 84.2773 11.6699L109.717-2.7832C112.646-4.39453 114.014-6.73828 114.014-10.0098L114.014-75.7812C114.014-79.3945 111.963-81.3965 108.447-81.3965C107.178-81.3965 105.957-81.0059 104.346-80.127L82.8125-68.1641Z"/>
  </g>
  <g id="Light-M" transform="matrix(1 0 0 1 1091.54 1126)">
   <path d="M48.0469-3.41797L72.4121 10.7422C73.1934 11.1816 73.9258 11.5234 74.6582 11.6699L74.6582-66.5527L50.8789-81.0547C50-81.6406 48.9746-82.0801 48.0469-82.2754ZM12.4512 5.12695C12.4512 8.20312 14.2578 9.96094 17.2363 9.96094C18.3105 9.96094 19.4336 9.61914 20.752 8.88672L42.334-2.97852L42.334-81.7871C41.4551-81.4453 40.4297-80.957 39.502-80.4199L16.1621-66.748C13.6719-65.332 12.4512-63.4766 12.4512-60.5469ZM80.3223 11.5234C80.9082 11.3281 81.4941 11.084 82.0312 10.7422L107.031-3.71094C109.521-5.12695 110.742-6.93359 110.742-9.86328L110.742-75.5859C110.742-78.7109 108.887-80.4199 106.006-80.4199C104.932-80.4199 103.809-80.0781 102.49-79.3945L80.3223-67.1387Z"/>
  </g>
  <g id="Thin-M" transform="matrix(1 0 0 1 796.974 1126)">
   <path d="M46.3379-4.88281L70.4102 9.66797C71.2402 10.1562 71.9727 10.498 72.6562 10.6445L72.6562-65.6738L49.3164-79.834C48.3887-80.4199 47.3145-80.9082 46.3379-81.1523ZM12.4512 4.78516C12.4512 7.22656 13.9648 8.64258 16.2109 8.64258C17.041 8.64258 17.9199 8.34961 18.8965 7.8125L41.9922-5.07812L41.9922-81.1523C41.0645-80.9082 39.9414-80.4199 38.9648-79.834L15.4297-65.5762C13.4766-64.4531 12.4512-63.2812 12.4512-60.791ZM77.002 10.498C77.6855 10.2539 78.3691 9.96094 79.1016 9.52148L103.516-4.88281C105.42-6.05469 106.445-7.22656 106.445-9.66797L106.445-75.293C106.445-77.832 104.883-79.1016 102.783-79.1016C101.904-79.1016 101.025-78.9062 100.049-78.3691L77.002-65.7715Z"/>
  </g>
  <g id="Ultralight-M" transform="matrix(1 0 0 1 501.362 1126)">
   <path d="M12.4512 4.58984C12.4512 6.68945 13.8184 7.95898 15.625 7.95898C16.4062 7.95898 17.1875 7.66602 17.9688 7.27539L41.7969-6.20117L41.7969-80.8105C40.8691-80.6152 39.7461-80.1758 38.7207-79.541L15.0391-64.9902C13.3789-64.0137 12.4512-63.1836 12.4512-60.9375ZM45.459-5.66406L69.3848 9.13086C70.2148 9.61914 70.9473 10.0098 71.6309 10.1074L71.6309-65.1855L48.5352-79.1992C47.5586-79.834 46.4844-80.3223 45.459-80.5664ZM75.3418 9.96094C76.0254 9.66797 76.7578 9.375 77.5879 8.88672L101.66-5.51758C103.32-6.49414 104.248-7.37305 104.248-9.57031L104.248-75.1465C104.248-77.3438 102.832-78.4668 101.123-78.4668C100.391-78.4668 99.6094-78.2715 98.7793-77.832L75.3418-65.0391Z"/>
  </g>
  <g id="Black-S" transform="matrix(1 0 0 1 2880.96 696)">
   <path d="M9.76562-2.83203C9.76562 2.92969 14.0625 5.81055 18.5059 5.81055C20.2637 5.81055 22.0215 5.37109 23.5352 4.54102L35.1074-1.80664L35.1074-73.7305C33.4961-73.4375 31.4941-72.6562 28.9551-71.2402L15.4297-63.7695C11.5234-61.6211 9.76562-58.5938 9.76562-54.1504ZM69.9219 5.46875C70.5566 5.27344 71.3379 4.98047 72.1191 4.54102L88.9648-4.73633C93.4082-7.17773 95.1172-10.1074 95.1172-14.6484L95.1172-64.4043C95.1172-70.6543 90.6738-73.1445 85.1562-73.1445C83.0566-73.1445 80.5176-72.5098 78.7598-71.5332L69.9219-66.6504ZM42.4316-4.10156L56.0059 3.36914C58.3496 4.63867 59.9121 5.56641 62.5977 6.00586L62.5977-62.3535L49.8047-69.4336C46.6309-71.1914 44.2383-72.5098 42.4316-73.0957Z"/>
  </g>
  <g id="Heavy-S" transform="matrix(1 0 0 1 2584.74 696)">
   <path d="M9.76562-2.92969C9.76562 2.19727 13.4766 4.78516 17.5781 4.78516C19.1406 4.78516 20.752 4.3457 22.2168 3.56445L34.7168-3.27148L34.7168-73.3887C33.3496-73.0957 31.6406-72.4121 29.541-71.2402L14.9414-63.1348C11.377-61.1328 9.76562-58.3496 9.76562-54.2969ZM41.6992-5.22461L56.6406 2.97852C58.5449 4.05273 59.9121 4.78516 62.0605 5.17578L62.0605-61.9629L47.8027-70.1172C45.2148-71.5332 43.2129-72.6074 41.6992-73.0957ZM69.043 4.73633C69.5801 4.58984 70.2637 4.29688 70.9473 3.95508L88.5742-5.81055C92.5293-8.00781 94.1406-10.7422 94.1406-14.8438L94.1406-65.0391C94.1406-70.5566 90.332-72.8516 85.4004-72.8516C83.5449-72.8516 81.3477-72.2656 79.6875-71.3379L69.043-65.4297Z"/>
  </g>
  <g id="Bold-S" transform="matrix(1 0 0 1 2288.59 696)">
   <path d="M40.8203-6.49414L57.3242 2.58789C58.7891 3.36914 59.8633 3.95508 61.5234 4.24805L61.5234-61.4746L45.6055-70.8984C43.7012-71.9727 42.1387-72.7539 40.8203-73.1445ZM9.76562-3.07617C9.76562 1.31836 12.793 3.61328 16.5039 3.61328C17.9199 3.61328 19.3359 3.22266 20.752 2.44141L34.3262-4.88281L34.3262-73.0469C33.2031-72.7051 31.7871-72.1191 30.1758-71.1914L14.4043-62.4023C11.2305-60.5957 9.76562-58.0566 9.76562-54.4922ZM68.0176 3.95508C68.5059 3.80859 69.0918 3.56445 69.6289 3.27148L88.1348-7.03125C91.6016-8.98438 93.0176-11.4746 93.0176-15.0879L93.0176-65.7715C93.0176-70.4102 89.9414-72.5098 85.6445-72.5098C84.082-72.5098 82.2754-72.0215 80.7129-71.1426L68.0176-64.1113Z"/>
  </g>
  <g id="Semibold-S" transform="matrix(1 0 0 1 1992.27 696)">
   <path d="M40.2832-7.37305L57.8125 2.29492C58.9355 2.88086 59.8633 3.36914 61.084 3.61328L61.084-61.1816L44.043-71.3867C42.627-72.2168 41.3574-72.8516 40.2832-73.1445ZM9.76562-3.17383C9.76562 0.732422 12.3047 2.83203 15.7715 2.83203C17.041 2.83203 18.3594 2.49023 19.7754 1.70898L34.0332-5.95703L34.0332-72.8027C33.0566-72.4121 31.9336-71.9238 30.6641-71.1914L14.0137-61.8652C11.084-60.2539 9.76562-57.8613 9.76562-54.5898ZM67.334 3.36914C67.7734 3.27148 68.2617 3.07617 68.7012 2.7832L87.793-7.91016C90.918-9.61914 92.2363-11.9629 92.2363-15.2832L92.2363-66.2598C92.2363-70.3125 89.6484-72.2656 85.8398-72.2656C84.4727-72.2656 82.9102-71.8262 81.4453-70.9961L67.334-63.1836Z"/>
  </g>
  <g id="Medium-S" transform="matrix(1 0 0 1 1695.85 696)">
   <path d="M39.8438-8.00781L58.1543 2.05078C59.082 2.53906 59.8633 2.92969 60.791 3.125L60.791-60.9375L42.8711-71.7773C41.7969-72.4609 40.7715-72.9004 39.8438-73.1445ZM9.76562-3.22266C9.76562 0.292969 11.9629 2.24609 15.2344 2.24609C16.4062 2.24609 17.5781 1.9043 18.9941 1.12305L33.8379-6.83594L33.8379-72.6074C32.959-72.2168 32.0312-71.7773 31.0059-71.1914L13.7695-61.4746C11.0352-59.9609 9.76562-57.7148 9.76562-54.6875ZM66.7969 2.97852C67.1875 2.83203 67.627 2.68555 68.0176 2.44141L87.5977-8.54492C90.4297-10.1074 91.6504-12.3535 91.6504-15.3809L91.6504-66.6016C91.6504-70.2637 89.4531-72.1191 85.9863-72.1191C84.7168-72.1191 83.3984-71.7285 81.9824-70.8984L66.7969-62.4512Z"/>
  </g>
  <g id="Regular-S" transform="matrix(1 0 0 1 1399.5 696)">
   <path d="M39.2578-8.88672L58.6426 1.75781C59.2285 2.09961 59.8145 2.34375 60.4004 2.53906L60.4004-60.6445L41.3574-72.3145C40.7227-72.7051 39.9902-72.998 39.2578-73.1445ZM9.76562-3.32031C9.76562-0.244141 11.4746 1.46484 14.502 1.46484C15.5762 1.46484 16.6016 1.12305 18.0176 0.341797L33.5449-7.91016L33.5449-72.3145C32.8613-71.9727 32.1289-71.582 31.4453-71.1914L13.3789-60.9863C10.9375-59.6191 9.76562-57.5684 9.76562-54.834ZM66.1133 2.39258C66.4551 2.29492 66.8457 2.14844 67.1387 1.95312L87.2559-9.375C89.7461-10.7422 90.918-12.8418 90.918-15.5762L90.918-67.0898C90.918-70.166 89.1602-71.875 86.1328-71.875C85.1074-71.875 84.0332-71.5332 82.666-70.8008L66.1133-61.5723Z"/>
  </g>
  <g id="Light-S" transform="matrix(1 0 0 1 1104.23 696)">
   <path d="M38.1348-9.86328L57.3242 1.07422C57.9102 1.41602 58.4961 1.66016 59.082 1.80664L59.082-60.0586L40.332-71.4844C39.6484-71.9238 38.8672-72.2656 38.1348-72.4121ZM9.76562-3.51562C9.76562-0.927734 11.2793 0.537109 13.8184 0.537109C14.7461 0.537109 15.625 0.292969 16.7969-0.341797L33.3008-9.32617L33.3008-71.875C32.6172-71.582 31.8359-71.2402 31.1035-70.8008L12.8906-60.2539C10.791-59.0332 9.76562-57.4219 9.76562-54.9805ZM63.916 1.70898C64.3066 1.5625 64.7461 1.41602 65.1367 1.12305L84.9121-10.1562C87.0117-11.377 88.0371-12.9883 88.0371-15.4297L88.0371-66.8945C88.0371-69.5801 86.4746-70.9961 83.9844-70.9961C83.1055-70.9961 82.1777-70.752 81.0059-70.1172L63.916-60.6445Z"/>
  </g>
  <g id="Thin-S" transform="matrix(1 0 0 1 809.425 696)">
   <path d="M36.6211-11.1816L55.5664 0.146484C56.2012 0.537109 56.7871 0.78125 57.3242 0.927734L57.3242-59.2285L38.9648-70.4102C38.2324-70.8984 37.4023-71.2402 36.6211-71.4355ZM9.76562-3.80859C9.76562-1.80664 11.0352-0.634766 12.8906-0.634766C13.623-0.634766 14.3555-0.830078 15.1855-1.31836L32.959-11.2305L32.959-71.3379C32.2754-71.0938 31.3965-70.752 30.6641-70.3125L12.2559-59.2285C10.5957-58.3008 9.76562-57.2266 9.76562-55.2246ZM60.9863 0.78125C61.4746 0.634766 62.0117 0.390625 62.5488 0.0488281L81.7871-11.2305C83.3984-12.1582 84.2285-13.2324 84.2285-15.2344L84.2285-66.6504C84.2285-68.75 82.959-69.873 81.1523-69.873C80.4199-69.873 79.6875-69.6777 78.8574-69.2383L60.9863-59.4238Z"/>
  </g>
  <g id="Ultralight-S" transform="matrix(1 0 0 1 513.691 696)">
   <path d="M9.76562-3.95508C9.76562-2.24609 10.8887-1.2207 12.4023-1.2207C13.0371-1.2207 13.6719-1.41602 14.3555-1.80664L32.8125-12.1582L32.8125-70.9961C32.0801-70.8496 31.2012-70.5078 30.4199-70.0195L11.9141-58.6914C10.498-57.9102 9.76562-57.1289 9.76562-55.3223ZM35.8887-11.8652L54.6387-0.341797C55.2734 0.0488281 55.8594 0.341797 56.3965 0.439453L56.3965-58.8379L38.2324-69.873C37.4512-70.3613 36.6699-70.7031 35.8887-70.8984ZM59.4727 0.292969C60.0098 0.0976562 60.5957-0.146484 61.1816-0.488281L80.1758-11.7676C81.543-12.5977 82.2754-13.3301 82.2754-15.1367L82.2754-66.5527C82.2754-68.3594 81.1523-69.2871 79.6875-69.2871C79.0527-69.2871 78.418-69.1406 77.7344-68.75L59.4727-58.7891Z"/>
  </g>
 </g>
</svg>
