<svg xmlns="http://www.w3.org/2000/svg" viewBox="12.4609 -93.9121 86.64 110.2">
  <path d="M 27.7789 16.2478 L 83.7823 16.2478 Q 91.4407 16.2478 95.2705 12.4387 Q 99.1003 8.6295 99.1003 1.0851 L 99.1003 -47.5657 Q 99.1003 -55.1102 95.2705 -58.9193 Q 91.4407 -62.7285 83.7823 -62.7285 L 70.1968 -62.7285 L 70.1968 -54.8338 L 83.6577 -54.8338 Q 87.2859 -54.8338 89.2663 -52.9157 Q 91.2468 -50.9976 91.2468 -47.1824 L 91.2468 0.7018 Q 91.2468 4.5169 89.2663 6.4297 Q 87.2859 8.3425 83.6577 8.3425 L 27.9035 8.3425 Q 24.2435 8.3425 22.279 6.4297 Q 20.3144 4.5169 20.3144 0.7018 L 20.3144 -47.1824 Q 20.3144 -50.9976 22.279 -52.9157 Q 24.2435 -54.8338 27.9035 -54.8338 L 41.3853 -54.8338 L 41.3853 -62.7285 L 27.7789 -62.7285 Q 20.1615 -62.7285 16.3112 -58.9299 Q 12.4609 -55.1313 12.4609 -47.5657 L 12.4609 1.0851 Q 12.4609 8.6506 16.3112 12.4492 Q 20.1615 16.2478 27.7789 16.2478 Z M 55.7547 -21.9803 Q 57.3399 -21.9803 58.5107 -23.0992 Q 59.6815 -24.2182 59.6815 -25.8034 L 59.6815 -75.8993 L 59.3603 -83.2387 L 62.6312 -79.7501 L 70.0334 -71.8822 Q 71.039 -70.7215 72.6759 -70.7215 Q 74.1884 -70.7215 75.2297 -71.6853 Q 76.2711 -72.649 76.2711 -74.1203 Q 76.2711 -75.5397 75.0691 -76.6792 L 58.5831 -92.6066 Q 57.8786 -93.3628 57.1947 -93.6374 Q 56.5108 -93.9121 55.7547 -93.9121 Q 55.0397 -93.9121 54.3612 -93.6374 Q 53.6826 -93.3628 52.9263 -92.6066 L 36.4298 -76.6792 Q 35.2795 -75.5397 35.2795 -74.1203 Q 35.2795 -72.649 36.2639 -71.6853 Q 37.2482 -70.7215 38.8228 -70.7215 Q 40.4599 -70.7215 41.5065 -71.8822 L 48.9193 -79.7501 L 52.2007 -83.2493 L 51.8797 -75.8993 L 51.8797 -25.8034 Q 51.8797 -24.2182 53.0504 -23.0992 Q 54.2211 -21.9803 55.7547 -21.9803 Z"
    fill="#fff" />
</svg>